SplineFontDB: 3.2
FontName: KARGAME
FullName: KarGame_basic
FamilyName: KARGAME_basic
Weight: Book
Copyright: Copyright (c) GaneshGameStudios, 2020. All rights reserved.
Version: 1.0; 2020
ItalicAngle: 0
UnderlinePosition: -125
UnderlineWidth: 50
Ascent: 800
Descent: 200
InvalidEm: 0
sfntRevision: 0x00010000
LayerCount: 2
Layer: 0 1 "Back" 1
Layer: 1 1 "Fore" 0
XUID: [1021 867 -357431715 23013]
StyleMap: 0x0040
FSType: 0
OS2Version: 0
OS2_WeightWidthSlopeOnly: 0
OS2_UseTypoMetrics: 0
CreationTime: 1063281622
ModificationTime: 1596978383
PfmFamily: 17
TTFWeight: 400
TTFWidth: 5
LineGap: 7
VLineGap: 0
Panose: 2 0 0 0 0 0 0 0 0 0
OS2TypoAscent: 670
OS2TypoAOffset: 0
OS2TypoDescent: -495
OS2TypoDOffset: 0
OS2TypoLinegap: 0
OS2WinAscent: 670
OS2WinAOffset: 0
OS2WinDescent: 495
OS2WinDOffset: 0
HheadAscent: 670
HheadAOffset: 0
HheadDescent: -495
HheadDOffset: 0
OS2SubXSize: 100
OS2SubYSize: 100
OS2SubXOff: 0
OS2SubYOff: 140
OS2SupXSize: 100
OS2SupYSize: 100
OS2SupXOff: 0
OS2SupYOff: 140
OS2StrikeYSize: 50
OS2StrikeYPos: 250
OS2Vendor: 'soha'
OS2UnicodeRanges: 80000003.00000000.00000000.00000000
MarkAttachClasses: 1
DEI: 91125
TtTable: prep
NPUSHB
 43
 24
 24
 23
 23
 22
 22
 21
 21
 20
 20
 19
 19
 18
 18
 17
 17
 16
 16
 15
 15
 14
 14
 13
 13
 12
 12
 11
 11
 10
 10
 9
 9
 8
 8
 7
 7
 6
 6
 1
 1
 0
 0
 1
SCANTYPE
PUSHW_1
 511
SCANCTRL
RCVT
ROUND[Grey]
WCVTP
RCVT
ROUND[Grey]
WCVTP
RCVT
ROUND[Grey]
WCVTP
RCVT
ROUND[Grey]
WCVTP
RCVT
ROUND[Grey]
WCVTP
RCVT
ROUND[Grey]
WCVTP
RCVT
ROUND[Grey]
WCVTP
RCVT
ROUND[Grey]
WCVTP
RCVT
ROUND[Grey]
WCVTP
RCVT
ROUND[Grey]
WCVTP
RCVT
ROUND[Grey]
WCVTP
RCVT
ROUND[Grey]
WCVTP
RCVT
ROUND[Grey]
WCVTP
RCVT
ROUND[Grey]
WCVTP
RCVT
ROUND[Grey]
WCVTP
RCVT
ROUND[Grey]
WCVTP
RCVT
ROUND[Grey]
WCVTP
RCVT
ROUND[Grey]
WCVTP
RCVT
ROUND[Grey]
WCVTP
RCVT
ROUND[Grey]
WCVTP
RCVT
ROUND[Grey]
WCVTP
PUSHB_4
 3
 2
 70
 0
CALL
PUSHB_4
 5
 4
 70
 0
CALL
PUSHB_2
 2
 2
RCVT
ROUND[Grey]
WCVTP
PUSHB_2
 4
 4
RCVT
ROUND[Grey]
WCVTP
EndTTInstrs
TtTable: fpgm
NPUSHB
 1

StartChar: .notdef
Encoding: 65536 -1 0
Width: 500
Flags: W
LayerCount: 2
Fore
SplineSet
63 0 m 1,0,-1
 63 670 l 1,1,-1
 438 670 l 1,2,-1
 438 0 l 1,3,-1
 63 0 l 1,0,-1
125 63 m 1,4,-1
 375 63 l 1,5,-1
 375 608 l 1,6,-1
 125 608 l 1,7,-1
 125 63 l 1,4,-1
EndSplineSet
Validated: 1
EndChar

StartChar: exclam
Encoding: 33 33 4
Width: 221
Flags: W
LayerCount: 2
Fore
SplineSet
160 477 m 1,0,-1
 121 148 l 1,1,-1
 99 148 l 1,2,-1
 61 476 l 2,3,4
 60 503 60 503 72.5 522.5 c 128,-1,5
 85 542 85 542 111 542 c 256,6,7
 137 542 137 542 149 524 c 0,8,9
 158 506 158 506 158 497 c 2,10,-1
 160 477 l 1,0,-1
159 50 m 0,11,12
 159 3 159 3 111 3 c 0,13,14
 62 3 62 3 62 50 c 0,15,16
 62 70 62 70 76.5 83.5 c 128,-1,17
 91 97 91 97 111 97 c 256,18,19
 131 97 131 97 145 83.5 c 128,-1,20
 159 70 159 70 159 50 c 0,11,12
EndSplineSet
Validated: 33
EndChar

StartChar: quotedbl
Encoding: 34 34 5
Width: 286
Flags: W
LayerCount: 2
Fore
SplineSet
238 603 m 2,0,-1
 236 575 l 1,1,-1
 231 542 l 1,2,-1
 212 444 l 1,3,-1
 195 444 l 1,4,-1
 170 599 l 1,5,6
 170 639 170 639 204 639 c 0,7,8
 240 639 240 639 238 603 c 2,0,-1
115 603 m 1,9,-1
 106 543 l 1,10,-1
 89 444 l 1,11,-1
 74 444 l 1,12,-1
 50 572 l 2,13,14
 48 582 48 582 48 599 c 0,15,16
 48 639 48 639 81 639 c 0,17,18
 115 639 115 639 115 603 c 1,9,-1
EndSplineSet
Validated: 33
EndChar

StartChar: numbersign
Encoding: 35 35 6
Width: 436
Flags: W
LayerCount: 2
Fore
SplineSet
385 109 m 1,0,-1
 290 109 l 1,1,-1
 257 -42 l 1,2,-1
 228 -42 l 1,3,-1
 261 109 l 1,4,-1
 141 109 l 1,5,-1
 108 -42 l 1,6,-1
 78 -42 l 1,7,-1
 112 109 l 1,8,-1
 51 109 l 1,9,-1
 51 139 l 1,10,-1
 117 139 l 1,11,-1
 141 259 l 1,12,-1
 51 259 l 1,13,-1
 51 287 l 1,14,-1
 148 287 l 1,15,-1
 180 447 l 1,16,-1
 209 447 l 1,17,-1
 177 287 l 1,18,-1
 295 287 l 1,19,-1
 330 447 l 1,20,-1
 359 447 l 1,21,-1
 326 287 l 1,22,-1
 385 287 l 1,23,-1
 385 259 l 1,24,-1
 320 259 l 1,25,-1
 295 139 l 1,26,-1
 385 139 l 1,27,-1
 385 109 l 1,0,-1
291 259 m 1,28,-1
 171 259 l 1,29,-1
 146 139 l 1,30,-1
 266 139 l 1,31,-1
 291 259 l 1,28,-1
EndSplineSet
Validated: 1
EndChar

StartChar: dollar
Encoding: 36 36 7
Width: 373
Flags: W
LayerCount: 2
Fore
SplineSet
322 117 m 0,0,1
 322 66 322 66 282 33 c 128,-1,2
 242 0 242 0 190 0 c 1,3,-1
 190 -38 l 1,4,-1
 169 -38 l 1,5,-1
 169 0 l 1,6,7
 131 0 131 0 109 6 c 2,8,-1
 51 22 l 1,9,-1
 51 117 l 1,10,-1
 65 117 l 1,11,12
 80 27 80 27 169 18 c 1,13,-1
 169 212 l 1,14,15
 91 259 91 259 69 294 c 0,16,17
 51 322 51 322 51 356 c 0,18,19
 51 405 51 405 87 434 c 0,20,21
 118 460 118 460 169 465 c 1,22,-1
 169 496 l 1,23,-1
 190 496 l 1,24,-1
 190 465 l 1,25,-1
 236 459 l 1,26,-1
 300 435 l 1,27,-1
 300 336 l 1,28,-1
 287 336 l 1,29,30
 274 419 274 419 230 434 c 0,31,32
 214 442 214 442 190 442 c 1,33,-1
 190 273 l 1,34,35
 259 225 259 225 276 209 c 0,36,37
 322 165 322 165 322 117 c 0,0,1
169 287 m 1,38,-1
 169 442 l 1,39,40
 103 430 103 430 103 377 c 0,41,42
 103 329 103 329 169 287 c 1,38,-1
269 101 m 0,43,44
 269 143 269 143 190 198 c 1,45,-1
 190 18 l 1,46,47
 217 21 217 21 229 30 c 0,48,49
 269 60 269 60 269 101 c 0,43,44
EndSplineSet
Validated: 1
EndChar

StartChar: percent
Encoding: 37 37 8
Width: 498
Flags: W
LayerCount: 2
Fore
SplineSet
242 365 m 0,0,1
 242 313 242 313 219 281 c 0,2,3
 191 241 191 241 145 241 c 0,4,5
 121 241 121 241 107 249 c 0,6,7
 42 286 42 286 47 365 c 2,8,-1
 49 395 l 1,9,-1
 55 417 l 1,10,11
 83 491 83 491 146 491 c 0,12,13
 194 491 194 491 220 450 c 0,14,15
 242 416 242 416 242 365 c 0,0,1
436 492 m 1,16,-1
 99 2 l 1,17,-1
 69 2 l 1,18,-1
 404 492 l 1,19,-1
 436 492 l 1,16,-1
451 133 m 2,20,-1
 448 109 l 1,21,-1
 443 81 l 1,22,23
 418 10 418 10 355 10 c 0,24,25
 308 10 308 10 281 49 c 0,26,27
 257 84 257 84 257 133 c 0,28,29
 257 190 257 190 285 224 c 1,30,31
 318 257 318 257 353 257 c 0,32,33
 390 257 390 257 417 228 c 0,34,35
 441 202 441 202 448 164 c 0,36,37
 451 149 451 149 451 133 c 2,20,-1
189 364 m 0,38,39
 189 472 189 472 145 472 c 0,40,41
 103 472 103 472 103 366 c 2,42,-1
 103 329 l 2,43,44
 103 259 103 259 144 259 c 0,45,46
 189 259 189 259 189 364 c 0,38,39
398 133 m 0,47,48
 398 240 398 240 354 240 c 256,49,50
 310 240 310 240 310 131 c 0,51,52
 310 29 310 29 354 29 c 256,53,54
 398 29 398 29 398 133 c 0,47,48
EndSplineSet
Validated: 33
EndChar

StartChar: ampersand
Encoding: 38 38 9
Width: 602
Flags: W
LayerCount: 2
Fore
SplineSet
553 93 m 1,0,1
 526 0 526 0 445 0 c 0,2,3
 386 0 386 0 324 66 c 1,4,5
 244 0 244 0 173 0 c 0,6,7
 127 0 127 0 88 25 c 1,8,9
 49 57 49 57 49 101 c 0,10,11
 49 193 49 193 192 271 c 1,12,13
 164 330 164 330 164 375 c 0,14,15
 164 426 164 426 198.5 457.5 c 128,-1,16
 233 489 233 489 285 489 c 0,17,18
 323 489 323 489 350.5 465 c 128,-1,19
 378 441 378 441 378 404 c 0,20,21
 378 337 378 337 264 280 c 1,22,-1
 307 208 l 1,23,-1
 356 136 l 1,24,25
 417 209 417 209 417 259 c 0,26,27
 417 295 417 295 384 298 c 1,28,-1
 384 311 l 1,29,-1
 529 311 l 1,30,-1
 529 298 l 1,31,-1
 502 293 l 1,32,-1
 485 285 l 1,33,34
 467 272 467 272 429 206 c 0,35,36
 389 137 389 137 372 116 c 1,37,38
 428 51 428 51 476 51 c 0,39,40
 527 51 527 51 539 102 c 1,41,-1
 553 93 l 1,0,1
337 406 m 0,42,43
 337 432 337 432 322.5 448 c 128,-1,44
 308 464 308 464 284 464 c 0,45,46
 257 464 257 464 240 446 c 128,-1,47
 223 428 223 428 223 401 c 0,48,49
 223 372 223 372 252 302 c 1,50,51
 337 345 337 345 337 406 c 0,42,43
305 85 m 1,52,-1
 242 176 l 1,53,-1
 203 248 l 1,54,55
 121 202 121 202 121 133 c 0,56,57
 121 92 121 92 144 66 c 128,-1,58
 167 40 167 40 208 40 c 0,59,60
 251 40 251 40 305 85 c 1,52,-1
EndSplineSet
Validated: 1
EndChar

StartChar: quotesingle
Encoding: 39 39 10
Width: 224
Flags: W
LayerCount: 2
Fore
SplineSet
177 598 m 1,0,1
 177 541 177 541 143 508 c 0,2,3
 112 479 112 479 64 479 c 0,4,5
 53 479 53 479 53 489 c 256,6,7
 53 499 53 499 64 499 c 0,8,9
 119 499 119 499 143 542 c 1,10,11
 129 534 129 534 112 534 c 0,12,13
 85 534 85 534 66.5 552.5 c 128,-1,14
 48 571 48 571 48 598 c 256,15,16
 48 625 48 625 66.5 644 c 128,-1,17
 85 663 85 663 112 663 c 256,18,19
 139 663 139 663 158 644 c 128,-1,20
 177 625 177 625 177 598 c 1,21,-1
 177 598 l 1,0,1
EndSplineSet
Validated: 5
EndChar

StartChar: parenleft
Encoding: 40 40 11
Width: 320
Flags: W
LayerCount: 2
Fore
SplineSet
272 -141 m 1,0,-1
 259 -154 l 1,1,2
 160 -91 160 -91 105 2 c 0,3,4
 48 99 48 99 48 214 c 0,5,6
 48 438 48 438 259 580 c 1,7,-1
 270 559 l 1,8,9
 189 487 189 487 153 391 c 1,10,11
 145 345 145 345 131 263 c 2,12,-1
 125 230 l 1,13,-1
 124 199 l 2,14,15
 118 8 118 8 272 -141 c 1,0,-1
EndSplineSet
Validated: 33
EndChar

StartChar: parenright
Encoding: 41 41 12
Width: 320
Flags: W
LayerCount: 2
Fore
SplineSet
272 184 m 0,0,1
 272 71 272 71 215 -13 c 0,2,3
 167 -82 167 -82 61 -152 c 1,4,-1
 50 -131 l 1,5,6
 135 -52 135 -52 167 21 c 1,7,8
 196 129 196 129 196 199 c 0,9,10
 196 276 196 276 161 413 c 1,11,12
 142 454 142 454 114 493 c 0,13,14
 83 535 83 535 48 569 c 1,15,-1
 61 582 l 1,16,17
 227 475 227 475 262 307 c 0,18,19
 272 255 272 255 272 184 c 0,0,1
EndSplineSet
Validated: 1
EndChar

StartChar: asterisk
Encoding: 42 42 13
Width: 385
Flags: W
LayerCount: 2
Fore
SplineSet
337 339 m 1,0,1
 332 321 332 321 323 314 c 2,2,-1
 287 298 l 1,3,-1
 259 291 l 2,4,5
 216 280 216 280 209 276 c 1,6,7
 242 263 242 263 259 260 c 0,8,9
 336 239 336 239 336 210 c 256,10,11
 336 181 336 181 307 181 c 0,12,13
 277 181 277 181 241 226 c 1,14,-1
 201 262 l 1,15,-1
 210 213 l 1,16,-1
 225 149 l 2,17,18
 225 135 225 135 216.5 123.5 c 128,-1,19
 208 112 208 112 195 112 c 0,20,21
 160 112 160 112 160 150 c 1,22,-1
 169 195 l 1,23,-1
 181 231 l 1,24,-1
 185 262 l 1,25,26
 165 248 165 248 145 227 c 0,27,28
 111 191 111 191 101.5 186 c 128,-1,29
 92 181 92 181 80 181 c 0,30,31
 48 181 48 181 48 210 c 0,32,33
 48 236 48 236 80 248 c 2,34,-1
 127 260 l 1,35,-1
 176 276 l 1,36,37
 163 285 163 285 121.5 292.5 c 128,-1,38
 80 300 80 300 66 310 c 0,39,40
 48 328 48 328 48 342 c 0,41,42
 48 370 48 370 77 370 c 1,43,44
 103 364 103 364 115 355 c 0,45,46
 123 349 123 349 143.5 324.5 c 128,-1,47
 164 300 164 300 185 291 c 1,48,-1
 180 319 l 1,49,-1
 174 345 l 1,50,-1
 164 385 l 1,51,-1
 160 398 l 1,52,53
 160 439 160 439 194 439 c 0,54,55
 225 439 225 439 225 401 c 1,56,-1
 221 387 l 1,57,-1
 214 348 l 1,58,59
 201 316 201 316 201 291 c 1,60,-1
 222 306 l 1,61,-1
 240 323 l 1,62,63
 272 359 272 359 281 362 c 0,64,65
 292 369 292 369 307 369 c 0,66,67
 337 369 337 369 337 339 c 1,0,1
EndSplineSet
Validated: 1
EndChar

StartChar: plus
Encoding: 43 43 14
Width: 511
Flags: W
LayerCount: 2
Fore
SplineSet
465 191 m 1,0,-1
 281 191 l 1,1,-1
 282 0 l 1,2,-1
 230 0 l 1,3,-1
 230 191 l 1,4,-1
 46 191 l 1,5,-1
 46 241 l 1,6,-1
 230 241 l 1,7,-1
 230 432 l 1,8,-1
 281 432 l 1,9,-1
 281 239 l 1,10,-1
 465 239 l 1,11,-1
 465 191 l 1,0,-1
EndSplineSet
Validated: 1
EndChar

StartChar: comma
Encoding: 44 44 15
Width: 224
Flags: W
LayerCount: 2
Fore
SplineSet
177 64 m 2,0,1
 177 7 177 7 144.5 -24 c 128,-1,2
 112 -55 112 -55 64 -55 c 0,3,4
 53 -55 53 -55 53 -45 c 256,5,6
 53 -35 53 -35 64 -35 c 0,7,8
 119 -35 119 -35 143 8 c 1,9,10
 129 0 129 0 112 0 c 0,11,12
 85 0 85 0 66.5 19 c 128,-1,13
 48 38 48 38 48 65 c 0,14,15
 48 91 48 91 66.5 110 c 128,-1,16
 85 129 85 129 112 129 c 256,17,18
 139 129 139 129 158 110 c 128,-1,19
 177 91 177 91 177 65 c 2,20,-1
 177 64 l 2,0,1
EndSplineSet
Validated: 1
EndChar

StartChar: hyphen
Encoding: 45 45 16
Width: 512
Flags: W
LayerCount: 2
Fore
SplineSet
456 186 m 1,0,-1
 56 186 l 1,1,-1
 56 253 l 1,2,-1
 456 253 l 1,3,-1
 456 186 l 1,0,-1
EndSplineSet
Validated: 1
EndChar

StartChar: period
Encoding: 46 46 17
Width: 214
Flags: W
LayerCount: 2
Fore
SplineSet
157 45 m 0,0,1
 157 27 157 27 140.5 11.5 c 128,-1,2
 124 -4 124 -4 106 -4 c 0,3,4
 87 -4 87 -4 72 10.5 c 128,-1,5
 57 25 57 25 57 45 c 0,6,7
 57 66 57 66 71 79.5 c 128,-1,8
 85 93 85 93 106 93 c 0,9,10
 126 93 126 93 142 80 c 0,11,12
 157 62 157 62 157 45 c 0,0,1
EndSplineSet
Validated: 1
EndChar

StartChar: slash
Encoding: 47 47 18
Width: 378
Flags: W
LayerCount: 2
Fore
SplineSet
330 521 m 1,0,-1
 97 -102 l 1,1,-1
 48 -102 l 1,2,-1
 279 521 l 1,3,-1
 330 521 l 1,0,-1
EndSplineSet
Validated: 1
EndChar

StartChar: zero
Encoding: 48 48 19
Width: 1176
Flags: W
LayerCount: 2
Fore
SplineSet
148 552 m 1,0,-1
 148 702 l 1,1,-1
 298 702 l 1,2,-1
 298 552 l 1,3,-1
 148 552 l 1,0,-1
-2 252 m 1,4,-1
 -2 402 l 1,5,-1
 148 402 l 1,6,-1
 148 252 l 1,7,-1
 -2 252 l 1,4,-1
-2 102 m 1,8,-1
 -2 252 l 1,9,-1
 148 252 l 1,10,-1
 148 102 l 1,11,-1
 -2 102 l 1,8,-1
148 -48 m 1,12,-1
 148 102 l 1,13,-1
 298 102 l 1,14,-1
 298 -48 l 1,15,-1
 148 -48 l 1,12,-1
298 702 m 1,16,-1
 298 852 l 1,17,-1
 448 852 l 1,18,-1
 448 702 l 1,19,-1
 298 702 l 1,16,-1
298 -198 m 1,20,-1
 298 -48 l 1,21,-1
 448 -48 l 1,22,-1
 448 -198 l 1,23,-1
 298 -198 l 1,20,-1
448 702 m 1,24,-1
 448 852 l 1,25,-1
 598 852 l 1,26,-1
 598 702 l 1,27,-1
 448 702 l 1,24,-1
448 -198 m 1,28,-1
 448 -48 l 1,29,-1
 598 -48 l 1,30,-1
 598 -198 l 1,31,-1
 448 -198 l 1,28,-1
748 552 m 1,32,-1
 748 702 l 1,33,-1
 898 702 l 1,34,-1
 898 552 l 1,35,-1
 748 552 l 1,32,-1
898 402 m 1,36,-1
 898 552 l 1,37,-1
 1048 552 l 1,38,-1
 1048 402 l 1,39,-1
 898 402 l 1,36,-1
898 252 m 1,40,-1
 898 402 l 1,41,-1
 1048 402 l 1,42,-1
 1048 252 l 1,43,-1
 898 252 l 1,40,-1
898 102 m 1,44,-1
 898 252 l 1,45,-1
 1048 252 l 1,46,-1
 1048 102 l 1,47,-1
 898 102 l 1,44,-1
748 -48 m 1,48,-1
 748 102 l 1,49,-1
 898 102 l 1,50,-1
 898 -48 l 1,51,-1
 748 -48 l 1,48,-1
148 552 m 1,52,-1
 148 702 l 1,53,-1
 298 702 l 1,54,-1
 298 552 l 1,55,-1
 148 552 l 1,52,-1
-2 402 m 1,56,-1
 -2 552 l 1,57,-1
 148 552 l 1,58,-1
 148 402 l 1,59,-1
 -2 402 l 1,56,-1
-2 252 m 1,60,-1
 -2 402 l 1,61,-1
 148 402 l 1,62,-1
 148 252 l 1,63,-1
 -2 252 l 1,60,-1
-2 102 m 1,64,-1
 -2 252 l 1,65,-1
 148 252 l 1,66,-1
 148 102 l 1,67,-1
 -2 102 l 1,64,-1
148 -48 m 1,68,-1
 148 102 l 1,69,-1
 298 102 l 1,70,-1
 298 -48 l 1,71,-1
 148 -48 l 1,68,-1
298 702 m 1,72,-1
 298 852 l 1,73,-1
 448 852 l 1,74,-1
 448 702 l 1,75,-1
 298 702 l 1,72,-1
298 -198 m 1,76,-1
 298 -48 l 1,77,-1
 448 -48 l 1,78,-1
 448 -198 l 1,79,-1
 298 -198 l 1,76,-1
448 702 m 1,80,-1
 448 852 l 1,81,-1
 598 852 l 1,82,-1
 598 702 l 1,83,-1
 448 702 l 1,80,-1
448 -198 m 1,84,-1
 448 -48 l 1,85,-1
 598 -48 l 1,86,-1
 598 -198 l 1,87,-1
 448 -198 l 1,84,-1
598 702 m 1,88,-1
 598 852 l 1,89,-1
 748 852 l 1,90,-1
 748 702 l 1,91,-1
 598 702 l 1,88,-1
748 552 m 1,92,-1
 748 702 l 1,93,-1
 898 702 l 1,94,-1
 898 552 l 1,95,-1
 748 552 l 1,92,-1
898 402 m 1,96,-1
 898 552 l 1,97,-1
 1048 552 l 1,98,-1
 1048 402 l 1,99,-1
 898 402 l 1,96,-1
898 252 m 1,100,-1
 898 402 l 1,101,-1
 1048 402 l 1,102,-1
 1048 252 l 1,103,-1
 898 252 l 1,100,-1
898 102 m 1,104,-1
 898 252 l 1,105,-1
 1048 252 l 1,106,-1
 1048 102 l 1,107,-1
 898 102 l 1,104,-1
748 -48 m 1,108,-1
 748 102 l 1,109,-1
 898 102 l 1,110,-1
 898 -48 l 1,111,-1
 748 -48 l 1,108,-1
598 -198 m 1,112,-1
 598 -48 l 1,113,-1
 748 -48 l 1,114,-1
 748 -198 l 1,115,-1
 598 -198 l 1,112,-1
EndSplineSet
Validated: 2053
EndChar

StartChar: one
Encoding: 49 49 20
Width: 978
Flags: W
LayerCount: 2
Fore
SplineSet
0 552 m 1,0,-1
 0 702 l 1,1,-1
 150 702 l 1,2,-1
 150 552 l 1,3,-1
 0 552 l 1,0,-1
0 402 m 1,4,-1
 0 552 l 1,5,-1
 150 552 l 1,6,-1
 150 402 l 1,7,-1
 0 402 l 1,4,-1
0 252 m 1,8,-1
 0 402 l 1,9,-1
 150 402 l 1,10,-1
 150 252 l 1,11,-1
 0 252 l 1,8,-1
0 102 m 1,12,-1
 0 252 l 1,13,-1
 150 252 l 1,14,-1
 150 102 l 1,15,-1
 0 102 l 1,12,-1
0 -48 m 1,16,-1
 0 102 l 1,17,-1
 150 102 l 1,18,-1
 150 -48 l 1,19,-1
 0 -48 l 1,16,-1
150 702 m 1,20,-1
 150 852 l 1,21,-1
 300 852 l 1,22,-1
 300 702 l 1,23,-1
 150 702 l 1,20,-1
300 702 m 1,24,-1
 300 852 l 1,25,-1
 450 852 l 1,26,-1
 450 702 l 1,27,-1
 300 702 l 1,24,-1
600 552 m 1,28,-1
 600 702 l 1,29,-1
 750 702 l 1,30,-1
 750 552 l 1,31,-1
 600 552 l 1,28,-1
600 402 m 1,32,-1
 600 552 l 1,33,-1
 750 552 l 1,34,-1
 750 402 l 1,35,-1
 600 402 l 1,32,-1
600 252 m 1,36,-1
 600 402 l 1,37,-1
 750 402 l 1,38,-1
 750 252 l 1,39,-1
 600 252 l 1,36,-1
600 102 m 1,40,-1
 600 252 l 1,41,-1
 750 252 l 1,42,-1
 750 102 l 1,43,-1
 600 102 l 1,40,-1
600 -48 m 1,44,-1
 600 102 l 1,45,-1
 750 102 l 1,46,-1
 750 -48 l 1,47,-1
 600 -48 l 1,44,-1
0 552 m 1,48,-1
 0 702 l 1,49,-1
 150 702 l 1,50,-1
 150 552 l 1,51,-1
 0 552 l 1,48,-1
0 402 m 1,52,-1
 0 552 l 1,53,-1
 150 552 l 1,54,-1
 150 402 l 1,55,-1
 0 402 l 1,52,-1
0 252 m 1,56,-1
 0 402 l 1,57,-1
 150 402 l 1,58,-1
 150 252 l 1,59,-1
 0 252 l 1,56,-1
0 102 m 1,60,-1
 0 252 l 1,61,-1
 150 252 l 1,62,-1
 150 102 l 1,63,-1
 0 102 l 1,60,-1
0 -48 m 1,64,-1
 0 102 l 1,65,-1
 150 102 l 1,66,-1
 150 -48 l 1,67,-1
 0 -48 l 1,64,-1
150 702 m 1,68,-1
 150 852 l 1,69,-1
 300 852 l 1,70,-1
 300 702 l 1,71,-1
 150 702 l 1,68,-1
300 702 m 1,72,-1
 300 852 l 1,73,-1
 450 852 l 1,74,-1
 450 702 l 1,75,-1
 300 702 l 1,72,-1
450 702 m 1,76,-1
 450 852 l 1,77,-1
 600 852 l 1,78,-1
 600 702 l 1,79,-1
 450 702 l 1,76,-1
600 552 m 1,80,-1
 600 702 l 1,81,-1
 750 702 l 1,82,-1
 750 552 l 1,83,-1
 600 552 l 1,80,-1
600 402 m 1,84,-1
 600 552 l 1,85,-1
 750 552 l 1,86,-1
 750 402 l 1,87,-1
 600 402 l 1,84,-1
600 252 m 1,88,-1
 600 402 l 1,89,-1
 750 402 l 1,90,-1
 750 252 l 1,91,-1
 600 252 l 1,88,-1
600 102 m 1,92,-1
 600 252 l 1,93,-1
 750 252 l 1,94,-1
 750 102 l 1,95,-1
 600 102 l 1,92,-1
600 -48 m 1,96,-1
 600 102 l 1,97,-1
 750 102 l 1,98,-1
 750 -48 l 1,99,-1
 600 -48 l 1,96,-1
0 -198 m 1,100,-1
 0 -48 l 1,101,-1
 150 -48 l 1,102,-1
 150 -198 l 1,103,-1
 0 -198 l 1,100,-1
600 -198 m 1,104,-1
 600 -48 l 1,105,-1
 750 -48 l 1,106,-1
 750 -198 l 1,107,-1
 600 -198 l 1,104,-1
0 -198 m 1,108,-1
 0 -48 l 1,109,-1
 150 -48 l 1,110,-1
 150 -198 l 1,111,-1
 0 -198 l 1,108,-1
600 -198 m 1,112,-1
 600 -48 l 1,113,-1
 750 -48 l 1,114,-1
 750 -198 l 1,115,-1
 600 -198 l 1,112,-1
EndSplineSet
Validated: 2053
EndChar

StartChar: two
Encoding: 50 50 21
Width: 1382
Flags: W
LayerCount: 2
Fore
SplineSet
0 -199 m 1,0,-1
 0 -49 l 1,1,-1
 150 -49 l 1,2,-1
 150 -199 l 1,3,-1
 0 -199 l 1,0,-1
600 -199 m 1,4,-1
 600 -49 l 1,5,-1
 750 -49 l 1,6,-1
 750 -199 l 1,7,-1
 600 -199 l 1,4,-1
0 -199 m 1,8,-1
 0 -49 l 1,9,-1
 150 -49 l 1,10,-1
 150 -199 l 1,11,-1
 0 -199 l 1,8,-1
150 -199 m 1,12,-1
 150 -49 l 1,13,-1
 300 -49 l 1,14,-1
 300 -199 l 1,15,-1
 150 -199 l 1,12,-1
300 -199 m 1,16,-1
 300 -49 l 1,17,-1
 450 -49 l 1,18,-1
 450 -199 l 1,19,-1
 300 -199 l 1,16,-1
450 -199 m 1,20,-1
 450 -49 l 1,21,-1
 600 -49 l 1,22,-1
 600 -199 l 1,23,-1
 450 -199 l 1,20,-1
600 -199 m 1,24,-1
 600 -49 l 1,25,-1
 750 -49 l 1,26,-1
 750 -199 l 1,27,-1
 600 -199 l 1,24,-1
750 -199 m 1,28,-1
 750 -49 l 1,29,-1
 900 -49 l 1,30,-1
 900 -199 l 1,31,-1
 750 -199 l 1,28,-1
900 -199 m 1,32,-1
 900 -49 l 1,33,-1
 1050 -49 l 1,34,-1
 1050 -199 l 1,35,-1
 900 -199 l 1,32,-1
1050 -199 m 1,36,-1
 1050 -49 l 1,37,-1
 1200 -49 l 1,38,-1
 1200 -199 l 1,39,-1
 1050 -199 l 1,36,-1
1050 -49 m 1,40,-1
 1050 101 l 1,41,-1
 1200 101 l 1,42,-1
 1200 -49 l 1,43,-1
 1050 -49 l 1,40,-1
1050 101 m 1,44,-1
 1050 251 l 1,45,-1
 1200 251 l 1,46,-1
 1200 101 l 1,47,-1
 1050 101 l 1,44,-1
1050 251 m 1,48,-1
 1050 401 l 1,49,-1
 1200 401 l 1,50,-1
 1200 251 l 1,51,-1
 1050 251 l 1,48,-1
900 401 m 1,52,-1
 900 551 l 1,53,-1
 1050 551 l 1,54,-1
 1050 401 l 1,55,-1
 900 401 l 1,52,-1
750 401 m 1,56,-1
 750 551 l 1,57,-1
 900 551 l 1,58,-1
 900 401 l 1,59,-1
 750 401 l 1,56,-1
750 251 m 1,60,-1
 750 401 l 1,61,-1
 900 401 l 1,62,-1
 900 251 l 1,63,-1
 750 251 l 1,60,-1
750 101 m 1,64,-1
 750 251 l 1,65,-1
 900 251 l 1,66,-1
 900 101 l 1,67,-1
 750 101 l 1,64,-1
900 101 m 1,68,-1
 900 251 l 1,69,-1
 1050 251 l 1,70,-1
 1050 101 l 1,71,-1
 900 101 l 1,68,-1
EndSplineSet
Validated: 2053
EndChar

StartChar: three
Encoding: 51 51 22
Width: 1176
Flags: W
LayerCount: 2
Fore
SplineSet
-2 -48 m 1,0,-1
 -2 102 l 1,1,-1
 148 102 l 1,2,-1
 148 -48 l 1,3,-1
 -2 -48 l 1,0,-1
-2 102 m 1,4,-1
 -2 252 l 1,5,-1
 148 252 l 1,6,-1
 148 102 l 1,7,-1
 -2 102 l 1,4,-1
148 102 m 1,8,-1
 148 252 l 1,9,-1
 298 252 l 1,10,-1
 298 102 l 1,11,-1
 148 102 l 1,8,-1
298 -48 m 1,12,-1
 298 102 l 1,13,-1
 448 102 l 1,14,-1
 448 -48 l 1,15,-1
 298 -48 l 1,12,-1
148 -198 m 1,16,-1
 148 -48 l 1,17,-1
 298 -48 l 1,18,-1
 298 -198 l 1,19,-1
 148 -198 l 1,16,-1
298 -198 m 1,20,-1
 298 -48 l 1,21,-1
 448 -48 l 1,22,-1
 448 -198 l 1,23,-1
 298 -198 l 1,20,-1
448 -198 m 1,24,-1
 448 -48 l 1,25,-1
 598 -48 l 1,26,-1
 598 -198 l 1,27,-1
 448 -198 l 1,24,-1
448 702 m 1,28,-1
 448 852 l 1,29,-1
 598 852 l 1,30,-1
 598 702 l 1,31,-1
 448 702 l 1,28,-1
598 552 m 1,32,-1
 598 702 l 1,33,-1
 748 702 l 1,34,-1
 748 552 l 1,35,-1
 598 552 l 1,32,-1
598 402 m 1,36,-1
 598 552 l 1,37,-1
 748 552 l 1,38,-1
 748 402 l 1,39,-1
 598 402 l 1,36,-1
598 252 m 1,40,-1
 598 402 l 1,41,-1
 748 402 l 1,42,-1
 748 252 l 1,43,-1
 598 252 l 1,40,-1
598 102 m 1,44,-1
 598 252 l 1,45,-1
 748 252 l 1,46,-1
 748 102 l 1,47,-1
 598 102 l 1,44,-1
598 -48 m 1,48,-1
 598 102 l 1,49,-1
 748 102 l 1,50,-1
 748 -48 l 1,51,-1
 598 -48 l 1,48,-1
748 -198 m 1,52,-1
 748 -48 l 1,53,-1
 898 -48 l 1,54,-1
 898 -198 l 1,55,-1
 748 -198 l 1,52,-1
898 -198 m 1,56,-1
 898 -48 l 1,57,-1
 1048 -48 l 1,58,-1
 1048 -198 l 1,59,-1
 898 -198 l 1,56,-1
298 402 m 1,60,-1
 298 552 l 1,61,-1
 448 552 l 1,62,-1
 448 402 l 1,63,-1
 298 402 l 1,60,-1
298 552 m 1,64,-1
 298 702 l 1,65,-1
 448 702 l 1,66,-1
 448 552 l 1,67,-1
 298 552 l 1,64,-1
148 702 m 1,68,-1
 148 852 l 1,69,-1
 298 852 l 1,70,-1
 298 702 l 1,71,-1
 148 702 l 1,68,-1
-2 702 m 1,72,-1
 -2 852 l 1,73,-1
 148 852 l 1,74,-1
 148 702 l 1,75,-1
 -2 702 l 1,72,-1
-2 552 m 1,76,-1
 -2 702 l 1,77,-1
 148 702 l 1,78,-1
 148 552 l 1,79,-1
 -2 552 l 1,76,-1
148 402 m 1,80,-1
 148 552 l 1,81,-1
 298 552 l 1,82,-1
 298 402 l 1,83,-1
 148 402 l 1,80,-1
EndSplineSet
Validated: 2053
EndChar

StartChar: four
Encoding: 52 52 23
Width: 1176
Flags: W
LayerCount: 2
Fore
SplineSet
0 551 m 1,0,-1
 0 701 l 1,1,-1
 150 701 l 1,2,-1
 150 551 l 1,3,-1
 0 551 l 1,0,-1
0 401 m 1,4,-1
 0 551 l 1,5,-1
 150 551 l 1,6,-1
 150 401 l 1,7,-1
 0 401 l 1,4,-1
150 551 m 1,8,-1
 150 701 l 1,9,-1
 300 701 l 1,10,-1
 300 551 l 1,11,-1
 150 551 l 1,8,-1
750 551 m 1,12,-1
 750 701 l 1,13,-1
 900 701 l 1,14,-1
 900 551 l 1,15,-1
 750 551 l 1,12,-1
900 401 m 1,16,-1
 900 551 l 1,17,-1
 1050 551 l 1,18,-1
 1050 401 l 1,19,-1
 900 401 l 1,16,-1
900 551 m 1,20,-1
 900 701 l 1,21,-1
 1050 701 l 1,22,-1
 1050 551 l 1,23,-1
 900 551 l 1,20,-1
150 251 m 1,24,-1
 150 401 l 1,25,-1
 300 401 l 1,26,-1
 300 251 l 1,27,-1
 150 251 l 1,24,-1
750 251 m 1,28,-1
 750 401 l 1,29,-1
 900 401 l 1,30,-1
 900 251 l 1,31,-1
 750 251 l 1,28,-1
300 101 m 1,32,-1
 300 251 l 1,33,-1
 450 251 l 1,34,-1
 450 101 l 1,35,-1
 300 101 l 1,32,-1
450 101 m 1,36,-1
 450 251 l 1,37,-1
 600 251 l 1,38,-1
 600 101 l 1,39,-1
 450 101 l 1,36,-1
600 101 m 1,40,-1
 600 251 l 1,41,-1
 750 251 l 1,42,-1
 750 101 l 1,43,-1
 600 101 l 1,40,-1
150 -49 m 1,44,-1
 150 101 l 1,45,-1
 300 101 l 1,46,-1
 300 -49 l 1,47,-1
 150 -49 l 1,44,-1
750 -49 m 1,48,-1
 750 101 l 1,49,-1
 900 101 l 1,50,-1
 900 -49 l 1,51,-1
 750 -49 l 1,48,-1
300 -199 m 1,52,-1
 300 -49 l 1,53,-1
 450 -49 l 1,54,-1
 450 -199 l 1,55,-1
 300 -199 l 1,52,-1
450 -199 m 1,56,-1
 450 -49 l 1,57,-1
 600 -49 l 1,58,-1
 600 -199 l 1,59,-1
 450 -199 l 1,56,-1
600 -199 m 1,60,-1
 600 -49 l 1,61,-1
 750 -49 l 1,62,-1
 750 -199 l 1,63,-1
 600 -199 l 1,60,-1
EndSplineSet
Validated: 2053
EndChar

StartChar: five
Encoding: 53 53 24
Width: 1521
Flags: W
LayerCount: 2
Fore
SplineSet
-2 -48 m 1,0,-1
 -2 102 l 1,1,-1
 148 102 l 1,2,-1
 148 -48 l 1,3,-1
 -2 -48 l 1,0,-1
-2 102 m 1,4,-1
 -2 252 l 1,5,-1
 148 252 l 1,6,-1
 148 102 l 1,7,-1
 -2 102 l 1,4,-1
148 102 m 1,8,-1
 148 252 l 1,9,-1
 298 252 l 1,10,-1
 298 102 l 1,11,-1
 148 102 l 1,8,-1
298 102 m 1,12,-1
 298 252 l 1,13,-1
 448 252 l 1,14,-1
 448 102 l 1,15,-1
 298 102 l 1,12,-1
148 -198 m 1,16,-1
 148 -48 l 1,17,-1
 298 -48 l 1,18,-1
 298 -198 l 1,19,-1
 148 -198 l 1,16,-1
298 -198 m 1,20,-1
 298 -48 l 1,21,-1
 448 -48 l 1,22,-1
 448 -198 l 1,23,-1
 298 -198 l 1,20,-1
448 -198 m 1,24,-1
 448 -48 l 1,25,-1
 598 -48 l 1,26,-1
 598 -198 l 1,27,-1
 448 -198 l 1,24,-1
448 702 m 1,28,-1
 448 852 l 1,29,-1
 598 852 l 1,30,-1
 598 702 l 1,31,-1
 448 702 l 1,28,-1
598 552 m 1,32,-1
 598 702 l 1,33,-1
 748 702 l 1,34,-1
 748 552 l 1,35,-1
 598 552 l 1,32,-1
598 402 m 1,36,-1
 598 552 l 1,37,-1
 748 552 l 1,38,-1
 748 402 l 1,39,-1
 598 402 l 1,36,-1
598 252 m 1,40,-1
 598 402 l 1,41,-1
 748 402 l 1,42,-1
 748 252 l 1,43,-1
 598 252 l 1,40,-1
598 102 m 1,44,-1
 598 252 l 1,45,-1
 748 252 l 1,46,-1
 748 102 l 1,47,-1
 598 102 l 1,44,-1
598 -48 m 1,48,-1
 598 102 l 1,49,-1
 748 102 l 1,50,-1
 748 -48 l 1,51,-1
 598 -48 l 1,48,-1
748 102 m 1,52,-1
 748 252 l 1,53,-1
 898 252 l 1,54,-1
 898 102 l 1,55,-1
 748 102 l 1,52,-1
1048 402 m 1,56,-1
 1048 552 l 1,57,-1
 1198 552 l 1,58,-1
 1198 402 l 1,59,-1
 1048 402 l 1,56,-1
898 252 m 1,60,-1
 898 402 l 1,61,-1
 1048 402 l 1,62,-1
 1048 252 l 1,63,-1
 898 252 l 1,60,-1
898 102 m 1,64,-1
 898 252 l 1,65,-1
 1048 252 l 1,66,-1
 1048 102 l 1,67,-1
 898 102 l 1,64,-1
1048 -48 m 1,68,-1
 1048 102 l 1,69,-1
 1198 102 l 1,70,-1
 1198 -48 l 1,71,-1
 1048 -48 l 1,68,-1
1048 -198 m 1,72,-1
 1048 -48 l 1,73,-1
 1198 -48 l 1,74,-1
 1198 -198 l 1,75,-1
 1048 -198 l 1,72,-1
1198 -198 m 1,76,-1
 1198 -48 l 1,77,-1
 1348 -48 l 1,78,-1
 1348 -198 l 1,79,-1
 1198 -198 l 1,76,-1
1198 402 m 1,80,-1
 1198 552 l 1,81,-1
 1348 552 l 1,82,-1
 1348 402 l 1,83,-1
 1198 402 l 1,80,-1
1198 552 m 1,84,-1
 1198 702 l 1,85,-1
 1348 702 l 1,86,-1
 1348 552 l 1,87,-1
 1198 552 l 1,84,-1
1198 702 m 1,88,-1
 1198 852 l 1,89,-1
 1348 852 l 1,90,-1
 1348 702 l 1,91,-1
 1198 702 l 1,88,-1
1048 702 m 1,92,-1
 1048 852 l 1,93,-1
 1198 852 l 1,94,-1
 1198 702 l 1,95,-1
 1048 702 l 1,92,-1
898 702 m 1,96,-1
 898 852 l 1,97,-1
 1048 852 l 1,98,-1
 1048 702 l 1,99,-1
 898 702 l 1,96,-1
898 552 m 1,100,-1
 898 702 l 1,101,-1
 1048 702 l 1,102,-1
 1048 552 l 1,103,-1
 898 552 l 1,100,-1
298 402 m 1,104,-1
 298 552 l 1,105,-1
 448 552 l 1,106,-1
 448 402 l 1,107,-1
 298 402 l 1,104,-1
298 552 m 1,108,-1
 298 702 l 1,109,-1
 448 702 l 1,110,-1
 448 552 l 1,111,-1
 298 552 l 1,108,-1
148 702 m 1,112,-1
 148 852 l 1,113,-1
 298 852 l 1,114,-1
 298 702 l 1,115,-1
 148 702 l 1,112,-1
-2 702 m 1,116,-1
 -2 852 l 1,117,-1
 148 852 l 1,118,-1
 148 702 l 1,119,-1
 -2 702 l 1,116,-1
-2 552 m 1,120,-1
 -2 702 l 1,121,-1
 148 702 l 1,122,-1
 148 552 l 1,123,-1
 -2 552 l 1,120,-1
148 402 m 1,124,-1
 148 552 l 1,125,-1
 298 552 l 1,126,-1
 298 402 l 1,127,-1
 148 402 l 1,124,-1
EndSplineSet
Validated: 3077
EndChar

StartChar: six
Encoding: 54 54 25
Width: 1352
Flags: W
LayerCount: 2
Fore
SplineSet
0 -200 m 1,0,-1
 0 -50 l 1,1,-1
 150 -50 l 1,2,-1
 150 -200 l 1,3,-1
 0 -200 l 1,0,-1
600 -200 m 1,4,-1
 600 -50 l 1,5,-1
 750 -50 l 1,6,-1
 750 -200 l 1,7,-1
 600 -200 l 1,4,-1
0 -200 m 1,8,-1
 0 -50 l 1,9,-1
 150 -50 l 1,10,-1
 150 -200 l 1,11,-1
 0 -200 l 1,8,-1
150 -200 m 1,12,-1
 150 -50 l 1,13,-1
 300 -50 l 1,14,-1
 300 -200 l 1,15,-1
 150 -200 l 1,12,-1
300 -200 m 1,16,-1
 300 -50 l 1,17,-1
 450 -50 l 1,18,-1
 450 -200 l 1,19,-1
 300 -200 l 1,16,-1
450 -200 m 1,20,-1
 450 -50 l 1,21,-1
 600 -50 l 1,22,-1
 600 -200 l 1,23,-1
 450 -200 l 1,20,-1
600 -200 m 1,24,-1
 600 -50 l 1,25,-1
 750 -50 l 1,26,-1
 750 -200 l 1,27,-1
 600 -200 l 1,24,-1
750 -200 m 1,28,-1
 750 -50 l 1,29,-1
 900 -50 l 1,30,-1
 900 -200 l 1,31,-1
 750 -200 l 1,28,-1
900 -200 m 1,32,-1
 900 -50 l 1,33,-1
 1050 -50 l 1,34,-1
 1050 -200 l 1,35,-1
 900 -200 l 1,32,-1
1050 -200 m 1,36,-1
 1050 -50 l 1,37,-1
 1200 -50 l 1,38,-1
 1200 -200 l 1,39,-1
 1050 -200 l 1,36,-1
0 -50 m 1,40,-1
 0 100 l 1,41,-1
 150 100 l 1,42,-1
 150 -50 l 1,43,-1
 0 -50 l 1,40,-1
300 100 m 1,44,-1
 300 250 l 1,45,-1
 450 250 l 1,46,-1
 450 100 l 1,47,-1
 300 100 l 1,44,-1
300 250 m 1,48,-1
 300 400 l 1,49,-1
 450 400 l 1,50,-1
 450 250 l 1,51,-1
 300 250 l 1,48,-1
150 400 m 1,52,-1
 150 550 l 1,53,-1
 300 550 l 1,54,-1
 300 400 l 1,55,-1
 150 400 l 1,52,-1
300 550 m 1,56,-1
 300 700 l 1,57,-1
 450 700 l 1,58,-1
 450 550 l 1,59,-1
 300 550 l 1,56,-1
300 700 m 1,60,-1
 300 850 l 1,61,-1
 450 850 l 1,62,-1
 450 700 l 1,63,-1
 300 700 l 1,60,-1
150 700 m 1,64,-1
 150 850 l 1,65,-1
 300 850 l 1,66,-1
 300 700 l 1,67,-1
 150 700 l 1,64,-1
0 700 m 1,68,-1
 0 850 l 1,69,-1
 150 850 l 1,70,-1
 150 700 l 1,71,-1
 0 700 l 1,68,-1
0 400 m 1,72,-1
 0 550 l 1,73,-1
 150 550 l 1,74,-1
 150 400 l 1,75,-1
 0 400 l 1,72,-1
0 250 m 1,76,-1
 0 400 l 1,77,-1
 150 400 l 1,78,-1
 150 250 l 1,79,-1
 0 250 l 1,76,-1
0 100 m 1,80,-1
 0 250 l 1,81,-1
 150 250 l 1,82,-1
 150 100 l 1,83,-1
 0 100 l 1,80,-1
150 100 m 1,84,-1
 150 250 l 1,85,-1
 300 250 l 1,86,-1
 300 100 l 1,87,-1
 150 100 l 1,84,-1
EndSplineSet
Validated: 2053
EndChar

StartChar: seven
Encoding: 55 55 26
Width: 1020
Flags: W
LayerCount: 2
Fore
SplineSet
0 -198 m 1,0,-1
 0 -48 l 1,1,-1
 150 -48 l 1,2,-1
 150 -198 l 1,3,-1
 0 -198 l 1,0,-1
600 -198 m 1,4,-1
 600 -48 l 1,5,-1
 750 -48 l 1,6,-1
 750 -198 l 1,7,-1
 600 -198 l 1,4,-1
0 -198 m 1,8,-1
 0 -48 l 1,9,-1
 150 -48 l 1,10,-1
 150 -198 l 1,11,-1
 0 -198 l 1,8,-1
150 -198 m 1,12,-1
 150 -48 l 1,13,-1
 300 -48 l 1,14,-1
 300 -198 l 1,15,-1
 150 -198 l 1,12,-1
300 -198 m 1,16,-1
 300 -48 l 1,17,-1
 450 -48 l 1,18,-1
 450 -198 l 1,19,-1
 300 -198 l 1,16,-1
450 -198 m 1,20,-1
 450 -48 l 1,21,-1
 600 -48 l 1,22,-1
 600 -198 l 1,23,-1
 450 -198 l 1,20,-1
600 -198 m 1,24,-1
 600 -48 l 1,25,-1
 750 -48 l 1,26,-1
 750 -198 l 1,27,-1
 600 -198 l 1,24,-1
750 -198 m 1,28,-1
 750 -48 l 1,29,-1
 900 -48 l 1,30,-1
 900 -198 l 1,31,-1
 750 -198 l 1,28,-1
0 -48 m 1,32,-1
 0 102 l 1,33,-1
 150 102 l 1,34,-1
 150 -48 l 1,35,-1
 0 -48 l 1,32,-1
450 402 m 1,36,-1
 450 552 l 1,37,-1
 600 552 l 1,38,-1
 600 402 l 1,39,-1
 450 402 l 1,36,-1
300 252 m 1,40,-1
 300 402 l 1,41,-1
 450 402 l 1,42,-1
 450 252 l 1,43,-1
 300 252 l 1,40,-1
450 552 m 1,44,-1
 450 702 l 1,45,-1
 600 702 l 1,46,-1
 600 552 l 1,47,-1
 450 552 l 1,44,-1
300 702 m 1,48,-1
 300 852 l 1,49,-1
 450 852 l 1,50,-1
 450 702 l 1,51,-1
 300 702 l 1,48,-1
150 702 m 1,52,-1
 150 852 l 1,53,-1
 300 852 l 1,54,-1
 300 702 l 1,55,-1
 150 702 l 1,52,-1
0 552 m 1,56,-1
 0 702 l 1,57,-1
 150 702 l 1,58,-1
 150 552 l 1,59,-1
 0 552 l 1,56,-1
150 102 m 1,60,-1
 150 252 l 1,61,-1
 300 252 l 1,62,-1
 300 102 l 1,63,-1
 150 102 l 1,60,-1
EndSplineSet
Validated: 2053
EndChar

StartChar: eight
Encoding: 56 56 27
Width: 1356
Flags: W
LayerCount: 2
Fore
SplineSet
450 -198 m 1,0,-1
 450 -48 l 1,1,-1
 600 -48 l 1,2,-1
 600 -198 l 1,3,-1
 450 -198 l 1,0,-1
600 -198 m 1,4,-1
 600 -48 l 1,5,-1
 750 -48 l 1,6,-1
 750 -198 l 1,7,-1
 600 -198 l 1,4,-1
0 552 m 1,8,-1
 0 702 l 1,9,-1
 150 702 l 1,10,-1
 150 552 l 1,11,-1
 0 552 l 1,8,-1
150 702 m 1,12,-1
 150 852 l 1,13,-1
 300 852 l 1,14,-1
 300 702 l 1,15,-1
 150 702 l 1,12,-1
300 702 m 1,16,-1
 300 852 l 1,17,-1
 450 852 l 1,18,-1
 450 702 l 1,19,-1
 300 702 l 1,16,-1
300 552 m 1,20,-1
 300 702 l 1,21,-1
 450 702 l 1,22,-1
 450 552 l 1,23,-1
 300 552 l 1,20,-1
300 402 m 1,24,-1
 300 552 l 1,25,-1
 450 552 l 1,26,-1
 450 402 l 1,27,-1
 300 402 l 1,24,-1
150 402 m 1,28,-1
 150 552 l 1,29,-1
 300 552 l 1,30,-1
 300 402 l 1,31,-1
 150 402 l 1,28,-1
0 402 m 1,32,-1
 0 552 l 1,33,-1
 150 552 l 1,34,-1
 150 402 l 1,35,-1
 0 402 l 1,32,-1
1050 702 m 1,36,-1
 1050 852 l 1,37,-1
 1200 852 l 1,38,-1
 1200 702 l 1,39,-1
 1050 702 l 1,36,-1
900 702 m 1,40,-1
 900 852 l 1,41,-1
 1050 852 l 1,42,-1
 1050 702 l 1,43,-1
 900 702 l 1,40,-1
750 552 m 1,44,-1
 750 702 l 1,45,-1
 900 702 l 1,46,-1
 900 552 l 1,47,-1
 750 552 l 1,44,-1
0 252 m 1,48,-1
 0 402 l 1,49,-1
 150 402 l 1,50,-1
 150 252 l 1,51,-1
 0 252 l 1,48,-1
900 252 m 1,52,-1
 900 402 l 1,53,-1
 1050 402 l 1,54,-1
 1050 252 l 1,55,-1
 900 252 l 1,52,-1
900 402 m 1,56,-1
 900 552 l 1,57,-1
 1050 552 l 1,58,-1
 1050 402 l 1,59,-1
 900 402 l 1,56,-1
0 102 m 1,60,-1
 0 252 l 1,61,-1
 150 252 l 1,62,-1
 150 102 l 1,63,-1
 0 102 l 1,60,-1
0 -48 m 1,64,-1
 0 102 l 1,65,-1
 150 102 l 1,66,-1
 150 -48 l 1,67,-1
 0 -48 l 1,64,-1
150 -198 m 1,68,-1
 150 -48 l 1,69,-1
 300 -48 l 1,70,-1
 300 -198 l 1,71,-1
 150 -198 l 1,68,-1
900 102 m 1,72,-1
 900 252 l 1,73,-1
 1050 252 l 1,74,-1
 1050 102 l 1,75,-1
 900 102 l 1,72,-1
900 -48 m 1,76,-1
 900 102 l 1,77,-1
 1050 102 l 1,78,-1
 1050 -48 l 1,79,-1
 900 -48 l 1,76,-1
300 -198 m 1,80,-1
 300 -48 l 1,81,-1
 450 -48 l 1,82,-1
 450 -198 l 1,83,-1
 300 -198 l 1,80,-1
750 -198 m 1,84,-1
 750 -48 l 1,85,-1
 900 -48 l 1,86,-1
 900 -198 l 1,87,-1
 750 -198 l 1,84,-1
EndSplineSet
Validated: 2053
EndChar

StartChar: nine
Encoding: 57 57 28
Width: 1412
Flags: W
LayerCount: 2
Fore
SplineSet
0 -198 m 1,0,-1
 0 -48 l 1,1,-1
 150 -48 l 1,2,-1
 150 -198 l 1,3,-1
 0 -198 l 1,0,-1
600 702 m 1,4,-1
 600 852 l 1,5,-1
 750 852 l 1,6,-1
 750 702 l 1,7,-1
 600 702 l 1,4,-1
0 -198 m 1,8,-1
 0 -48 l 1,9,-1
 150 -48 l 1,10,-1
 150 -198 l 1,11,-1
 0 -198 l 1,8,-1
150 -198 m 1,12,-1
 150 -48 l 1,13,-1
 300 -48 l 1,14,-1
 300 -198 l 1,15,-1
 150 -198 l 1,12,-1
300 -198 m 1,16,-1
 300 -48 l 1,17,-1
 450 -48 l 1,18,-1
 450 -198 l 1,19,-1
 300 -198 l 1,16,-1
450 702 m 1,20,-1
 450 852 l 1,21,-1
 600 852 l 1,22,-1
 600 702 l 1,23,-1
 450 702 l 1,20,-1
600 702 m 1,24,-1
 600 852 l 1,25,-1
 750 852 l 1,26,-1
 750 702 l 1,27,-1
 600 702 l 1,24,-1
750 702 m 1,28,-1
 750 852 l 1,29,-1
 900 852 l 1,30,-1
 900 702 l 1,31,-1
 750 702 l 1,28,-1
900 702 m 1,32,-1
 900 852 l 1,33,-1
 1050 852 l 1,34,-1
 1050 702 l 1,35,-1
 900 702 l 1,32,-1
1050 702 m 1,36,-1
 1050 852 l 1,37,-1
 1200 852 l 1,38,-1
 1200 702 l 1,39,-1
 1050 702 l 1,36,-1
0 -48 m 1,40,-1
 0 102 l 1,41,-1
 150 102 l 1,42,-1
 150 -48 l 1,43,-1
 0 -48 l 1,40,-1
300 102 m 1,44,-1
 300 252 l 1,45,-1
 450 252 l 1,46,-1
 450 102 l 1,47,-1
 300 102 l 1,44,-1
300 252 m 1,48,-1
 300 402 l 1,49,-1
 450 402 l 1,50,-1
 450 252 l 1,51,-1
 300 252 l 1,48,-1
150 402 m 1,52,-1
 150 552 l 1,53,-1
 300 552 l 1,54,-1
 300 402 l 1,55,-1
 150 402 l 1,52,-1
0 552 m 1,56,-1
 0 702 l 1,57,-1
 150 702 l 1,58,-1
 150 552 l 1,59,-1
 0 552 l 1,56,-1
300 702 m 1,60,-1
 300 852 l 1,61,-1
 450 852 l 1,62,-1
 450 702 l 1,63,-1
 300 702 l 1,60,-1
150 702 m 1,64,-1
 150 852 l 1,65,-1
 300 852 l 1,66,-1
 300 702 l 1,67,-1
 150 702 l 1,64,-1
0 702 m 1,68,-1
 0 852 l 1,69,-1
 150 852 l 1,70,-1
 150 702 l 1,71,-1
 0 702 l 1,68,-1
0 402 m 1,72,-1
 0 552 l 1,73,-1
 150 552 l 1,74,-1
 150 402 l 1,75,-1
 0 402 l 1,72,-1
0 252 m 1,76,-1
 0 402 l 1,77,-1
 150 402 l 1,78,-1
 150 252 l 1,79,-1
 0 252 l 1,76,-1
0 102 m 1,80,-1
 0 252 l 1,81,-1
 150 252 l 1,82,-1
 150 102 l 1,83,-1
 0 102 l 1,80,-1
150 102 m 1,84,-1
 150 252 l 1,85,-1
 300 252 l 1,86,-1
 300 102 l 1,87,-1
 150 102 l 1,84,-1
EndSplineSet
Validated: 2053
EndChar

StartChar: colon
Encoding: 58 58 29
Width: 218
Flags: W
LayerCount: 2
Fore
SplineSet
175 324 m 256,0,1
 175 297 175 297 155.5 278 c 128,-1,2
 136 259 136 259 109 259 c 256,3,4
 82 259 82 259 63 278 c 128,-1,5
 44 297 44 297 44 324 c 256,6,7
 44 351 44 351 63 370.5 c 128,-1,8
 82 390 82 390 109 390 c 256,9,10
 136 390 136 390 155.5 370.5 c 128,-1,11
 175 351 175 351 175 324 c 256,0,1
175 64 m 256,12,13
 175 37 175 37 155.5 17.5 c 128,-1,14
 136 -2 136 -2 109 -2 c 256,15,16
 82 -2 82 -2 63 17.5 c 128,-1,17
 44 37 44 37 44 64 c 256,18,19
 44 91 44 91 63 110.5 c 128,-1,20
 82 130 82 130 109 130 c 256,21,22
 136 130 136 130 155.5 110.5 c 128,-1,23
 175 91 175 91 175 64 c 256,12,13
EndSplineSet
Validated: 1
EndChar

StartChar: semicolon
Encoding: 59 59 30
Width: 218
Flags: W
LayerCount: 2
Fore
SplineSet
175 324 m 256,0,1
 175 297 175 297 155.5 278 c 128,-1,2
 136 259 136 259 109 259 c 256,3,4
 82 259 82 259 63 278 c 128,-1,5
 44 297 44 297 44 324 c 256,6,7
 44 351 44 351 63 370.5 c 128,-1,8
 82 390 82 390 109 390 c 256,9,10
 136 390 136 390 155.5 370.5 c 128,-1,11
 175 351 175 351 175 324 c 256,0,1
173 64 m 2,12,13
 173 7 173 7 140.5 -24 c 128,-1,14
 108 -55 108 -55 60 -55 c 0,15,16
 50 -55 50 -55 50 -45 c 256,17,18
 50 -35 50 -35 60 -35 c 0,19,20
 115 -35 115 -35 140 8 c 1,21,22
 125 0 125 0 109 0 c 0,23,24
 82 0 82 0 63 19 c 128,-1,25
 44 38 44 38 44 65 c 0,26,27
 44 91 44 91 63 110 c 128,-1,28
 82 129 82 129 109 129 c 0,29,30
 135 129 135 129 154 110 c 128,-1,31
 173 91 173 91 173 65 c 2,32,-1
 173 64 l 2,12,13
EndSplineSet
Validated: 1
EndChar

StartChar: less
Encoding: 60 60 31
Width: 479
Flags: W
LayerCount: 2
Fore
SplineSet
431 -4 m 1,0,-1
 48 178 l 1,1,-1
 48 219 l 1,2,-1
 431 385 l 1,3,-1
 431 347 l 1,4,-1
 101 194 l 1,5,-1
 431 41 l 1,6,-1
 431 -4 l 1,0,-1
EndSplineSet
Validated: 1
EndChar

StartChar: equal
Encoding: 61 61 32
Width: 511
Flags: W
LayerCount: 2
Fore
SplineSet
456 284 m 1,0,-1
 55 284 l 1,1,-1
 55 345 l 1,2,-1
 456 345 l 1,3,-1
 456 284 l 1,0,-1
456 128 m 1,4,-1
 55 128 l 1,5,-1
 55 189 l 1,6,-1
 456 189 l 1,7,-1
 456 128 l 1,4,-1
EndSplineSet
Validated: 1
EndChar

StartChar: greater
Encoding: 62 62 33
Width: 479
Flags: W
LayerCount: 2
Fore
SplineSet
431 170 m 1,0,-1
 49 0 l 1,1,-1
 49 39 l 1,2,-1
 379 192 l 1,3,-1
 49 338 l 1,4,-1
 49 383 l 1,5,-1
 431 206 l 1,6,-1
 431 170 l 1,0,-1
EndSplineSet
Validated: 1
EndChar

StartChar: question
Encoding: 63 63 34
Width: 407
Flags: W
LayerCount: 2
Fore
SplineSet
345 383 m 0,0,1
 345 333 345 333 309 294 c 2,2,-1
 243 222 l 2,3,4
 208 184 208 184 208 135 c 1,5,-1
 184 135 l 1,6,7
 184 174 184 174 209 234 c 0,8,9
 216 250 216 250 227 269 c 0,10,11
 270 348 270 348 270 390 c 0,12,13
 270 422 270 422 245 447.5 c 128,-1,14
 220 473 220 473 188 473 c 0,15,16
 123 473 123 473 123 437 c 0,17,18
 126 424 126 424 136 409 c 128,-1,19
 146 394 146 394 146 383 c 0,20,21
 146 346 146 346 106 346 c 0,22,23
 63 346 63 346 63 401 c 0,24,25
 63 446 63 446 113 475 c 0,26,27
 156 500 156 500 205 500 c 0,28,29
 281 500 281 500 317 459 c 1,30,31
 345 434 345 434 345 383 c 0,0,1
241 48 m 0,32,33
 241 31 241 31 227 18 c 128,-1,34
 213 5 213 5 196 5 c 0,35,36
 178 5 178 5 165 17.5 c 128,-1,37
 152 30 152 30 152 48 c 0,38,39
 152 91 152 91 196 91 c 0,40,41
 241 91 241 91 241 48 c 0,32,33
EndSplineSet
Validated: 1
EndChar

StartChar: at
Encoding: 64 64 35
Width: 699
Flags: W
LayerCount: 2
Fore
SplineSet
664 51 m 1,0,1
 625 -48 625 -48 540.5 -105.5 c 128,-1,2
 456 -163 456 -163 351 -163 c 0,3,4
 263 -163 263 -163 191.5 -122.5 c 128,-1,5
 120 -82 120 -82 76 -7 c 0,6,7
 36 61 36 61 36 150 c 0,8,9
 36 243 36 243 81 326.5 c 128,-1,10
 126 410 126 410 203.5 456 c 128,-1,11
 281 502 281 502 378 502 c 0,12,13
 537 502 537 502 604 381 c 0,14,15
 636 323 636 323 636 255 c 0,16,17
 636 203 636 203 607 124 c 1,18,19
 542 0 542 0 437 0 c 0,20,21
 381 0 381 0 381 49 c 0,22,23
 381 70 381 70 387 103 c 1,24,-1
 340 50 l 2,25,26
 295 0 295 0 246 0 c 0,27,28
 214 0 214 0 196 27 c 0,29,30
 181 51 181 51 181 84 c 0,31,32
 181 108 181 108 191 146 c 0,33,34
 206 188 206 188 218 209 c 0,35,36
 242 253 242 253 285 292 c 0,37,38
 337 338 337 338 379 338 c 0,39,40
 432 338 432 338 441 288 c 1,41,-1
 453 327 l 1,42,-1
 510 335 l 1,43,-1
 467 191 l 2,44,45
 445 118 445 118 440 88 c 2,46,-1
 434 53 l 1,47,48
 434 26 434 26 461 26 c 0,49,50
 482 26 482 26 523 51 c 1,51,52
 565 83 565 83 591 146 c 0,53,54
 615 204 615 204 615 262 c 0,55,56
 615 324 615 324 583 377 c 128,-1,57
 551 430 551 430 496 457 c 128,-1,58
 441 484 441 484 380 484 c 0,59,60
 292 484 292 484 221.5 438.5 c 128,-1,61
 151 393 151 393 111 313 c 0,62,63
 70 230 70 230 70 140 c 0,64,65
 70 55 70 55 106 -4 c 0,66,67
 130 -44 130 -44 151 -64 c 0,68,69
 229 -140 229 -140 353 -140 c 0,70,71
 560 -140 560 -140 643 51 c 1,72,-1
 664 51 l 1,0,1
428 268 m 0,73,74
 428 320 428 320 383 320 c 1,75,76
 350 315 350 315 328 292 c 0,77,78
 284 247 284 247 258 178 c 0,79,80
 237 122 237 122 237 95 c 0,81,82
 237 75 237 75 248 59 c 1,83,84
 264 44 264 44 279 44 c 0,85,86
 319 44 319 44 371 109 c 2,87,-1
 383 124 l 1,88,-1
 393 142 l 2,89,90
 428 205 428 205 428 268 c 0,73,74
EndSplineSet
Validated: 1
EndChar

StartChar: A
Encoding: 65 65 36
Width: 880
Flags: W
LayerCount: 2
Fore
SplineSet
-1 553 m 5,0,-1
 -1 703 l 5,1,-1
 149 703 l 5,2,-1
 149 553 l 5,3,-1
 -1 553 l 5,0,-1
-1 403 m 5,4,-1
 -1 553 l 5,5,-1
 149 553 l 5,6,-1
 149 403 l 5,7,-1
 -1 403 l 5,4,-1
-1 253 m 5,8,-1
 -1 403 l 5,9,-1
 149 403 l 5,10,-1
 149 253 l 5,11,-1
 -1 253 l 5,8,-1
-1 103 m 5,12,-1
 -1 253 l 5,13,-1
 149 253 l 5,14,-1
 149 103 l 5,15,-1
 -1 103 l 5,12,-1
-1 -47 m 5,16,-1
 -1 103 l 5,17,-1
 149 103 l 5,18,-1
 149 -47 l 5,19,-1
 -1 -47 l 5,16,-1
149 703 m 5,20,-1
 149 853 l 5,21,-1
 299 853 l 5,22,-1
 299 703 l 5,23,-1
 149 703 l 5,20,-1
149 -197 m 5,24,-1
 149 -47 l 5,25,-1
 299 -47 l 5,26,-1
 299 -197 l 5,27,-1
 149 -197 l 5,24,-1
299 703 m 5,28,-1
 299 853 l 5,29,-1
 449 853 l 5,30,-1
 449 703 l 5,31,-1
 299 703 l 5,28,-1
299 -197 m 5,32,-1
 299 -47 l 5,33,-1
 449 -47 l 5,34,-1
 449 -197 l 5,35,-1
 299 -197 l 5,32,-1
599 553 m 5,36,-1
 599 703 l 5,37,-1
 749 703 l 5,38,-1
 749 553 l 5,39,-1
 599 553 l 5,36,-1
599 403 m 5,40,-1
 599 553 l 5,41,-1
 749 553 l 5,42,-1
 749 403 l 5,43,-1
 599 403 l 5,40,-1
599 253 m 5,44,-1
 599 403 l 5,45,-1
 749 403 l 5,46,-1
 749 253 l 5,47,-1
 599 253 l 5,44,-1
599 103 m 5,48,-1
 599 253 l 5,49,-1
 749 253 l 5,50,-1
 749 103 l 5,51,-1
 599 103 l 5,48,-1
599 -47 m 5,52,-1
 599 103 l 5,53,-1
 749 103 l 5,54,-1
 749 -47 l 5,55,-1
 599 -47 l 5,52,-1
-1 553 m 5,56,-1
 -1 703 l 5,57,-1
 149 703 l 5,58,-1
 149 553 l 5,59,-1
 -1 553 l 5,56,-1
-1 403 m 5,60,-1
 -1 553 l 5,61,-1
 149 553 l 5,62,-1
 149 403 l 5,63,-1
 -1 403 l 5,60,-1
-1 253 m 5,64,-1
 -1 403 l 5,65,-1
 149 403 l 5,66,-1
 149 253 l 5,67,-1
 -1 253 l 5,64,-1
-1 103 m 5,68,-1
 -1 253 l 5,69,-1
 149 253 l 5,70,-1
 149 103 l 5,71,-1
 -1 103 l 5,68,-1
-1 -47 m 5,72,-1
 -1 103 l 5,73,-1
 149 103 l 5,74,-1
 149 -47 l 5,75,-1
 -1 -47 l 5,72,-1
149 703 m 5,76,-1
 149 853 l 5,77,-1
 299 853 l 5,78,-1
 299 703 l 5,79,-1
 149 703 l 5,76,-1
149 -197 m 5,80,-1
 149 -47 l 5,81,-1
 299 -47 l 5,82,-1
 299 -197 l 5,83,-1
 149 -197 l 5,80,-1
299 703 m 5,84,-1
 299 853 l 5,85,-1
 449 853 l 5,86,-1
 449 703 l 5,87,-1
 299 703 l 5,84,-1
299 -197 m 5,88,-1
 299 -47 l 5,89,-1
 449 -47 l 5,90,-1
 449 -197 l 5,91,-1
 299 -197 l 5,88,-1
449 703 m 5,92,-1
 449 853 l 5,93,-1
 599 853 l 5,94,-1
 599 703 l 5,95,-1
 449 703 l 5,92,-1
599 553 m 5,96,-1
 599 703 l 5,97,-1
 749 703 l 5,98,-1
 749 553 l 5,99,-1
 599 553 l 5,96,-1
599 403 m 5,100,-1
 599 553 l 5,101,-1
 749 553 l 5,102,-1
 749 403 l 5,103,-1
 599 403 l 5,100,-1
599 253 m 5,104,-1
 599 403 l 5,105,-1
 749 403 l 5,106,-1
 749 253 l 5,107,-1
 599 253 l 5,104,-1
599 103 m 5,108,-1
 599 253 l 5,109,-1
 749 253 l 5,110,-1
 749 103 l 5,111,-1
 599 103 l 5,108,-1
599 -47 m 5,112,-1
 599 103 l 5,113,-1
 749 103 l 5,114,-1
 749 -47 l 5,115,-1
 599 -47 l 5,112,-1
449 -197 m 5,116,-1
 449 -47 l 5,117,-1
 599 -47 l 5,118,-1
 599 -197 l 5,119,-1
 449 -197 l 5,116,-1
EndSplineSet
Validated: 2053
EndChar

StartChar: B
Encoding: 66 66 37
Width: 701
Flags: W
LayerCount: 2
Fore
SplineSet
150 852 m 1,0,-1
 150 702 l 1,1,-1
 0 702 l 1025,2,-1
0 552 m 1,3,-1
 0 702 l 1,4,-1
 150 702 l 1,5,-1
 150 552 l 1,6,-1
 0 552 l 1,3,-1
0 552 m 1,7,-1
 150 552 l 1,8,-1
 150 402 l 1025,9,-1
150 252 m 1,10,-1
 150 102 l 1,11,-1
 0 102 l 1025,12,-1
0 -48 m 1,13,-1
 0 102 l 1,14,-1
 150 102 l 1,15,-1
 150 -48 l 1,16,-1
 0 -48 l 1,13,-1
0 -48 m 1,17,-1
 150 -48 l 1,18,-1
 150 -198 l 1025,19,-1
150 702 m 1,20,-1
 150 852 l 1,21,-1
 300 852 l 1,22,-1
 300 702 l 1,23,-1
 150 702 l 1,20,-1
150 402 m 1,24,-1
 150 552 l 1,25,-1
 300 552 l 1,26,-1
 300 402 l 1,27,-1
 150 402 l 1,24,-1
150 102 m 1,28,-1
 150 252 l 1,29,-1
 300 252 l 1,30,-1
 300 102 l 1,31,-1
 150 102 l 1,28,-1
150 -198 m 1,32,-1
 150 -48 l 1,33,-1
 300 -48 l 1,34,-1
 300 -198 l 1,35,-1
 150 -198 l 1,32,-1
300 702 m 1,36,-1
 300 852 l 1,37,-1
 450 852 l 1,38,-1
 450 702 l 1,39,-1
 300 702 l 1,36,-1
300 402 m 1,40,-1
 300 552 l 1,41,-1
 450 552 l 1,42,-1
 450 402 l 1,43,-1
 300 402 l 1,40,-1
300 102 m 1,44,-1
 300 252 l 1,45,-1
 450 252 l 1,46,-1
 450 102 l 1,47,-1
 300 102 l 1,44,-1
300 -198 m 1,48,-1
 300 -48 l 1,49,-1
 450 -48 l 1,50,-1
 450 -198 l 1,51,-1
 300 -198 l 1,48,-1
600 702 m 1,52,-1
 450 702 l 1,53,-1
 450 852 l 1025,54,-1
450 552 m 1,55,-1
 450 702 l 1,56,-1
 600 702 l 1,57,-1
 600 552 l 1,58,-1
 450 552 l 1,55,-1
450 402 m 1,59,-1
 450 552 l 1,60,-1
 600 552 l 1025,61,-1
600 102 m 1,62,-1
 450 102 l 1,63,-1
 450 252 l 1025,64,-1
450 -48 m 1,65,-1
 450 102 l 1,66,-1
 600 102 l 1,67,-1
 600 -48 l 1,68,-1
 450 -48 l 1,65,-1
450 -48 m 1,69,-1
 600 -48 l 1025,70,-1
150 852 m 1,71,-1
 150 702 l 1,72,-1
 0 702 l 1025,73,-1
0 552 m 1,74,-1
 0 702 l 1,75,-1
 150 702 l 1,76,-1
 150 552 l 1,77,-1
 0 552 l 1,74,-1
0 552 m 1,78,-1
 150 552 l 1,79,-1
 150 402 l 1025,80,-1
150 252 m 1,81,-1
 150 102 l 1,82,-1
 0 102 l 1025,83,-1
0 -48 m 1,84,-1
 0 102 l 1,85,-1
 150 102 l 1,86,-1
 150 -48 l 1,87,-1
 0 -48 l 1,84,-1
0 -48 m 1,88,-1
 150 -48 l 1,89,-1
 150 -198 l 1025,90,-1
150 702 m 1,91,-1
 150 852 l 1,92,-1
 300 852 l 1,93,-1
 300 702 l 1,94,-1
 150 702 l 1,91,-1
150 -198 m 1,95,-1
 150 -48 l 1,96,-1
 300 -48 l 1,97,-1
 300 -198 l 1,98,-1
 150 -198 l 1,95,-1
300 702 m 1,99,-1
 300 852 l 1,100,-1
 450 852 l 1,101,-1
 450 702 l 1,102,-1
 300 702 l 1,99,-1
300 -198 m 1,103,-1
 300 -48 l 1,104,-1
 450 -48 l 1,105,-1
 450 -198 l 1,106,-1
 300 -198 l 1,103,-1
600 702 m 1,107,-1
 450 702 l 1,108,-1
 450 852 l 1025,109,-1
450 552 m 1,110,-1
 450 702 l 1,111,-1
 600 702 l 1,112,-1
 600 552 l 1,113,-1
 450 552 l 1,110,-1
450 402 m 1,114,-1
 450 552 l 1,115,-1
 600 552 l 1025,116,-1
600 102 m 1,117,-1
 450 102 l 1,118,-1
 450 252 l 1025,119,-1
450 -48 m 1,120,-1
 450 102 l 1,121,-1
 600 102 l 1,122,-1
 600 -48 l 1,123,-1
 450 -48 l 1,120,-1
450 -198 m 1,124,-1
 450 -48 l 1,125,-1
 600 -48 l 1025,126,-1
EndSplineSet
Validated: 3083
EndChar

StartChar: C
Encoding: 67 67 38
Width: 1176
Flags: W
LayerCount: 2
Fore
SplineSet
148 700 m 1,0,-1
 -2 700 l 1025,1,-1
-2 550 m 1,2,-1
 -2 700 l 1,3,-1
 148 700 l 1,4,-1
 148 550 l 1,5,-1
 -2 550 l 1,2,-1
-2 400 m 1,6,-1
 -2 550 l 1,7,-1
 148 550 l 1,8,-1
 148 400 l 1,9,-1
 -2 400 l 1,6,-1
-2 250 m 1,10,-1
 -2 400 l 1,11,-1
 148 400 l 1,12,-1
 148 250 l 1,13,-1
 -2 250 l 1,10,-1
-2 100 m 1,14,-1
 -2 250 l 1,15,-1
 148 250 l 1,16,-1
 148 100 l 1,17,-1
 -2 100 l 1,14,-1
-2 -50 m 1,18,-1
 -2 100 l 1,19,-1
 148 100 l 1,20,-1
 148 -50 l 1,21,-1
 -2 -50 l 1,18,-1
-2 -50 m 1,22,-1
 148 -50 l 1,23,-1
 148 -200 l 1025,24,-1
148 700 m 1,25,-1
 148 850 l 1,26,-1
 298 850 l 1,27,-1
 298 700 l 1,28,-1
 148 700 l 1,25,-1
448 700 m 1,29,-1
 298 700 l 1,30,-1
 298 850 l 1025,31,-1
748 850 m 1,32,-1
 748 700 l 1,33,-1
 598 700 l 1025,34,-1
748 700 m 1,35,-1
 748 850 l 1,36,-1
 898 850 l 1,37,-1
 898 700 l 1,38,-1
 748 700 l 1,35,-1
1048 700 m 1,39,-1
 898 700 l 1,40,-1
 898 850 l 1025,41,-1
298 550 m 1,42,-1
 298 700 l 1,43,-1
 448 700 l 1,44,-1
 448 550 l 1,45,-1
 298 550 l 1,42,-1
598 550 m 1,46,-1
 598 700 l 1,47,-1
 748 700 l 1,48,-1
 748 550 l 1,49,-1
 598 550 l 1,46,-1
898 550 m 1,50,-1
 898 700 l 1,51,-1
 1048 700 l 1,52,-1
 1048 550 l 1,53,-1
 898 550 l 1,50,-1
598 400 m 1,54,-1
 598 550 l 1,55,-1
 748 550 l 1,56,-1
 748 400 l 1,57,-1
 598 400 l 1,54,-1
898 400 m 1,58,-1
 898 550 l 1,59,-1
 1048 550 l 1,60,-1
 1048 400 l 1,61,-1
 898 400 l 1,58,-1
298 250 m 1,62,-1
 298 400 l 1,63,-1
 448 400 l 1,64,-1
 448 250 l 1,65,-1
 298 250 l 1,62,-1
448 250 m 1,66,-1
 448 400 l 1,67,-1
 598 400 l 1,68,-1
 598 250 l 1,69,-1
 448 250 l 1,66,-1
598 250 m 1,70,-1
 598 400 l 1,71,-1
 748 400 l 1025,72,-1
898 250 m 1,73,-1
 898 400 l 1,74,-1
 1048 400 l 1,75,-1
 1048 250 l 1,76,-1
 898 250 l 1,73,-1
898 100 m 1,77,-1
 898 250 l 1,78,-1
 1048 250 l 1,79,-1
 1048 100 l 1,80,-1
 898 100 l 1,77,-1
898 -50 m 1,81,-1
 898 100 l 1,82,-1
 1048 100 l 1,83,-1
 1048 -50 l 1,84,-1
 898 -50 l 1,81,-1
148 -200 m 1,85,-1
 148 -50 l 1,86,-1
 298 -50 l 1,87,-1
 298 -200 l 1,88,-1
 148 -200 l 1,85,-1
298 -200 m 1,89,-1
 298 -50 l 1,90,-1
 448 -50 l 1,91,-1
 448 -200 l 1,92,-1
 298 -200 l 1,89,-1
448 -200 m 1,93,-1
 448 -50 l 1,94,-1
 598 -50 l 1,95,-1
 598 -200 l 1,96,-1
 448 -200 l 1,93,-1
598 -200 m 1,97,-1
 598 -50 l 1,98,-1
 748 -50 l 1,99,-1
 748 -200 l 1,100,-1
 598 -200 l 1,97,-1
748 -200 m 1,101,-1
 748 -50 l 1,102,-1
 898 -50 l 1,103,-1
 898 -200 l 1,104,-1
 748 -200 l 1,101,-1
898 -200 m 1,105,-1
 898 -50 l 1,106,-1
 1048 -50 l 1025,107,-1
EndSplineSet
Validated: 2059
EndChar

StartChar: D
Encoding: 68 68 39
Width: 1176
Flags: W
LayerCount: 2
Fore
SplineSet
148 852 m 1,0,-1
 148 702 l 1,1,-1
 -2 702 l 1025,2,-1
-2 552 m 1,3,-1
 -2 702 l 1,4,-1
 148 702 l 1,5,-1
 148 552 l 1,6,-1
 -2 552 l 1,3,-1
-2 402 m 1,7,-1
 -2 552 l 1,8,-1
 148 552 l 1,9,-1
 148 402 l 1,10,-1
 -2 402 l 1,7,-1
-2 252 m 1,11,-1
 -2 402 l 1,12,-1
 148 402 l 1,13,-1
 148 252 l 1,14,-1
 -2 252 l 1,11,-1
-2 102 m 1,15,-1
 -2 252 l 1,16,-1
 148 252 l 1,17,-1
 148 102 l 1,18,-1
 -2 102 l 1,15,-1
-2 -48 m 1,19,-1
 -2 102 l 1,20,-1
 148 102 l 1,21,-1
 148 -48 l 1,22,-1
 -2 -48 l 1,19,-1
-2 -48 m 1,23,-1
 148 -48 l 1,24,-1
 148 -198 l 1025,25,-1
148 702 m 1,26,-1
 148 852 l 1,27,-1
 298 852 l 1,28,-1
 298 702 l 1,29,-1
 148 702 l 1,26,-1
448 702 m 1,30,-1
 298 702 l 1,31,-1
 298 852 l 1025,32,-1
748 852 m 1,33,-1
 748 702 l 1,34,-1
 598 702 l 1025,35,-1
748 702 m 1,36,-1
 748 852 l 1,37,-1
 898 852 l 1,38,-1
 898 702 l 1,39,-1
 748 702 l 1,36,-1
1048 702 m 1,40,-1
 898 702 l 1,41,-1
 898 852 l 1025,42,-1
298 552 m 1,43,-1
 298 702 l 1,44,-1
 448 702 l 1,45,-1
 448 552 l 1,46,-1
 298 552 l 1,43,-1
598 552 m 1,47,-1
 598 702 l 1,48,-1
 748 702 l 1,49,-1
 748 552 l 1,50,-1
 598 552 l 1,47,-1
898 552 m 1,51,-1
 898 702 l 1,52,-1
 1048 702 l 1,53,-1
 1048 552 l 1,54,-1
 898 552 l 1,51,-1
598 402 m 1,55,-1
 598 552 l 1,56,-1
 748 552 l 1,57,-1
 748 402 l 1,58,-1
 598 402 l 1,55,-1
898 402 m 1,59,-1
 898 552 l 1,60,-1
 1048 552 l 1,61,-1
 1048 402 l 1,62,-1
 898 402 l 1,59,-1
298 252 m 1,63,-1
 298 402 l 1,64,-1
 448 402 l 1,65,-1
 448 252 l 1,66,-1
 298 252 l 1,63,-1
448 252 m 1,67,-1
 448 402 l 1,68,-1
 598 402 l 1,69,-1
 598 252 l 1,70,-1
 448 252 l 1,67,-1
598 252 m 1,71,-1
 598 402 l 1,72,-1
 748 402 l 1,73,-1
 748 252 l 1,74,-1
 598 252 l 1,71,-1
748 252 m 1,75,-1
 748 402 l 1,76,-1
 898 402 l 1,77,-1
 898 252 l 1,78,-1
 748 252 l 1,75,-1
898 102 m 1,79,-1
 898 252 l 1,80,-1
 1048 252 l 1,81,-1
 1048 102 l 1,82,-1
 898 102 l 1,79,-1
898 -48 m 1,83,-1
 898 102 l 1,84,-1
 1048 102 l 1,85,-1
 1048 -48 l 1,86,-1
 898 -48 l 1,83,-1
148 -198 m 1,87,-1
 148 -48 l 1,88,-1
 298 -48 l 1,89,-1
 298 -198 l 1,90,-1
 148 -198 l 1,87,-1
298 -198 m 1,91,-1
 298 -48 l 1,92,-1
 448 -48 l 1,93,-1
 448 -198 l 1,94,-1
 298 -198 l 1,91,-1
448 -198 m 1,95,-1
 448 -48 l 1,96,-1
 598 -48 l 1,97,-1
 598 -198 l 1,98,-1
 448 -198 l 1,95,-1
598 -198 m 1,99,-1
 598 -48 l 1,100,-1
 748 -48 l 1,101,-1
 748 -198 l 1,102,-1
 598 -198 l 1,99,-1
748 -198 m 1,103,-1
 748 -48 l 1,104,-1
 898 -48 l 1,105,-1
 898 -198 l 1,106,-1
 748 -198 l 1,103,-1
898 -198 m 1,107,-1
 898 -48 l 1,108,-1
 1048 -48 l 1025,109,-1
EndSplineSet
Validated: 2059
EndChar

StartChar: E
Encoding: 69 69 40
Width: 1406
Flags: W
LayerCount: 2
Fore
SplineSet
154 852 m 1,0,-1
 154 702 l 1,1,-1
 4 702 l 1025,2,-1
4 552 m 1,3,-1
 4 702 l 1,4,-1
 154 702 l 1,5,-1
 154 552 l 1,6,-1
 4 552 l 1,3,-1
4 552 m 1,7,-1
 154 552 l 1,8,-1
 154 402 l 1025,9,-1
154 702 m 1,10,-1
 154 852 l 1,11,-1
 304 852 l 1,12,-1
 304 702 l 1,13,-1
 154 702 l 1,10,-1
304 702 m 1,14,-1
 304 852 l 1,15,-1
 454 852 l 1,16,-1
 454 702 l 1,17,-1
 304 702 l 1,14,-1
604 702 m 1,18,-1
 454 702 l 1025,19,-1
604 702 m 1,20,-1
 604 852 l 1,21,-1
 754 852 l 1,22,-1
 754 702 l 1,23,-1
 604 702 l 1,20,-1
754 702 m 1,24,-1
 754 852 l 1,25,-1
 904 852 l 1,26,-1
 904 702 l 1,27,-1
 754 702 l 1,24,-1
1054 702 m 1,28,-1
 904 702 l 1,29,-1
 904 852 l 1025,30,-1
454 552 m 1,31,-1
 454 702 l 1,32,-1
 604 702 l 1,33,-1
 604 552 l 1,34,-1
 454 552 l 1,31,-1
904 552 m 1,35,-1
 904 702 l 1,36,-1
 1054 702 l 1,37,-1
 1054 552 l 1,38,-1
 904 552 l 1,35,-1
154 402 m 1,39,-1
 154 552 l 1,40,-1
 304 552 l 1,41,-1
 304 402 l 1,42,-1
 154 402 l 1,39,-1
454 402 m 1,43,-1
 454 552 l 1,44,-1
 604 552 l 1,45,-1
 604 402 l 1,46,-1
 454 402 l 1,43,-1
904 402 m 1,47,-1
 904 552 l 1,48,-1
 1054 552 l 1,49,-1
 1054 402 l 1,50,-1
 904 402 l 1,47,-1
904 252 m 1,51,-1
 904 402 l 1,52,-1
 1054 402 l 1,53,-1
 1054 252 l 1,54,-1
 904 252 l 1,51,-1
304 102 m 1,55,-1
 304 252 l 1,56,-1
 454 252 l 1,57,-1
 454 102 l 1,58,-1
 304 102 l 1,55,-1
454 102 m 1,59,-1
 454 252 l 1,60,-1
 604 252 l 1,61,-1
 604 102 l 1,62,-1
 454 102 l 1,59,-1
604 102 m 1,63,-1
 604 252 l 1,64,-1
 754 252 l 1,65,-1
 754 102 l 1,66,-1
 604 102 l 1,63,-1
904 102 m 1,67,-1
 904 252 l 1,68,-1
 1054 252 l 1,69,-1
 1054 102 l 1,70,-1
 904 102 l 1,67,-1
154 -48 m 1,71,-1
 154 102 l 1,72,-1
 304 102 l 1,73,-1
 304 -48 l 1,74,-1
 154 -48 l 1,71,-1
754 -48 m 1,75,-1
 754 102 l 1,76,-1
 904 102 l 1,77,-1
 904 -48 l 1,78,-1
 754 -48 l 1,75,-1
304 -198 m 1,79,-1
 304 -48 l 1,80,-1
 454 -48 l 1,81,-1
 454 -198 l 1,82,-1
 304 -198 l 1,79,-1
454 -198 m 1,83,-1
 454 -48 l 1,84,-1
 604 -48 l 1,85,-1
 604 -198 l 1,86,-1
 454 -198 l 1,83,-1
604 -198 m 1,87,-1
 604 -48 l 1,88,-1
 754 -48 l 1,89,-1
 754 -198 l 1,90,-1
 604 -198 l 1,87,-1
904 -198 m 1,91,-1
 904 -48 l 1,92,-1
 1054 -48 l 1,93,-1
 1054 -198 l 1,94,-1
 904 -198 l 1,91,-1
1054 -198 m 1,95,-1
 1054 -48 l 1,96,-1
 1204 -48 l 1,97,-1
 1204 -198 l 1,98,-1
 1054 -198 l 1,95,-1
EndSplineSet
Validated: 2059
EndChar

StartChar: F
Encoding: 70 70 41
Width: 1072
Flags: W
LayerCount: 2
Fore
SplineSet
37.142578125 550 m 1,0,-1
 37.142578125 700 l 1,1,-1
 187.142578125 700 l 1,2,-1
 187.142578125 550 l 1,3,-1
 37.142578125 550 l 1,0,-1
187.142578125 550 m 1,4,-1
 187.142578125 700 l 1,5,-1
 337.142578125 700 l 1,6,-1
 337.142578125 550 l 1,7,-1
 187.142578125 550 l 1,4,-1
337.142578125 550 m 1,8,-1
 337.142578125 700 l 1,9,-1
 487.142578125 700 l 1,10,-1
 487.142578125 550 l 1,11,-1
 337.142578125 550 l 1,8,-1
337.142578125 700 m 1,12,-1
 337.142578125 850 l 1,13,-1
 487.142578125 850 l 1,14,-1
 487.142578125 700 l 1,15,-1
 337.142578125 700 l 1,12,-1
487.142578125 700 m 1,16,-1
 487.142578125 850 l 1,17,-1
 637.142578125 850 l 1,18,-1
 637.142578125 700 l 1,19,-1
 487.142578125 700 l 1,16,-1
637.142578125 700 m 1,20,-1
 637.142578125 850 l 1,21,-1
 787.142578125 850 l 1,22,-1
 787.142578125 700 l 1,23,-1
 637.142578125 700 l 1,20,-1
637.142578125 850 m 1,24,-1
 637.142578125 1000 l 1,25,-1
 787.142578125 1000 l 1,26,-1
 787.142578125 850 l 1,27,-1
 637.142578125 850 l 1,24,-1
637.142578125 1000 m 1,28,-1
 637.142578125 1150 l 1,29,-1
 787.142578125 1150 l 1,30,-1
 787.142578125 1000 l 1,31,-1
 637.142578125 1000 l 1,28,-1
187.142578125 700 m 1,32,-1
 187.142578125 850 l 1,33,-1
 337.142578125 850 l 1,34,-1
 337.142578125 700 l 1,35,-1
 187.142578125 700 l 1,32,-1
37.142578125 700 m 1,36,-1
 37.142578125 850 l 1,37,-1
 187.142578125 850 l 1,38,-1
 187.142578125 700 l 1,39,-1
 37.142578125 700 l 1,36,-1
-112.857421875 700 m 1,40,-1
 -112.857421875 850 l 1,41,-1
 37.142578125 850 l 1,42,-1
 37.142578125 700 l 1,43,-1
 -112.857421875 700 l 1,40,-1
-262.857421875 700 m 1,44,-1
 -262.857421875 850 l 1,45,-1
 -112.857421875 850 l 1,46,-1
 -112.857421875 700 l 1,47,-1
 -262.857421875 700 l 1,44,-1
37.142578125 -200 m 1,48,-1
 37.142578125 -50 l 1,49,-1
 187.142578125 -50 l 1,50,-1
 187.142578125 -200 l 1,51,-1
 37.142578125 -200 l 1,48,-1
187.142578125 -200 m 1,52,-1
 187.142578125 -50 l 1,53,-1
 337.142578125 -50 l 1,54,-1
 337.142578125 -200 l 1,55,-1
 187.142578125 -200 l 1,52,-1
337.142578125 -200 m 1,56,-1
 337.142578125 -50 l 1,57,-1
 487.142578125 -50 l 1,58,-1
 487.142578125 -200 l 1,59,-1
 337.142578125 -200 l 1,56,-1
-112.857421875 400 m 1,60,-1
 -112.857421875 550 l 1,61,-1
 37.142578125 550 l 1,62,-1
 37.142578125 400 l 1,63,-1
 -112.857421875 400 l 1,60,-1
487.142578125 400 m 1,64,-1
 487.142578125 550 l 1,65,-1
 637.142578125 550 l 1,66,-1
 637.142578125 400 l 1,67,-1
 487.142578125 400 l 1,64,-1
-112.857421875 250 m 1,68,-1
 -112.857421875 400 l 1,69,-1
 37.142578125 400 l 1,70,-1
 37.142578125 250 l 1,71,-1
 -112.857421875 250 l 1,68,-1
37.142578125 250 m 1,72,-1
 37.142578125 400 l 1,73,-1
 187.142578125 400 l 1,74,-1
 187.142578125 250 l 1,75,-1
 37.142578125 250 l 1,72,-1
187.142578125 250 m 1,76,-1
 187.142578125 400 l 1,77,-1
 337.142578125 400 l 1,78,-1
 337.142578125 250 l 1,79,-1
 187.142578125 250 l 1,76,-1
337.142578125 250 m 1,80,-1
 337.142578125 400 l 1,81,-1
 487.142578125 400 l 1,82,-1
 487.142578125 250 l 1,83,-1
 337.142578125 250 l 1,80,-1
-262.857421875 250 m 1,84,-1
 -262.857421875 400 l 1,85,-1
 -112.857421875 400 l 1,86,-1
 -112.857421875 250 l 1,87,-1
 -262.857421875 250 l 1,84,-1
487.142578125 250 m 1,88,-1
 487.142578125 400 l 1,89,-1
 637.142578125 400 l 1,90,-1
 637.142578125 250 l 1,91,-1
 487.142578125 250 l 1,88,-1
637.142578125 250 m 1,92,-1
 637.142578125 400 l 1,93,-1
 787.142578125 400 l 1,94,-1
 787.142578125 250 l 1,95,-1
 637.142578125 250 l 1,92,-1
787.142578125 250 m 1,96,-1
 787.142578125 400 l 1,97,-1
 937.142578125 400 l 1,98,-1
 937.142578125 250 l 1,99,-1
 787.142578125 250 l 1,96,-1
787.142578125 100 m 1,100,-1
 787.142578125 250 l 1,101,-1
 937.142578125 250 l 1,102,-1
 937.142578125 100 l 1,103,-1
 787.142578125 100 l 1,100,-1
787.142578125 -50 m 1,104,-1
 787.142578125 100 l 1,105,-1
 937.142578125 100 l 1,106,-1
 937.142578125 -50 l 1,107,-1
 787.142578125 -50 l 1,104,-1
787.142578125 -200 m 1,108,-1
 787.142578125 -50 l 1,109,-1
 937.142578125 -50 l 1,110,-1
 937.142578125 -200 l 1,111,-1
 787.142578125 -200 l 1,108,-1
787.142578125 400 m 1,112,-1
 787.142578125 550 l 1,113,-1
 937.142578125 550 l 1,114,-1
 937.142578125 400 l 1,115,-1
 787.142578125 400 l 1,112,-1
-112.857421875 100 m 1,116,-1
 -112.857421875 250 l 1,117,-1
 37.142578125 250 l 1,118,-1
 37.142578125 100 l 1,119,-1
 -112.857421875 100 l 1,116,-1
487.142578125 100 m 1,120,-1
 487.142578125 250 l 1,121,-1
 637.142578125 250 l 1,122,-1
 637.142578125 100 l 1,123,-1
 487.142578125 100 l 1,120,-1
-112.857421875 -50 m 1,124,-1
 -112.857421875 100 l 1,125,-1
 37.142578125 100 l 1,126,-1
 37.142578125 -50 l 1,127,-1
 -112.857421875 -50 l 1,124,-1
487.142578125 -50 m 1,128,-1
 487.142578125 100 l 1,129,-1
 637.142578125 100 l 1,130,-1
 637.142578125 -50 l 1,131,-1
 487.142578125 -50 l 1,128,-1
EndSplineSet
Validated: 3077
EndChar

StartChar: G
Encoding: 71 71 42
Width: 1176
Flags: W
LayerCount: 2
Fore
SplineSet
150 -200 m 5,0,-1
 150 -50 l 5,1,-1
 300 -50 l 5,2,-1
 300 -200 l 5,3,-1
 150 -200 l 5,0,-1
300 550 m 5,4,-1
 300 700 l 5,5,-1
 450 700 l 5,6,-1
 450 550 l 5,7,-1
 300 550 l 5,4,-1
600 550 m 5,8,-1
 600 700 l 5,9,-1
 750 700 l 5,10,-1
 750 550 l 5,11,-1
 600 550 l 5,8,-1
900 550 m 5,12,-1
 900 700 l 5,13,-1
 1050 700 l 5,14,-1
 1050 550 l 5,15,-1
 900 550 l 5,12,-1
300 400 m 5,16,-1
 300 550 l 5,17,-1
 450 550 l 5,18,-1
 450 400 l 5,19,-1
 300 400 l 5,16,-1
600 400 m 5,20,-1
 600 550 l 5,21,-1
 750 550 l 5,22,-1
 750 400 l 5,23,-1
 600 400 l 5,20,-1
900 400 m 5,24,-1
 900 550 l 5,25,-1
 1050 550 l 5,26,-1
 1050 400 l 5,27,-1
 900 400 l 5,24,-1
300 250 m 5,28,-1
 300 400 l 5,29,-1
 450 400 l 5,30,-1
 450 250 l 5,31,-1
 300 250 l 5,28,-1
600 250 m 5,32,-1
 600 400 l 5,33,-1
 750 400 l 5,34,-1
 750 250 l 5,35,-1
 600 250 l 5,32,-1
900 250 m 5,36,-1
 900 400 l 5,37,-1
 1050 400 l 5,38,-1
 1050 250 l 5,39,-1
 900 250 l 5,36,-1
300 100 m 5,40,-1
 300 250 l 5,41,-1
 450 250 l 5,42,-1
 450 100 l 5,43,-1
 300 100 l 5,40,-1
600 100 m 5,44,-1
 600 250 l 5,45,-1
 750 250 l 5,46,-1
 750 100 l 5,47,-1
 600 100 l 5,44,-1
900 100 m 5,48,-1
 900 250 l 5,49,-1
 1050 250 l 5,50,-1
 1050 100 l 5,51,-1
 900 100 l 5,48,-1
300 -50 m 5,52,-1
 300 100 l 5,53,-1
 450 100 l 5,54,-1
 450 -50 l 5,55,-1
 300 -50 l 5,52,-1
600 -50 m 5,56,-1
 600 100 l 5,57,-1
 750 100 l 5,58,-1
 750 -50 l 5,59,-1
 600 -50 l 5,56,-1
900 -50 m 5,60,-1
 900 100 l 5,61,-1
 1050 100 l 5,62,-1
 1050 -50 l 5,63,-1
 900 -50 l 5,60,-1
300 -200 m 5,64,-1
 300 -50 l 5,65,-1
 450 -50 l 5,66,-1
 450 -200 l 5,67,-1
 300 -200 l 5,64,-1
600 -200 m 5,68,-1
 600 -50 l 5,69,-1
 750 -50 l 5,70,-1
 750 -200 l 5,71,-1
 600 -200 l 5,68,-1
750 -200 m 5,72,-1
 750 -50 l 5,73,-1
 900 -50 l 5,74,-1
 900 -200 l 5,75,-1
 750 -200 l 5,72,-1
900 -200 m 5,76,-1
 900 -50 l 5,77,-1
 1050 -50 l 5,78,-1
 1050 -200 l 5,79,-1
 900 -200 l 5,76,-1
0 550 m 5,80,-1
 0 700 l 5,81,-1
 150 700 l 5,82,-1
 150 550 l 5,83,-1
 0 550 l 5,80,-1
300 700 m 5,84,-1
 300 850 l 5,85,-1
 450 850 l 5,86,-1
 450 700 l 5,87,-1
 300 700 l 5,84,-1
450 700 m 5,88,-1
 450 850 l 5,89,-1
 600 850 l 5,90,-1
 600 700 l 5,91,-1
 450 700 l 5,88,-1
600 700 m 5,92,-1
 600 850 l 5,93,-1
 750 850 l 5,94,-1
 750 700 l 5,95,-1
 600 700 l 5,92,-1
900 700 m 5,96,-1
 900 850 l 5,97,-1
 1050 850 l 5,98,-1
 1050 700 l 5,99,-1
 900 700 l 5,96,-1
0 700 m 5,100,-1
 0 850 l 5,101,-1
 150 850 l 5,102,-1
 150 700 l 5,103,-1
 0 700 l 5,100,-1
0 400 m 5,104,-1
 0 550 l 5,105,-1
 150 550 l 5,106,-1
 150 400 l 5,107,-1
 0 400 l 5,104,-1
0 250 m 5,108,-1
 0 400 l 5,109,-1
 150 400 l 5,110,-1
 150 250 l 5,111,-1
 0 250 l 5,108,-1
0 100 m 5,112,-1
 0 250 l 5,113,-1
 150 250 l 5,114,-1
 150 100 l 5,115,-1
 0 100 l 5,112,-1
0 -50 m 5,116,-1
 0 100 l 5,117,-1
 150 100 l 5,118,-1
 150 -50 l 5,119,-1
 0 -50 l 5,116,-1
0 -200 m 5,120,-1
 0 -50 l 5,121,-1
 150 -50 l 5,122,-1
 150 -200 l 5,123,-1
 0 -200 l 5,120,-1
EndSplineSet
Validated: 3077
EndChar

StartChar: H
Encoding: 72 72 43
Width: 1605
Flags: W
LayerCount: 2
Fore
SplineSet
150 -198 m 5,0,-1
 150 -48 l 5,1,-1
 300 -48 l 5,2,-1
 300 -198 l 5,3,-1
 150 -198 l 5,0,-1
300 552 m 5,4,-1
 300 702 l 5,5,-1
 450 702 l 5,6,-1
 450 552 l 5,7,-1
 300 552 l 5,4,-1
600 552 m 5,8,-1
 600 702 l 5,9,-1
 750 702 l 5,10,-1
 750 552 l 5,11,-1
 600 552 l 5,8,-1
900 552 m 5,12,-1
 900 702 l 5,13,-1
 1050 702 l 5,14,-1
 1050 552 l 5,15,-1
 900 552 l 5,12,-1
1350 552 m 5,16,-1
 1350 702 l 5,17,-1
 1500 702 l 5,18,-1
 1500 552 l 5,19,-1
 1350 552 l 5,16,-1
300 402 m 5,20,-1
 300 552 l 5,21,-1
 450 552 l 5,22,-1
 450 402 l 5,23,-1
 300 402 l 5,20,-1
600 402 m 5,24,-1
 600 552 l 5,25,-1
 750 552 l 5,26,-1
 750 402 l 5,27,-1
 600 402 l 5,24,-1
900 402 m 5,28,-1
 900 552 l 5,29,-1
 1050 552 l 5,30,-1
 1050 402 l 5,31,-1
 900 402 l 5,28,-1
1350 402 m 5,32,-1
 1350 552 l 5,33,-1
 1500 552 l 5,34,-1
 1500 402 l 5,35,-1
 1350 402 l 5,32,-1
300 252 m 5,36,-1
 300 402 l 5,37,-1
 450 402 l 5,38,-1
 450 252 l 5,39,-1
 300 252 l 5,36,-1
600 252 m 5,40,-1
 600 402 l 5,41,-1
 750 402 l 5,42,-1
 750 252 l 5,43,-1
 600 252 l 5,40,-1
900 252 m 5,44,-1
 900 402 l 5,45,-1
 1050 402 l 5,46,-1
 1050 252 l 5,47,-1
 900 252 l 5,44,-1
1350 252 m 5,48,-1
 1350 402 l 5,49,-1
 1500 402 l 5,50,-1
 1500 252 l 5,51,-1
 1350 252 l 5,48,-1
300 102 m 5,52,-1
 300 252 l 5,53,-1
 450 252 l 5,54,-1
 450 102 l 5,55,-1
 300 102 l 5,52,-1
600 102 m 5,56,-1
 600 252 l 5,57,-1
 750 252 l 5,58,-1
 750 102 l 5,59,-1
 600 102 l 5,56,-1
900 102 m 5,60,-1
 900 252 l 5,61,-1
 1050 252 l 5,62,-1
 1050 102 l 5,63,-1
 900 102 l 5,60,-1
1350 102 m 5,64,-1
 1350 252 l 5,65,-1
 1500 252 l 5,66,-1
 1500 102 l 5,67,-1
 1350 102 l 5,64,-1
300 -48 m 5,68,-1
 300 102 l 5,69,-1
 450 102 l 5,70,-1
 450 -48 l 5,71,-1
 300 -48 l 5,68,-1
600 -48 m 5,72,-1
 600 102 l 5,73,-1
 750 102 l 5,74,-1
 750 -48 l 5,75,-1
 600 -48 l 5,72,-1
900 -48 m 5,76,-1
 900 102 l 5,77,-1
 1050 102 l 5,78,-1
 1050 -48 l 5,79,-1
 900 -48 l 5,76,-1
1350 -48 m 5,80,-1
 1350 102 l 5,81,-1
 1500 102 l 5,82,-1
 1500 -48 l 5,83,-1
 1350 -48 l 5,80,-1
300 -198 m 5,84,-1
 300 -48 l 5,85,-1
 450 -48 l 5,86,-1
 450 -198 l 5,87,-1
 300 -198 l 5,84,-1
600 -198 m 5,88,-1
 600 -48 l 5,89,-1
 750 -48 l 5,90,-1
 750 -198 l 5,91,-1
 600 -198 l 5,88,-1
750 -198 m 5,92,-1
 750 -48 l 5,93,-1
 900 -48 l 5,94,-1
 900 -198 l 5,95,-1
 750 -198 l 5,92,-1
900 -198 m 5,96,-1
 900 -48 l 5,97,-1
 1050 -48 l 5,98,-1
 1050 -198 l 5,99,-1
 900 -198 l 5,96,-1
1200 -198 m 5,100,-1
 1200 -48 l 5,101,-1
 1350 -48 l 5,102,-1
 1350 -198 l 5,103,-1
 1200 -198 l 5,100,-1
1350 -198 m 5,104,-1
 1350 -48 l 5,105,-1
 1500 -48 l 5,106,-1
 1500 -198 l 5,107,-1
 1350 -198 l 5,104,-1
0 552 m 5,108,-1
 0 702 l 5,109,-1
 150 702 l 5,110,-1
 150 552 l 5,111,-1
 0 552 l 5,108,-1
300 702 m 5,112,-1
 300 852 l 5,113,-1
 450 852 l 5,114,-1
 450 702 l 5,115,-1
 300 702 l 5,112,-1
450 702 m 5,116,-1
 450 852 l 5,117,-1
 600 852 l 5,118,-1
 600 702 l 5,119,-1
 450 702 l 5,116,-1
600 702 m 5,120,-1
 600 852 l 5,121,-1
 750 852 l 5,122,-1
 750 702 l 5,123,-1
 600 702 l 5,120,-1
900 702 m 5,124,-1
 900 852 l 5,125,-1
 1050 852 l 5,126,-1
 1050 702 l 5,127,-1
 900 702 l 5,124,-1
1050 702 m 5,128,-1
 1050 852 l 5,129,-1
 1200 852 l 5,130,-1
 1200 702 l 5,131,-1
 1050 702 l 5,128,-1
1200 702 m 5,132,-1
 1200 852 l 5,133,-1
 1350 852 l 5,134,-1
 1350 702 l 5,135,-1
 1200 702 l 5,132,-1
1350 702 m 5,136,-1
 1350 852 l 5,137,-1
 1500 852 l 5,138,-1
 1500 702 l 5,139,-1
 1350 702 l 5,136,-1
0 702 m 5,140,-1
 0 852 l 5,141,-1
 150 852 l 5,142,-1
 150 702 l 5,143,-1
 0 702 l 5,140,-1
0 402 m 5,144,-1
 0 552 l 5,145,-1
 150 552 l 5,146,-1
 150 402 l 5,147,-1
 0 402 l 5,144,-1
0 252 m 5,148,-1
 0 402 l 5,149,-1
 150 402 l 5,150,-1
 150 252 l 5,151,-1
 0 252 l 5,148,-1
0 102 m 5,152,-1
 0 252 l 5,153,-1
 150 252 l 5,154,-1
 150 102 l 5,155,-1
 0 102 l 5,152,-1
0 -48 m 5,156,-1
 0 102 l 5,157,-1
 150 102 l 5,158,-1
 150 -48 l 5,159,-1
 0 -48 l 5,156,-1
0 -198 m 5,160,-1
 0 -48 l 5,161,-1
 150 -48 l 5,162,-1
 150 -198 l 5,163,-1
 0 -198 l 5,160,-1
EndSplineSet
Validated: 3077
EndChar

StartChar: I
Encoding: 73 73 44
Width: 1568
Flags: W
LayerCount: 2
Fore
SplineSet
448 702 m 1,0,-1
 448 852 l 1,1,-1
 598 852 l 1,2,-1
 598 702 l 1,3,-1
 448 702 l 1,0,-1
448 102 m 1,4,-1
 448 252 l 1,5,-1
 598 252 l 1,6,-1
 598 102 l 1,7,-1
 448 102 l 1,4,-1
448 -198 m 1,8,-1
 448 -48 l 1,9,-1
 598 -48 l 1,10,-1
 598 -198 l 1,11,-1
 448 -198 l 1,8,-1
898 552 m 1,12,-1
 898 702 l 1,13,-1
 1048 702 l 1,14,-1
 1048 552 l 1,15,-1
 898 552 l 1,12,-1
1048 552 m 1,16,-1
 1048 702 l 1,17,-1
 1198 702 l 1,18,-1
 1198 552 l 1,19,-1
 1048 552 l 1,16,-1
1198 552 m 1,20,-1
 1198 702 l 1,21,-1
 1348 702 l 1,22,-1
 1348 552 l 1,23,-1
 1198 552 l 1,20,-1
1198 702 m 1,24,-1
 1198 852 l 1,25,-1
 1348 852 l 1,26,-1
 1348 702 l 1,27,-1
 1198 702 l 1,24,-1
598 402 m 1,28,-1
 598 552 l 1,29,-1
 748 552 l 1,30,-1
 748 402 l 1,31,-1
 598 402 l 1,28,-1
598 552 m 1,32,-1
 598 702 l 1,33,-1
 748 702 l 1,34,-1
 748 552 l 1,35,-1
 598 552 l 1,32,-1
1048 402 m 1,36,-1
 1048 552 l 1,37,-1
 1198 552 l 1,38,-1
 1198 402 l 1,39,-1
 1048 402 l 1,36,-1
598 252 m 1,40,-1
 598 402 l 1,41,-1
 748 402 l 1,42,-1
 748 252 l 1,43,-1
 598 252 l 1,40,-1
1198 252 m 1,44,-1
 1198 402 l 1,45,-1
 1348 402 l 1,46,-1
 1348 252 l 1,47,-1
 1198 252 l 1,44,-1
598 102 m 1,48,-1
 598 252 l 1,49,-1
 748 252 l 1,50,-1
 748 102 l 1,51,-1
 598 102 l 1,48,-1
1198 102 m 1,52,-1
 1198 252 l 1,53,-1
 1348 252 l 1,54,-1
 1348 102 l 1,55,-1
 1198 102 l 1,52,-1
598 -48 m 1,56,-1
 598 102 l 1,57,-1
 748 102 l 1,58,-1
 748 -48 l 1,59,-1
 598 -48 l 1,56,-1
1198 -48 m 1,60,-1
 1198 102 l 1,61,-1
 1348 102 l 1,62,-1
 1348 -48 l 1,63,-1
 1198 -48 l 1,60,-1
748 -198 m 1,64,-1
 748 -48 l 1,65,-1
 898 -48 l 1,66,-1
 898 -198 l 1,67,-1
 748 -198 l 1,64,-1
898 -198 m 1,68,-1
 898 -48 l 1,69,-1
 1048 -48 l 1,70,-1
 1048 -198 l 1,71,-1
 898 -198 l 1,68,-1
1048 -198 m 1,72,-1
 1048 -48 l 1,73,-1
 1198 -48 l 1,74,-1
 1198 -198 l 1,75,-1
 1048 -198 l 1,72,-1
298 702 m 1,76,-1
 298 852 l 1,77,-1
 448 852 l 1,78,-1
 448 702 l 1,79,-1
 298 702 l 1,76,-1
298 102 m 1,80,-1
 298 252 l 1,81,-1
 448 252 l 1,82,-1
 448 102 l 1,83,-1
 298 102 l 1,80,-1
298 -198 m 1,84,-1
 298 -48 l 1,85,-1
 448 -48 l 1,86,-1
 448 -198 l 1,87,-1
 298 -198 l 1,84,-1
148 702 m 1,88,-1
 148 852 l 1,89,-1
 298 852 l 1,90,-1
 298 702 l 1,91,-1
 148 702 l 1,88,-1
148 102 m 1,92,-1
 148 252 l 1,93,-1
 298 252 l 1,94,-1
 298 102 l 1,95,-1
 148 102 l 1,92,-1
148 -198 m 1,96,-1
 148 -48 l 1,97,-1
 298 -48 l 1,98,-1
 298 -198 l 1,99,-1
 148 -198 l 1,96,-1
-2 -48 m 1,100,-1
 -2 102 l 1,101,-1
 148 102 l 1,102,-1
 148 -48 l 1,103,-1
 -2 -48 l 1,100,-1
448 402 m 1,104,-1
 448 552 l 1,105,-1
 598 552 l 1,106,-1
 598 402 l 1,107,-1
 448 402 l 1,104,-1
298 402 m 1,108,-1
 298 552 l 1,109,-1
 448 552 l 1,110,-1
 448 402 l 1,111,-1
 298 402 l 1,108,-1
148 402 m 1,112,-1
 148 552 l 1,113,-1
 298 552 l 1,114,-1
 298 402 l 1,115,-1
 148 402 l 1,112,-1
-2 552 m 1,116,-1
 -2 702 l 1,117,-1
 148 702 l 1,118,-1
 148 552 l 1,119,-1
 -2 552 l 1,116,-1
EndSplineSet
Validated: 2053
EndChar

StartChar: J
Encoding: 74 74 45
Width: 1102
Flags: W
LayerCount: 2
Fore
SplineSet
-2 102 m 1,0,-1
 -2 252 l 1,1,-1
 148 252 l 1,2,-1
 148 102 l 1,3,-1
 -2 102 l 1,0,-1
-2 -48 m 1,4,-1
 -2 102 l 1,5,-1
 148 102 l 1,6,-1
 148 -48 l 1,7,-1
 -2 -48 l 1,4,-1
448 702 m 1,8,-1
 448 852 l 1,9,-1
 598 852 l 1,10,-1
 598 702 l 1,11,-1
 448 702 l 1,8,-1
598 702 m 1,12,-1
 598 852 l 1,13,-1
 748 852 l 1,14,-1
 748 702 l 1,15,-1
 598 702 l 1,12,-1
748 552 m 1,16,-1
 748 702 l 1,17,-1
 898 702 l 1,18,-1
 898 552 l 1,19,-1
 748 552 l 1,16,-1
898 402 m 1,20,-1
 898 552 l 1,21,-1
 1048 552 l 1,22,-1
 1048 402 l 1,23,-1
 898 402 l 1,20,-1
148 252 m 1,24,-1
 148 402 l 1,25,-1
 298 402 l 1,26,-1
 298 252 l 1,27,-1
 148 252 l 1,24,-1
898 252 m 1,28,-1
 898 402 l 1,29,-1
 1048 402 l 1,30,-1
 1048 252 l 1,31,-1
 898 252 l 1,28,-1
898 102 m 1,32,-1
 898 252 l 1,33,-1
 1048 252 l 1,34,-1
 1048 102 l 1,35,-1
 898 102 l 1,32,-1
448 -48 m 1,36,-1
 448 102 l 1,37,-1
 598 102 l 1,38,-1
 598 -48 l 1,39,-1
 448 -48 l 1,36,-1
898 -48 m 1,40,-1
 898 102 l 1,41,-1
 1048 102 l 1,42,-1
 1048 -48 l 1,43,-1
 898 -48 l 1,40,-1
148 -198 m 1,44,-1
 148 -48 l 1,45,-1
 298 -48 l 1,46,-1
 298 -198 l 1,47,-1
 148 -198 l 1,44,-1
298 -198 m 1,48,-1
 298 -48 l 1,49,-1
 448 -48 l 1,50,-1
 448 -198 l 1,51,-1
 298 -198 l 1,48,-1
598 -198 m 1,52,-1
 598 -48 l 1,53,-1
 748 -48 l 1,54,-1
 748 -198 l 1,55,-1
 598 -198 l 1,52,-1
748 -198 m 1,56,-1
 748 -48 l 1,57,-1
 898 -48 l 1,58,-1
 898 -198 l 1,59,-1
 748 -198 l 1,56,-1
EndSplineSet
Validated: 2053
EndChar

StartChar: K
Encoding: 75 75 46
Width: 1182
Flags: W
LayerCount: 2
Fore
SplineSet
0 702 m 1,0,-1
 0 852 l 1,1,-1
 150 852 l 1,2,-1
 150 702 l 1,3,-1
 0 702 l 1,0,-1
0 102 m 1,4,-1
 0 252 l 1,5,-1
 150 252 l 1,6,-1
 150 102 l 1,7,-1
 0 102 l 1,4,-1
0 -48 m 1,8,-1
 0 102 l 1,9,-1
 150 102 l 1,10,-1
 150 -48 l 1,11,-1
 0 -48 l 1,8,-1
450 702 m 1,12,-1
 450 852 l 1,13,-1
 600 852 l 1,14,-1
 600 702 l 1,15,-1
 450 702 l 1,12,-1
600 702 m 1,16,-1
 600 852 l 1,17,-1
 750 852 l 1,18,-1
 750 702 l 1,19,-1
 600 702 l 1,16,-1
150 552 m 1,20,-1
 150 702 l 1,21,-1
 300 702 l 1,22,-1
 300 552 l 1,23,-1
 150 552 l 1,20,-1
300 552 m 1,24,-1
 300 702 l 1,25,-1
 450 702 l 1,26,-1
 450 552 l 1,27,-1
 300 552 l 1,24,-1
750 552 m 1,28,-1
 750 702 l 1,29,-1
 900 702 l 1,30,-1
 900 552 l 1,31,-1
 750 552 l 1,28,-1
900 402 m 1,32,-1
 900 552 l 1,33,-1
 1050 552 l 1,34,-1
 1050 402 l 1,35,-1
 900 402 l 1,32,-1
150 252 m 1,36,-1
 150 402 l 1,37,-1
 300 402 l 1,38,-1
 300 252 l 1,39,-1
 150 252 l 1,36,-1
900 252 m 1,40,-1
 900 402 l 1,41,-1
 1050 402 l 1,42,-1
 1050 252 l 1,43,-1
 900 252 l 1,40,-1
900 102 m 1,44,-1
 900 252 l 1,45,-1
 1050 252 l 1,46,-1
 1050 102 l 1,47,-1
 900 102 l 1,44,-1
450 -48 m 1,48,-1
 450 102 l 1,49,-1
 600 102 l 1,50,-1
 600 -48 l 1,51,-1
 450 -48 l 1,48,-1
900 -48 m 1,52,-1
 900 102 l 1,53,-1
 1050 102 l 1,54,-1
 1050 -48 l 1,55,-1
 900 -48 l 1,52,-1
150 -198 m 1,56,-1
 150 -48 l 1,57,-1
 300 -48 l 1,58,-1
 300 -198 l 1,59,-1
 150 -198 l 1,56,-1
300 -198 m 1,60,-1
 300 -48 l 1,61,-1
 450 -48 l 1,62,-1
 450 -198 l 1,63,-1
 300 -198 l 1,60,-1
600 -198 m 1,64,-1
 600 -48 l 1,65,-1
 750 -48 l 1,66,-1
 750 -198 l 1,67,-1
 600 -198 l 1,64,-1
750 -198 m 1,68,-1
 750 -48 l 1,69,-1
 900 -48 l 1,70,-1
 900 -198 l 1,71,-1
 750 -198 l 1,68,-1
EndSplineSet
Validated: 2053
EndChar

StartChar: L
Encoding: 76 76 47
Width: 1178
Flags: W
LayerCount: 2
Fore
SplineSet
1 552 m 1,0,-1
 1 702 l 1,1,-1
 151 702 l 1,2,-1
 151 552 l 1,3,-1
 1 552 l 1,0,-1
1 102 m 1,4,-1
 1 252 l 1,5,-1
 151 252 l 1,6,-1
 151 102 l 1,7,-1
 1 102 l 1,4,-1
1 -48 m 1,8,-1
 1 102 l 1,9,-1
 151 102 l 1,10,-1
 151 -48 l 1,11,-1
 1 -48 l 1,8,-1
151 702 m 1,12,-1
 151 852 l 1,13,-1
 301 852 l 1,14,-1
 301 702 l 1,15,-1
 151 702 l 1,12,-1
301 702 m 1,16,-1
 301 852 l 1,17,-1
 451 852 l 1,18,-1
 451 702 l 1,19,-1
 301 702 l 1,16,-1
601 702 m 1,20,-1
 601 852 l 1,21,-1
 751 852 l 1,22,-1
 751 702 l 1,23,-1
 601 702 l 1,20,-1
751 702 m 1,24,-1
 751 852 l 1,25,-1
 901 852 l 1,26,-1
 901 702 l 1,27,-1
 751 702 l 1,24,-1
451 552 m 1,28,-1
 451 702 l 1,29,-1
 601 702 l 1,30,-1
 601 552 l 1,31,-1
 451 552 l 1,28,-1
901 552 m 1,32,-1
 901 702 l 1,33,-1
 1051 702 l 1,34,-1
 1051 552 l 1,35,-1
 901 552 l 1,32,-1
901 402 m 1,36,-1
 901 552 l 1,37,-1
 1051 552 l 1,38,-1
 1051 402 l 1,39,-1
 901 402 l 1,36,-1
151 252 m 1,40,-1
 151 402 l 1,41,-1
 301 402 l 1,42,-1
 301 252 l 1,43,-1
 151 252 l 1,40,-1
901 252 m 1,44,-1
 901 402 l 1,45,-1
 1051 402 l 1,46,-1
 1051 252 l 1,47,-1
 901 252 l 1,44,-1
901 102 m 1,48,-1
 901 252 l 1,49,-1
 1051 252 l 1,50,-1
 1051 102 l 1,51,-1
 901 102 l 1,48,-1
451 -48 m 1,52,-1
 451 102 l 1,53,-1
 601 102 l 1,54,-1
 601 -48 l 1,55,-1
 451 -48 l 1,52,-1
901 -48 m 1,56,-1
 901 102 l 1,57,-1
 1051 102 l 1,58,-1
 1051 -48 l 1,59,-1
 901 -48 l 1,56,-1
151 -198 m 1,60,-1
 151 -48 l 1,61,-1
 301 -48 l 1,62,-1
 301 -198 l 1,63,-1
 151 -198 l 1,60,-1
301 -198 m 1,64,-1
 301 -48 l 1,65,-1
 451 -48 l 1,66,-1
 451 -198 l 1,67,-1
 301 -198 l 1,64,-1
601 -198 m 1,68,-1
 601 -48 l 1,69,-1
 751 -48 l 1,70,-1
 751 -198 l 1,71,-1
 601 -198 l 1,68,-1
751 -198 m 1,72,-1
 751 -48 l 1,73,-1
 901 -48 l 1,74,-1
 901 -198 l 1,75,-1
 751 -198 l 1,72,-1
EndSplineSet
Validated: 2053
EndChar

StartChar: M
Encoding: 77 77 48
Width: 1178
Flags: W
LayerCount: 2
Fore
SplineSet
-2 700 m 1,0,-1
 -2 850 l 1,1,-1
 148 850 l 1,2,-1
 148 700 l 1,3,-1
 -2 700 l 1,0,-1
-2 100 m 1,4,-1
 -2 250 l 1,5,-1
 148 250 l 1,6,-1
 148 100 l 1,7,-1
 -2 100 l 1,4,-1
-2 -50 m 1,8,-1
 -2 100 l 1,9,-1
 148 100 l 1,10,-1
 148 -50 l 1,11,-1
 -2 -50 l 1,8,-1
148 700 m 1,12,-1
 148 850 l 1,13,-1
 298 850 l 1,14,-1
 298 700 l 1,15,-1
 148 700 l 1,12,-1
298 550 m 1,16,-1
 298 700 l 1,17,-1
 448 700 l 1,18,-1
 448 550 l 1,19,-1
 298 550 l 1,16,-1
298 400 m 1,20,-1
 298 550 l 1,21,-1
 448 550 l 1,22,-1
 448 400 l 1,23,-1
 298 400 l 1,20,-1
148 250 m 1,24,-1
 148 400 l 1,25,-1
 298 400 l 1,26,-1
 298 250 l 1,27,-1
 148 250 l 1,24,-1
748 250 m 1,28,-1
 748 400 l 1,29,-1
 898 400 l 1,30,-1
 898 250 l 1,31,-1
 748 250 l 1,28,-1
898 100 m 1,32,-1
 898 250 l 1,33,-1
 1048 250 l 1,34,-1
 1048 100 l 1,35,-1
 898 100 l 1,32,-1
448 -50 m 1,36,-1
 448 100 l 1,37,-1
 598 100 l 1,38,-1
 598 -50 l 1,39,-1
 448 -50 l 1,36,-1
898 -50 m 1,40,-1
 898 100 l 1,41,-1
 1048 100 l 1,42,-1
 1048 -50 l 1,43,-1
 898 -50 l 1,40,-1
148 -200 m 1,44,-1
 148 -50 l 1,45,-1
 298 -50 l 1,46,-1
 298 -200 l 1,47,-1
 148 -200 l 1,44,-1
298 -200 m 1,48,-1
 298 -50 l 1,49,-1
 448 -50 l 1,50,-1
 448 -200 l 1,51,-1
 298 -200 l 1,48,-1
598 -200 m 1,52,-1
 598 -50 l 1,53,-1
 748 -50 l 1,54,-1
 748 -200 l 1,55,-1
 598 -200 l 1,52,-1
748 -200 m 1,56,-1
 748 -50 l 1,57,-1
 898 -50 l 1,58,-1
 898 -200 l 1,59,-1
 748 -200 l 1,56,-1
EndSplineSet
Validated: 2053
EndChar

StartChar: N
Encoding: 78 78 49
Width: 1172
Flags: W
LayerCount: 2
Fore
SplineSet
-2 701 m 1,0,-1
 -2 851 l 1,1,-1
 148 851 l 1,2,-1
 148 701 l 1,3,-1
 -2 701 l 1,0,-1
-2 101 m 1,4,-1
 -2 251 l 1,5,-1
 148 251 l 1,6,-1
 148 101 l 1,7,-1
 -2 101 l 1,4,-1
-2 -49 m 1,8,-1
 -2 101 l 1,9,-1
 148 101 l 1,10,-1
 148 -49 l 1,11,-1
 -2 -49 l 1,8,-1
148 1001 m 1,12,-1
 148 1151 l 1,13,-1
 298 1151 l 1,14,-1
 298 1001 l 1,15,-1
 148 1001 l 1,12,-1
148 851 m 1,16,-1
 148 1001 l 1,17,-1
 298 1001 l 1,18,-1
 298 851 l 1,19,-1
 148 851 l 1,16,-1
148 701 m 1,20,-1
 148 851 l 1,21,-1
 298 851 l 1,22,-1
 298 701 l 1,23,-1
 148 701 l 1,20,-1
298 551 m 1,24,-1
 298 701 l 1,25,-1
 448 701 l 1,26,-1
 448 551 l 1,27,-1
 298 551 l 1,24,-1
298 401 m 1,28,-1
 298 551 l 1,29,-1
 448 551 l 1,30,-1
 448 401 l 1,31,-1
 298 401 l 1,28,-1
148 251 m 1,32,-1
 148 401 l 1,33,-1
 298 401 l 1,34,-1
 298 251 l 1,35,-1
 148 251 l 1,32,-1
748 251 m 1,36,-1
 748 401 l 1,37,-1
 898 401 l 1,38,-1
 898 251 l 1,39,-1
 748 251 l 1,36,-1
898 101 m 1,40,-1
 898 251 l 1,41,-1
 1048 251 l 1,42,-1
 1048 101 l 1,43,-1
 898 101 l 1,40,-1
448 -49 m 1,44,-1
 448 101 l 1,45,-1
 598 101 l 1,46,-1
 598 -49 l 1,47,-1
 448 -49 l 1,44,-1
898 -49 m 1,48,-1
 898 101 l 1,49,-1
 1048 101 l 1,50,-1
 1048 -49 l 1,51,-1
 898 -49 l 1,48,-1
148 -199 m 1,52,-1
 148 -49 l 1,53,-1
 298 -49 l 1,54,-1
 298 -199 l 1,55,-1
 148 -199 l 1,52,-1
298 -199 m 1,56,-1
 298 -49 l 1,57,-1
 448 -49 l 1,58,-1
 448 -199 l 1,59,-1
 298 -199 l 1,56,-1
598 -199 m 1,60,-1
 598 -49 l 1,61,-1
 748 -49 l 1,62,-1
 748 -199 l 1,63,-1
 598 -199 l 1,60,-1
748 -199 m 1,64,-1
 748 -49 l 1,65,-1
 898 -49 l 1,66,-1
 898 -199 l 1,67,-1
 748 -199 l 1,64,-1
EndSplineSet
Validated: 2053
EndChar

StartChar: O
Encoding: 79 79 50
Width: 1175
Flags: W
LayerCount: 2
Fore
SplineSet
-1 1000 m 1,0,-1
 -1 1150 l 1,1,-1
 149 1150 l 1,2,-1
 149 1000 l 1,3,-1
 -1 1000 l 1,0,-1
-1 700 m 1,4,-1
 -1 850 l 1,5,-1
 149 850 l 1,6,-1
 149 700 l 1,7,-1
 -1 700 l 1,4,-1
-1 100 m 1,8,-1
 -1 250 l 1,9,-1
 149 250 l 1,10,-1
 149 100 l 1,11,-1
 -1 100 l 1,8,-1
-1 -50 m 1,12,-1
 -1 100 l 1,13,-1
 149 100 l 1,14,-1
 149 -50 l 1,15,-1
 -1 -50 l 1,12,-1
149 1000 m 1,16,-1
 149 1150 l 1,17,-1
 299 1150 l 1,18,-1
 299 1000 l 1,19,-1
 149 1000 l 1,16,-1
299 1000 m 1,20,-1
 299 1150 l 1,21,-1
 449 1150 l 1,22,-1
 449 1000 l 1,23,-1
 299 1000 l 1,20,-1
449 1000 m 1,24,-1
 449 1150 l 1,25,-1
 599 1150 l 1,26,-1
 599 1000 l 1,27,-1
 449 1000 l 1,24,-1
599 1000 m 1,28,-1
 599 1150 l 1,29,-1
 749 1150 l 1,30,-1
 749 1000 l 1,31,-1
 599 1000 l 1,28,-1
749 1000 m 1,32,-1
 749 1150 l 1,33,-1
 899 1150 l 1,34,-1
 899 1000 l 1,35,-1
 749 1000 l 1,32,-1
899 1000 m 1,36,-1
 899 1150 l 1,37,-1
 1049 1150 l 1,38,-1
 1049 1000 l 1,39,-1
 899 1000 l 1,36,-1
149 850 m 1,40,-1
 149 1000 l 1,41,-1
 299 1000 l 1,42,-1
 299 850 l 1,43,-1
 149 850 l 1,40,-1
899 850 m 1,44,-1
 899 1000 l 1,45,-1
 1049 1000 l 1,46,-1
 1049 850 l 1,47,-1
 899 850 l 1,44,-1
149 700 m 1,48,-1
 149 850 l 1,49,-1
 299 850 l 1,50,-1
 299 700 l 1,51,-1
 149 700 l 1,48,-1
749 700 m 1,52,-1
 749 850 l 1,53,-1
 899 850 l 1,54,-1
 899 700 l 1,55,-1
 749 700 l 1,52,-1
899 700 m 1,56,-1
 899 850 l 1,57,-1
 1049 850 l 1,58,-1
 1049 700 l 1,59,-1
 899 700 l 1,56,-1
299 550 m 1,60,-1
 299 700 l 1,61,-1
 449 700 l 1,62,-1
 449 550 l 1,63,-1
 299 550 l 1,60,-1
299 400 m 1,64,-1
 299 550 l 1,65,-1
 449 550 l 1,66,-1
 449 400 l 1,67,-1
 299 400 l 1,64,-1
149 250 m 1,68,-1
 149 400 l 1,69,-1
 299 400 l 1,70,-1
 299 250 l 1,71,-1
 149 250 l 1,68,-1
749 250 m 1,72,-1
 749 400 l 1,73,-1
 899 400 l 1,74,-1
 899 250 l 1,75,-1
 749 250 l 1,72,-1
899 100 m 1,76,-1
 899 250 l 1,77,-1
 1049 250 l 1,78,-1
 1049 100 l 1,79,-1
 899 100 l 1,76,-1
449 -50 m 1,80,-1
 449 100 l 1,81,-1
 599 100 l 1,82,-1
 599 -50 l 1,83,-1
 449 -50 l 1,80,-1
899 -50 m 1,84,-1
 899 100 l 1,85,-1
 1049 100 l 1,86,-1
 1049 -50 l 1,87,-1
 899 -50 l 1,84,-1
149 -200 m 1,88,-1
 149 -50 l 1,89,-1
 299 -50 l 1,90,-1
 299 -200 l 1,91,-1
 149 -200 l 1,88,-1
299 -200 m 1,92,-1
 299 -50 l 1,93,-1
 449 -50 l 1,94,-1
 449 -200 l 1,95,-1
 299 -200 l 1,92,-1
599 -200 m 1,96,-1
 599 -50 l 1,97,-1
 749 -50 l 1,98,-1
 749 -200 l 1,99,-1
 599 -200 l 1,96,-1
749 -200 m 1,100,-1
 749 -50 l 1,101,-1
 899 -50 l 1,102,-1
 899 -200 l 1,103,-1
 749 -200 l 1,100,-1
EndSplineSet
Validated: 2053
EndChar

StartChar: P
Encoding: 80 80 51
Width: 1176
Flags: W
LayerCount: 2
Fore
SplineSet
-1 700 m 1028,0,-1
149 700 m 1028,1,-1
149 700 m 1028,2,-1
149 700 m 1028,3,-1
149 700 m 1028,4,-1
299 700 m 1028,5,-1
299 700 m 1028,6,-1
449 700 m 1028,7,-1
599 700 m 5,8,-1
 449 700 l 1029,9,-1
599 700 m 1028,10,-1
749 700 m 1028,11,-1
899 700 m 1028,12,-1
1049 700 m 1028,13,-1
1049 700 m 1028,14,-1
449 550 m 5,15,-1
 449 700 l 5,16,-1
 599 700 l 5,17,-1
 599 550 l 5,18,-1
 449 550 l 5,15,-1
-1 700 m 5,19,-1
 -1 850 l 5,20,-1
 149 850 l 5,21,-1
 149 700 l 5,22,-1
 -1 700 l 5,19,-1
149 700 m 5,23,-1
 149 850 l 5,24,-1
 299 850 l 5,25,-1
 299 700 l 5,26,-1
 149 700 l 5,23,-1
299 700 m 5,27,-1
 299 850 l 5,28,-1
 449 850 l 5,29,-1
 449 700 l 5,30,-1
 299 700 l 5,27,-1
449 700 m 5,31,-1
 449 850 l 5,32,-1
 599 850 l 5,33,-1
 599 700 l 5,34,-1
 449 700 l 5,31,-1
599 700 m 5,35,-1
 599 850 l 5,36,-1
 749 850 l 5,37,-1
 749 700 l 5,38,-1
 599 700 l 5,35,-1
1049 700 m 1028,39,-1
1049 550 m 1028,40,-1
-1 400 m 5,41,-1
 -1 550 l 5,42,-1
 149 550 l 5,43,-1
 149 400 l 5,44,-1
 -1 400 l 5,41,-1
149 400 m 5,45,-1
 149 550 l 5,46,-1
 299 550 l 5,47,-1
 299 400 l 5,48,-1
 149 400 l 5,45,-1
299 400 m 5,49,-1
 299 550 l 5,50,-1
 449 550 l 5,51,-1
 449 400 l 5,52,-1
 299 400 l 5,49,-1
449 400 m 5,53,-1
 449 550 l 5,54,-1
 599 550 l 5,55,-1
 599 400 l 5,56,-1
 449 400 l 5,53,-1
599 400 m 5,57,-1
 599 550 l 5,58,-1
 749 550 l 5,59,-1
 749 400 l 5,60,-1
 599 400 l 5,57,-1
749 400 m 5,61,-1
 749 550 l 5,62,-1
 899 550 l 5,63,-1
 899 400 l 5,64,-1
 749 400 l 5,61,-1
899 400 m 5,65,-1
 899 550 l 5,66,-1
 1049 550 l 5,67,-1
 1049 400 l 5,68,-1
 899 400 l 5,65,-1
1049 550 m 1028,69,-1
1049 400 m 1028,70,-1
299 250 m 5,71,-1
 299 400 l 5,72,-1
 449 400 l 5,73,-1
 449 250 l 5,74,-1
 299 250 l 5,71,-1
449 250 m 5,75,-1
 449 400 l 5,76,-1
 599 400 l 5,77,-1
 599 250 l 5,78,-1
 449 250 l 5,75,-1
599 250 m 5,79,-1
 599 400 l 5,80,-1
 749 400 l 5,81,-1
 749 250 l 5,82,-1
 599 250 l 5,79,-1
1049 400 m 1028,83,-1
1049 250 m 1028,84,-1
1049 250 m 1028,85,-1
1049 100 m 1028,86,-1
149 100 m 5,87,-1
 149 250 l 5,88,-1
 299 250 l 5,89,-1
 299 100 l 5,90,-1
 149 100 l 5,87,-1
749 100 m 5,91,-1
 749 250 l 5,92,-1
 899 250 l 5,93,-1
 899 100 l 5,94,-1
 749 100 l 5,91,-1
149 -50 m 5,95,-1
 149 100 l 5,96,-1
 299 100 l 5,97,-1
 299 -50 l 5,98,-1
 149 -50 l 5,95,-1
749 -50 m 5,99,-1
 749 100 l 5,100,-1
 899 100 l 5,101,-1
 899 -50 l 5,102,-1
 749 -50 l 5,99,-1
1049 100 m 1028,103,-1
299 -200 m 5,104,-1
 299 -50 l 5,105,-1
 449 -50 l 5,106,-1
 449 -200 l 5,107,-1
 299 -200 l 5,104,-1
449 -200 m 5,108,-1
 449 -50 l 5,109,-1
 599 -50 l 5,110,-1
 599 -200 l 5,111,-1
 449 -200 l 5,108,-1
599 -200 m 5,112,-1
 599 -50 l 5,113,-1
 749 -50 l 5,114,-1
 749 -200 l 5,115,-1
 599 -200 l 5,112,-1
EndSplineSet
Validated: 2059
EndChar

StartChar: Q
Encoding: 81 81 52
Width: 1073
Flags: W
LayerCount: 2
Fore
SplineSet
150 999 m 1,0,-1
 150 1149 l 1,1,-1
 300 1149 l 1,2,-1
 300 999 l 1,3,-1
 150 999 l 1,0,-1
300 999 m 1,4,-1
 300 1149 l 1,5,-1
 450 1149 l 1,6,-1
 450 999 l 1,7,-1
 300 999 l 1,4,-1
450 999 m 1,8,-1
 450 1149 l 1,9,-1
 600 1149 l 1,10,-1
 600 999 l 1,11,-1
 450 999 l 1,8,-1
150 849 m 1,12,-1
 150 999 l 1,13,-1
 300 999 l 1,14,-1
 300 849 l 1,15,-1
 150 849 l 1,12,-1
450 849 m 1,16,-1
 450 999 l 1,17,-1
 600 999 l 1,18,-1
 600 849 l 1,19,-1
 450 849 l 1,16,-1
150 699 m 1,20,-1
 150 849 l 1,21,-1
 300 849 l 1,22,-1
 300 699 l 1,23,-1
 150 699 l 1,20,-1
300 699 m 1,24,-1
 300 849 l 1,25,-1
 450 849 l 1,26,-1
 450 699 l 1,27,-1
 300 699 l 1,24,-1
450 699 m 1,28,-1
 450 849 l 1,29,-1
 600 849 l 1,30,-1
 600 699 l 1,31,-1
 450 699 l 1,28,-1
150 699 m 1024,32,-1
150 699 m 1024,33,-1
150 699 m 1024,34,-1
150 699 m 1024,35,-1
300 699 m 1024,36,-1
300 699 m 1024,37,-1
450 699 m 1024,38,-1
600 699 m 1,39,-1
 450 699 l 1025,40,-1
600 699 m 1024,41,-1
450 549 m 1,42,-1
 450 699 l 1,43,-1
 600 699 l 1,44,-1
 600 549 l 1,45,-1
 450 549 l 1,42,-1
150 849 m 1,46,-1
 150 699 l 1025,47,-1
150 699 m 1,48,-1
 150 849 l 1,49,-1
 300 849 l 1,50,-1
 300 699 l 1,51,-1
 150 699 l 1,48,-1
300 699 m 1,52,-1
 300 849 l 1,53,-1
 450 849 l 1,54,-1
 450 699 l 1,55,-1
 300 699 l 1,52,-1
450 699 m 1,56,-1
 450 849 l 1,57,-1
 600 849 l 1,58,-1
 600 699 l 1,59,-1
 450 699 l 1,56,-1
600 699 m 1,60,-1
 600 849 l 1025,61,-1
1050 549 m 1024,62,-1
0 399 m 1,63,-1
 0 549 l 1,64,-1
 150 549 l 1,65,-1
 150 399 l 1,66,-1
 0 399 l 1,63,-1
150 399 m 1,67,-1
 150 549 l 1,68,-1
 300 549 l 1,69,-1
 300 399 l 1,70,-1
 150 399 l 1,67,-1
300 399 m 1,71,-1
 300 549 l 1,72,-1
 450 549 l 1,73,-1
 450 399 l 1,74,-1
 300 399 l 1,71,-1
450 399 m 1,75,-1
 450 549 l 1,76,-1
 600 549 l 1,77,-1
 600 399 l 1,78,-1
 450 399 l 1,75,-1
600 399 m 1,79,-1
 600 549 l 1,80,-1
 750 549 l 1,81,-1
 750 399 l 1,82,-1
 600 399 l 1,79,-1
750 399 m 1,83,-1
 750 549 l 1,84,-1
 900 549 l 1,85,-1
 900 399 l 1,86,-1
 750 399 l 1,83,-1
900 399 m 1,87,-1
 900 549 l 1,88,-1
 1050 549 l 1,89,-1
 1050 399 l 1,90,-1
 900 399 l 1,87,-1
1050 549 m 1024,91,-1
1050 399 m 1024,92,-1
300 249 m 1,93,-1
 300 399 l 1,94,-1
 450 399 l 1,95,-1
 450 249 l 1,96,-1
 300 249 l 1,93,-1
450 249 m 1,97,-1
 450 399 l 1,98,-1
 600 399 l 1,99,-1
 600 249 l 1,100,-1
 450 249 l 1,97,-1
600 249 m 1,101,-1
 600 399 l 1,102,-1
 750 399 l 1,103,-1
 750 249 l 1,104,-1
 600 249 l 1,101,-1
1050 399 m 1024,105,-1
150 99 m 1,106,-1
 150 249 l 1,107,-1
 300 249 l 1,108,-1
 300 99 l 1,109,-1
 150 99 l 1,106,-1
750 99 m 1,110,-1
 750 249 l 1,111,-1
 900 249 l 1,112,-1
 900 99 l 1,113,-1
 750 99 l 1,110,-1
150 -51 m 1,114,-1
 150 99 l 1,115,-1
 300 99 l 1,116,-1
 300 -51 l 1,117,-1
 150 -51 l 1,114,-1
750 -51 m 1,118,-1
 750 99 l 1,119,-1
 900 99 l 1,120,-1
 900 -51 l 1,121,-1
 750 -51 l 1,118,-1
300 -201 m 1,122,-1
 300 -51 l 1,123,-1
 450 -51 l 1,124,-1
 450 -201 l 1,125,-1
 300 -201 l 1,122,-1
450 -201 m 1,126,-1
 450 -51 l 1,127,-1
 600 -51 l 1,128,-1
 600 -201 l 1,129,-1
 450 -201 l 1,126,-1
600 -201 m 1,130,-1
 600 -51 l 1,131,-1
 750 -51 l 1,132,-1
 750 -201 l 1,133,-1
 600 -201 l 1,130,-1
EndSplineSet
Validated: 3083
EndChar

StartChar: R
Encoding: 82 82 53
Width: 1562
Flags: W
LayerCount: 2
Fore
SplineSet
450 702 m 1,0,-1
 450 852 l 1,1,-1
 600 852 l 1,2,-1
 600 702 l 1,3,-1
 450 702 l 1,0,-1
450 102 m 1,4,-1
 450 252 l 1,5,-1
 600 252 l 1,6,-1
 600 102 l 1,7,-1
 450 102 l 1,4,-1
450 -198 m 1,8,-1
 450 -48 l 1,9,-1
 600 -48 l 1,10,-1
 600 -198 l 1,11,-1
 450 -198 l 1,8,-1
1200 552 m 1,12,-1
 1200 702 l 1,13,-1
 1350 702 l 1,14,-1
 1350 552 l 1,15,-1
 1200 552 l 1,12,-1
1050 702 m 1,16,-1
 1050 852 l 1,17,-1
 1200 852 l 1,18,-1
 1200 702 l 1,19,-1
 1050 702 l 1,16,-1
600 402 m 1,20,-1
 600 552 l 1,21,-1
 750 552 l 1,22,-1
 750 402 l 1,23,-1
 600 402 l 1,20,-1
600 552 m 1,24,-1
 600 702 l 1,25,-1
 750 702 l 1,26,-1
 750 552 l 1,27,-1
 600 552 l 1,24,-1
1200 402 m 1,28,-1
 1200 552 l 1,29,-1
 1350 552 l 1,30,-1
 1350 402 l 1,31,-1
 1200 402 l 1,28,-1
600 252 m 1,32,-1
 600 402 l 1,33,-1
 750 402 l 1,34,-1
 750 252 l 1,35,-1
 600 252 l 1,32,-1
1200 252 m 1,36,-1
 1200 402 l 1,37,-1
 1350 402 l 1,38,-1
 1350 252 l 1,39,-1
 1200 252 l 1,36,-1
600 102 m 1,40,-1
 600 252 l 1,41,-1
 750 252 l 1,42,-1
 750 102 l 1,43,-1
 600 102 l 1,40,-1
1200 102 m 1,44,-1
 1200 252 l 1,45,-1
 1350 252 l 1,46,-1
 1350 102 l 1,47,-1
 1200 102 l 1,44,-1
600 -48 m 1,48,-1
 600 102 l 1,49,-1
 750 102 l 1,50,-1
 750 -48 l 1,51,-1
 600 -48 l 1,48,-1
1200 -48 m 1,52,-1
 1200 102 l 1,53,-1
 1350 102 l 1,54,-1
 1350 -48 l 1,55,-1
 1200 -48 l 1,52,-1
750 -198 m 1,56,-1
 750 -48 l 1,57,-1
 900 -48 l 1,58,-1
 900 -198 l 1,59,-1
 750 -198 l 1,56,-1
900 -198 m 1,60,-1
 900 -48 l 1,61,-1
 1050 -48 l 1,62,-1
 1050 -198 l 1,63,-1
 900 -198 l 1,60,-1
1050 -198 m 1,64,-1
 1050 -48 l 1,65,-1
 1200 -48 l 1,66,-1
 1200 -198 l 1,67,-1
 1050 -198 l 1,64,-1
300 702 m 1,68,-1
 300 852 l 1,69,-1
 450 852 l 1,70,-1
 450 702 l 1,71,-1
 300 702 l 1,68,-1
300 102 m 1,72,-1
 300 252 l 1,73,-1
 450 252 l 1,74,-1
 450 102 l 1,75,-1
 300 102 l 1,72,-1
300 -198 m 1,76,-1
 300 -48 l 1,77,-1
 450 -48 l 1,78,-1
 450 -198 l 1,79,-1
 300 -198 l 1,76,-1
150 702 m 1,80,-1
 150 852 l 1,81,-1
 300 852 l 1,82,-1
 300 702 l 1,83,-1
 150 702 l 1,80,-1
150 102 m 1,84,-1
 150 252 l 1,85,-1
 300 252 l 1,86,-1
 300 102 l 1,87,-1
 150 102 l 1,84,-1
150 -198 m 1,88,-1
 150 -48 l 1,89,-1
 300 -48 l 1,90,-1
 300 -198 l 1,91,-1
 150 -198 l 1,88,-1
0 102 m 1,92,-1
 0 252 l 1,93,-1
 150 252 l 1,94,-1
 150 102 l 1,95,-1
 0 102 l 1,92,-1
0 -48 m 1,96,-1
 0 102 l 1,97,-1
 150 102 l 1,98,-1
 150 -48 l 1,99,-1
 0 -48 l 1,96,-1
450 402 m 1,100,-1
 450 552 l 1,101,-1
 600 552 l 1,102,-1
 600 402 l 1,103,-1
 450 402 l 1,100,-1
300 402 m 1,104,-1
 300 552 l 1,105,-1
 450 552 l 1,106,-1
 450 402 l 1,107,-1
 300 402 l 1,104,-1
150 402 m 1,108,-1
 150 552 l 1,109,-1
 300 552 l 1,110,-1
 300 402 l 1,111,-1
 150 402 l 1,108,-1
0 402 m 1,112,-1
 0 552 l 1,113,-1
 150 552 l 1,114,-1
 150 402 l 1,115,-1
 0 402 l 1,112,-1
0 552 m 1,116,-1
 0 702 l 1,117,-1
 150 702 l 1,118,-1
 150 552 l 1,119,-1
 0 552 l 1,116,-1
EndSplineSet
Validated: 2053
EndChar

StartChar: S
Encoding: 83 83 54
Width: 1541
Flags: W
LayerCount: 2
Fore
SplineSet
450 702 m 1,0,-1
 450 852 l 1,1,-1
 600 852 l 1,2,-1
 600 702 l 1,3,-1
 450 702 l 1,0,-1
450 102 m 1,4,-1
 450 252 l 1,5,-1
 600 252 l 1,6,-1
 600 102 l 1,7,-1
 450 102 l 1,4,-1
450 -198 m 1,8,-1
 450 -48 l 1,9,-1
 600 -48 l 1,10,-1
 600 -198 l 1,11,-1
 450 -198 l 1,8,-1
1200 552 m 1,12,-1
 1200 702 l 1,13,-1
 1350 702 l 1,14,-1
 1350 552 l 1,15,-1
 1200 552 l 1,12,-1
1050 702 m 1,16,-1
 1050 852 l 1,17,-1
 1200 852 l 1,18,-1
 1200 702 l 1,19,-1
 1050 702 l 1,16,-1
900 702 m 1,20,-1
 900 852 l 1,21,-1
 1050 852 l 1,22,-1
 1050 702 l 1,23,-1
 900 702 l 1,20,-1
600 402 m 1,24,-1
 600 552 l 1,25,-1
 750 552 l 1,26,-1
 750 402 l 1,27,-1
 600 402 l 1,24,-1
600 552 m 1,28,-1
 600 702 l 1,29,-1
 750 702 l 1,30,-1
 750 552 l 1,31,-1
 600 552 l 1,28,-1
1200 402 m 1,32,-1
 1200 552 l 1,33,-1
 1350 552 l 1,34,-1
 1350 402 l 1,35,-1
 1200 402 l 1,32,-1
600 252 m 1,36,-1
 600 402 l 1,37,-1
 750 402 l 1,38,-1
 750 252 l 1,39,-1
 600 252 l 1,36,-1
1200 252 m 1,40,-1
 1200 402 l 1,41,-1
 1350 402 l 1,42,-1
 1350 252 l 1,43,-1
 1200 252 l 1,40,-1
600 102 m 1,44,-1
 600 252 l 1,45,-1
 750 252 l 1,46,-1
 750 102 l 1,47,-1
 600 102 l 1,44,-1
1200 102 m 1,48,-1
 1200 252 l 1,49,-1
 1350 252 l 1,50,-1
 1350 102 l 1,51,-1
 1200 102 l 1,48,-1
600 -48 m 1,52,-1
 600 102 l 1,53,-1
 750 102 l 1,54,-1
 750 -48 l 1,55,-1
 600 -48 l 1,52,-1
1200 -48 m 1,56,-1
 1200 102 l 1,57,-1
 1350 102 l 1,58,-1
 1350 -48 l 1,59,-1
 1200 -48 l 1,56,-1
750 -198 m 1,60,-1
 750 -48 l 1,61,-1
 900 -48 l 1,62,-1
 900 -198 l 1,63,-1
 750 -198 l 1,60,-1
900 -198 m 1,64,-1
 900 -48 l 1,65,-1
 1050 -48 l 1,66,-1
 1050 -198 l 1,67,-1
 900 -198 l 1,64,-1
1050 -198 m 1,68,-1
 1050 -48 l 1,69,-1
 1200 -48 l 1,70,-1
 1200 -198 l 1,71,-1
 1050 -198 l 1,68,-1
300 702 m 1,72,-1
 300 852 l 1,73,-1
 450 852 l 1,74,-1
 450 702 l 1,75,-1
 300 702 l 1,72,-1
300 102 m 1,76,-1
 300 252 l 1,77,-1
 450 252 l 1,78,-1
 450 102 l 1,79,-1
 300 102 l 1,76,-1
300 -198 m 1,80,-1
 300 -48 l 1,81,-1
 450 -48 l 1,82,-1
 450 -198 l 1,83,-1
 300 -198 l 1,80,-1
150 702 m 1,84,-1
 150 852 l 1,85,-1
 300 852 l 1,86,-1
 300 702 l 1,87,-1
 150 702 l 1,84,-1
150 102 m 1,88,-1
 150 252 l 1,89,-1
 300 252 l 1,90,-1
 300 102 l 1,91,-1
 150 102 l 1,88,-1
150 -198 m 1,92,-1
 150 -48 l 1,93,-1
 300 -48 l 1,94,-1
 300 -198 l 1,95,-1
 150 -198 l 1,92,-1
0 102 m 1,96,-1
 0 252 l 1,97,-1
 150 252 l 1,98,-1
 150 102 l 1,99,-1
 0 102 l 1,96,-1
0 -48 m 1,100,-1
 0 102 l 1,101,-1
 150 102 l 1,102,-1
 150 -48 l 1,103,-1
 0 -48 l 1,100,-1
450 402 m 1,104,-1
 450 552 l 1,105,-1
 600 552 l 1,106,-1
 600 402 l 1,107,-1
 450 402 l 1,104,-1
300 402 m 1,108,-1
 300 552 l 1,109,-1
 450 552 l 1,110,-1
 450 402 l 1,111,-1
 300 402 l 1,108,-1
150 402 m 1,112,-1
 150 552 l 1,113,-1
 300 552 l 1,114,-1
 300 402 l 1,115,-1
 150 402 l 1,112,-1
0 402 m 1,116,-1
 0 552 l 1,117,-1
 150 552 l 1,118,-1
 150 402 l 1,119,-1
 0 402 l 1,116,-1
0 552 m 1,120,-1
 0 702 l 1,121,-1
 150 702 l 1,122,-1
 150 552 l 1,123,-1
 0 552 l 1,120,-1
EndSplineSet
Validated: 3077
EndChar

StartChar: T
Encoding: 84 84 55
Width: 1557
Flags: W
LayerCount: 2
Fore
SplineSet
450 702 m 1,0,-1
 450 852 l 1,1,-1
 600 852 l 1,2,-1
 600 702 l 1,3,-1
 450 702 l 1,0,-1
450 102 m 1,4,-1
 450 252 l 1,5,-1
 600 252 l 1,6,-1
 600 102 l 1,7,-1
 450 102 l 1,4,-1
450 -198 m 1,8,-1
 450 -48 l 1,9,-1
 600 -48 l 1,10,-1
 600 -198 l 1,11,-1
 450 -198 l 1,8,-1
1200 552 m 1,12,-1
 1200 702 l 1,13,-1
 1350 702 l 1,14,-1
 1350 552 l 1,15,-1
 1200 552 l 1,12,-1
1050 702 m 1,16,-1
 1050 852 l 1,17,-1
 1200 852 l 1,18,-1
 1200 702 l 1,19,-1
 1050 702 l 1,16,-1
900 702 m 1,20,-1
 900 852 l 1,21,-1
 1050 852 l 1,22,-1
 1050 702 l 1,23,-1
 900 702 l 1,20,-1
900 552 m 1,24,-1
 900 702 l 1,25,-1
 1050 702 l 1,26,-1
 1050 552 l 1,27,-1
 900 552 l 1,24,-1
900 402 m 1,28,-1
 900 552 l 1,29,-1
 1050 552 l 1,30,-1
 1050 402 l 1,31,-1
 900 402 l 1,28,-1
1050 402 m 1,32,-1
 1050 552 l 1,33,-1
 1200 552 l 1,34,-1
 1200 402 l 1,35,-1
 1050 402 l 1,32,-1
600 402 m 1,36,-1
 600 552 l 1,37,-1
 750 552 l 1,38,-1
 750 402 l 1,39,-1
 600 402 l 1,36,-1
600 552 m 1,40,-1
 600 702 l 1,41,-1
 750 702 l 1,42,-1
 750 552 l 1,43,-1
 600 552 l 1,40,-1
1200 402 m 1,44,-1
 1200 552 l 1,45,-1
 1350 552 l 1,46,-1
 1350 402 l 1,47,-1
 1200 402 l 1,44,-1
600 252 m 1,48,-1
 600 402 l 1,49,-1
 750 402 l 1,50,-1
 750 252 l 1,51,-1
 600 252 l 1,48,-1
1200 252 m 1,52,-1
 1200 402 l 1,53,-1
 1350 402 l 1,54,-1
 1350 252 l 1,55,-1
 1200 252 l 1,52,-1
600 102 m 1,56,-1
 600 252 l 1,57,-1
 750 252 l 1,58,-1
 750 102 l 1,59,-1
 600 102 l 1,56,-1
1200 102 m 1,60,-1
 1200 252 l 1,61,-1
 1350 252 l 1,62,-1
 1350 102 l 1,63,-1
 1200 102 l 1,60,-1
600 -48 m 1,64,-1
 600 102 l 1,65,-1
 750 102 l 1,66,-1
 750 -48 l 1,67,-1
 600 -48 l 1,64,-1
1200 -48 m 1,68,-1
 1200 102 l 1,69,-1
 1350 102 l 1,70,-1
 1350 -48 l 1,71,-1
 1200 -48 l 1,68,-1
750 -198 m 1,72,-1
 750 -48 l 1,73,-1
 900 -48 l 1,74,-1
 900 -198 l 1,75,-1
 750 -198 l 1,72,-1
900 -198 m 1,76,-1
 900 -48 l 1,77,-1
 1050 -48 l 1,78,-1
 1050 -198 l 1,79,-1
 900 -198 l 1,76,-1
1050 -198 m 1,80,-1
 1050 -48 l 1,81,-1
 1200 -48 l 1,82,-1
 1200 -198 l 1,83,-1
 1050 -198 l 1,80,-1
300 702 m 1,84,-1
 300 852 l 1,85,-1
 450 852 l 1,86,-1
 450 702 l 1,87,-1
 300 702 l 1,84,-1
300 102 m 1,88,-1
 300 252 l 1,89,-1
 450 252 l 1,90,-1
 450 102 l 1,91,-1
 300 102 l 1,88,-1
300 -198 m 1,92,-1
 300 -48 l 1,93,-1
 450 -48 l 1,94,-1
 450 -198 l 1,95,-1
 300 -198 l 1,92,-1
150 702 m 1,96,-1
 150 852 l 1,97,-1
 300 852 l 1,98,-1
 300 702 l 1,99,-1
 150 702 l 1,96,-1
150 102 m 1,100,-1
 150 252 l 1,101,-1
 300 252 l 1,102,-1
 300 102 l 1,103,-1
 150 102 l 1,100,-1
150 -198 m 1,104,-1
 150 -48 l 1,105,-1
 300 -48 l 1,106,-1
 300 -198 l 1,107,-1
 150 -198 l 1,104,-1
0 102 m 1,108,-1
 0 252 l 1,109,-1
 150 252 l 1,110,-1
 150 102 l 1,111,-1
 0 102 l 1,108,-1
0 -48 m 1,112,-1
 0 102 l 1,113,-1
 150 102 l 1,114,-1
 150 -48 l 1,115,-1
 0 -48 l 1,112,-1
450 402 m 1,116,-1
 450 552 l 1,117,-1
 600 552 l 1,118,-1
 600 402 l 1,119,-1
 450 402 l 1,116,-1
300 402 m 1,120,-1
 300 552 l 1,121,-1
 450 552 l 1,122,-1
 450 402 l 1,123,-1
 300 402 l 1,120,-1
150 402 m 1,124,-1
 150 552 l 1,125,-1
 300 552 l 1,126,-1
 300 402 l 1,127,-1
 150 402 l 1,124,-1
0 402 m 1,128,-1
 0 552 l 1,129,-1
 150 552 l 1,130,-1
 150 402 l 1,131,-1
 0 402 l 1,128,-1
0 552 m 1,132,-1
 0 702 l 1,133,-1
 150 702 l 1,134,-1
 150 552 l 1,135,-1
 0 552 l 1,132,-1
EndSplineSet
Validated: 3077
EndChar

StartChar: U
Encoding: 85 85 56
Width: 1176
Flags: W
LayerCount: 2
Fore
SplineSet
306 555 m 5,0,-1
 306 705 l 5,1,-1
 456 705 l 5,2,-1
 456 555 l 5,3,-1
 306 555 l 5,0,-1
456 555 m 5,4,-1
 456 705 l 5,5,-1
 606 705 l 5,6,-1
 606 555 l 5,7,-1
 456 555 l 5,4,-1
606 555 m 5,8,-1
 606 705 l 5,9,-1
 756 705 l 5,10,-1
 756 555 l 5,11,-1
 606 555 l 5,8,-1
156 405 m 5,12,-1
 156 555 l 5,13,-1
 306 555 l 5,14,-1
 306 405 l 5,15,-1
 156 405 l 5,12,-1
756 405 m 5,16,-1
 756 555 l 5,17,-1
 906 555 l 5,18,-1
 906 405 l 5,19,-1
 756 405 l 5,16,-1
156 255 m 5,20,-1
 156 405 l 5,21,-1
 306 405 l 5,22,-1
 306 255 l 5,23,-1
 156 255 l 5,20,-1
756 255 m 5,24,-1
 756 405 l 5,25,-1
 906 405 l 5,26,-1
 906 255 l 5,27,-1
 756 255 l 5,24,-1
156 105 m 5,28,-1
 156 255 l 5,29,-1
 306 255 l 5,30,-1
 306 105 l 5,31,-1
 156 105 l 5,28,-1
756 105 m 5,32,-1
 756 255 l 5,33,-1
 906 255 l 5,34,-1
 906 105 l 5,35,-1
 756 105 l 5,32,-1
156 -45 m 5,36,-1
 156 105 l 5,37,-1
 306 105 l 5,38,-1
 306 -45 l 5,39,-1
 156 -45 l 5,36,-1
756 -45 m 5,40,-1
 756 105 l 5,41,-1
 906 105 l 5,42,-1
 906 -45 l 5,43,-1
 756 -45 l 5,40,-1
156 -195 m 5,44,-1
 156 -45 l 5,45,-1
 306 -45 l 5,46,-1
 306 -195 l 5,47,-1
 156 -195 l 5,44,-1
756 -195 m 5,48,-1
 756 -45 l 5,49,-1
 906 -45 l 5,50,-1
 906 -195 l 5,51,-1
 756 -195 l 5,48,-1
156 855 m 5,52,-1
 6 855 l 1029,53,-1
156 855 m 5,54,-1
 6 855 l 1029,55,-1
306 855 m 5,56,-1
 156 855 l 1029,57,-1
456 855 m 5,58,-1
 306 855 l 1029,59,-1
606 855 m 5,60,-1
 456 855 l 1029,61,-1
756 855 m 5,62,-1
 606 855 l 1029,63,-1
906 855 m 5,64,-1
 756 855 l 1029,65,-1
6 705 m 5,66,-1
 6 855 l 5,67,-1
 156 855 l 5,68,-1
 156 705 l 5,69,-1
 6 705 l 5,66,-1
156 705 m 5,70,-1
 156 855 l 5,71,-1
 306 855 l 5,72,-1
 306 705 l 5,73,-1
 156 705 l 5,70,-1
306 705 m 5,74,-1
 306 855 l 5,75,-1
 456 855 l 5,76,-1
 456 705 l 5,77,-1
 306 705 l 5,74,-1
456 705 m 5,78,-1
 456 855 l 5,79,-1
 606 855 l 5,80,-1
 606 705 l 5,81,-1
 456 705 l 5,78,-1
606 705 m 5,82,-1
 606 855 l 5,83,-1
 756 855 l 5,84,-1
 756 705 l 5,85,-1
 606 705 l 5,82,-1
756 705 m 5,86,-1
 756 855 l 5,87,-1
 906 855 l 5,88,-1
 906 705 l 5,89,-1
 756 705 l 5,86,-1
EndSplineSet
Validated: 2059
EndChar

StartChar: V
Encoding: 86 86 57
Width: 1176
Flags: W
LayerCount: 2
Fore
SplineSet
155 1000 m 1,0,-1
 155 1150 l 1,1,-1
 305 1150 l 1,2,-1
 305 1000 l 1,3,-1
 155 1000 l 1,0,-1
305 1000 m 1,4,-1
 305 1150 l 1,5,-1
 455 1150 l 1,6,-1
 455 1000 l 1,7,-1
 305 1000 l 1,4,-1
455 1000 m 1,8,-1
 455 1150 l 1,9,-1
 605 1150 l 1,10,-1
 605 1000 l 1,11,-1
 455 1000 l 1,8,-1
155 850 m 1,12,-1
 155 1000 l 1,13,-1
 305 1000 l 1,14,-1
 305 850 l 1,15,-1
 155 850 l 1,12,-1
455 850 m 1,16,-1
 455 1000 l 1,17,-1
 605 1000 l 1,18,-1
 605 850 l 1,19,-1
 455 850 l 1,16,-1
155 700 m 1,20,-1
 155 850 l 1,21,-1
 305 850 l 1,22,-1
 305 700 l 1,23,-1
 155 700 l 1,20,-1
305 700 m 1,24,-1
 305 850 l 1,25,-1
 455 850 l 1,26,-1
 455 700 l 1,27,-1
 305 700 l 1,24,-1
455 700 m 1,28,-1
 455 850 l 1,29,-1
 605 850 l 1,30,-1
 605 700 l 1,31,-1
 455 700 l 1,28,-1
305 550 m 1,32,-1
 305 700 l 1,33,-1
 455 700 l 1,34,-1
 455 550 l 1,35,-1
 305 550 l 1,32,-1
455 550 m 1,36,-1
 455 700 l 1,37,-1
 605 700 l 1,38,-1
 605 550 l 1,39,-1
 455 550 l 1,36,-1
605 550 m 1,40,-1
 605 700 l 1,41,-1
 755 700 l 1,42,-1
 755 550 l 1,43,-1
 605 550 l 1,40,-1
155 400 m 1,44,-1
 155 550 l 1,45,-1
 305 550 l 1,46,-1
 305 400 l 1,47,-1
 155 400 l 1,44,-1
755 400 m 1,48,-1
 755 550 l 1,49,-1
 905 550 l 1,50,-1
 905 400 l 1,51,-1
 755 400 l 1,48,-1
155 250 m 1,52,-1
 155 400 l 1,53,-1
 305 400 l 1,54,-1
 305 250 l 1,55,-1
 155 250 l 1,52,-1
755 250 m 1,56,-1
 755 400 l 1,57,-1
 905 400 l 1,58,-1
 905 250 l 1,59,-1
 755 250 l 1,56,-1
155 100 m 1,60,-1
 155 250 l 1,61,-1
 305 250 l 1,62,-1
 305 100 l 1,63,-1
 155 100 l 1,60,-1
755 100 m 1,64,-1
 755 250 l 1,65,-1
 905 250 l 1,66,-1
 905 100 l 1,67,-1
 755 100 l 1,64,-1
155 -50 m 1,68,-1
 155 100 l 1,69,-1
 305 100 l 1,70,-1
 305 -50 l 1,71,-1
 155 -50 l 1,68,-1
755 -50 m 1,72,-1
 755 100 l 1,73,-1
 905 100 l 1,74,-1
 905 -50 l 1,75,-1
 755 -50 l 1,72,-1
155 -200 m 1,76,-1
 155 -50 l 1,77,-1
 305 -50 l 1,78,-1
 305 -200 l 1,79,-1
 155 -200 l 1,76,-1
755 -200 m 1,80,-1
 755 -50 l 1,81,-1
 905 -50 l 1,82,-1
 905 -200 l 1,83,-1
 755 -200 l 1,80,-1
155 850 m 1025,84,-1
155 850 m 1025,85,-1
305 850 m 1,86,-1
 155 850 l 1025,87,-1
455 850 m 1,88,-1
 305 850 l 1025,89,-1
605 850 m 1,90,-1
 455 850 l 1025,91,-1
605 850 m 1025,92,-1
155 850 m 1,93,-1
 155 700 l 1025,94,-1
155 700 m 1,95,-1
 155 850 l 1,96,-1
 305 850 l 1,97,-1
 305 700 l 1,98,-1
 155 700 l 1,95,-1
305 700 m 1,99,-1
 305 850 l 1,100,-1
 455 850 l 1,101,-1
 455 700 l 1,102,-1
 305 700 l 1,99,-1
455 700 m 1,103,-1
 455 850 l 1,104,-1
 605 850 l 1,105,-1
 605 700 l 1,106,-1
 455 700 l 1,103,-1
755 700 m 1,107,-1
 605 700 l 1,108,-1
 605 850 l 1025,109,-1
755 700 m 1025,110,-1
EndSplineSet
Validated: 2059
EndChar

StartChar: W
Encoding: 87 87 58
Width: 1497
Flags: W
LayerCount: 2
Fore
SplineSet
-4 100 m 1,0,-1
 -4 250 l 1,1,-1
 146 250 l 1,2,-1
 146 100 l 1,3,-1
 -4 100 l 1,0,-1
-4 -50 m 1,4,-1
 -4 100 l 1,5,-1
 146 100 l 1,6,-1
 146 -50 l 1,7,-1
 -4 -50 l 1,4,-1
446 550 m 1,8,-1
 446 700 l 1,9,-1
 596 700 l 1,10,-1
 596 550 l 1,11,-1
 446 550 l 1,8,-1
446 700 m 1,12,-1
 446 850 l 1,13,-1
 596 850 l 1,14,-1
 596 700 l 1,15,-1
 446 700 l 1,12,-1
296 700 m 1,16,-1
 296 850 l 1,17,-1
 446 850 l 1,18,-1
 446 700 l 1,19,-1
 296 700 l 1,16,-1
146 700 m 1,20,-1
 146 850 l 1,21,-1
 296 850 l 1,22,-1
 296 700 l 1,23,-1
 146 700 l 1,20,-1
-4 700 m 1,24,-1
 -4 850 l 1,25,-1
 146 850 l 1,26,-1
 146 700 l 1,27,-1
 -4 700 l 1,24,-1
596 700 m 1,28,-1
 596 850 l 1,29,-1
 746 850 l 1,30,-1
 746 700 l 1,31,-1
 596 700 l 1,28,-1
1196 550 m 1,32,-1
 1196 700 l 1,33,-1
 1346 700 l 1,34,-1
 1346 550 l 1,35,-1
 1196 550 l 1,32,-1
746 400 m 1,36,-1
 746 550 l 1,37,-1
 896 550 l 1,38,-1
 896 400 l 1,39,-1
 746 400 l 1,36,-1
896 400 m 1,40,-1
 896 550 l 1,41,-1
 1046 550 l 1,42,-1
 1046 400 l 1,43,-1
 896 400 l 1,40,-1
1046 400 m 1,44,-1
 1046 550 l 1,45,-1
 1196 550 l 1,46,-1
 1196 400 l 1,47,-1
 1046 400 l 1,44,-1
896 250 m 1,48,-1
 896 400 l 1,49,-1
 1046 400 l 1,50,-1
 1046 250 l 1,51,-1
 896 250 l 1,48,-1
146 100 m 1,52,-1
 146 250 l 1,53,-1
 296 250 l 1,54,-1
 296 100 l 1,55,-1
 146 100 l 1,52,-1
446 100 m 1,56,-1
 446 250 l 1,57,-1
 596 250 l 1,58,-1
 596 100 l 1,59,-1
 446 100 l 1,56,-1
896 100 m 1,60,-1
 896 250 l 1,61,-1
 1046 250 l 1,62,-1
 1046 100 l 1,63,-1
 896 100 l 1,60,-1
446 -50 m 1,64,-1
 446 100 l 1,65,-1
 596 100 l 1,66,-1
 596 -50 l 1,67,-1
 446 -50 l 1,64,-1
896 -50 m 1,68,-1
 896 100 l 1,69,-1
 1046 100 l 1,70,-1
 1046 -50 l 1,71,-1
 896 -50 l 1,68,-1
146 -200 m 1,72,-1
 146 -50 l 1,73,-1
 296 -50 l 1,74,-1
 296 -200 l 1,75,-1
 146 -200 l 1,72,-1
296 -200 m 1,76,-1
 296 -50 l 1,77,-1
 446 -50 l 1,78,-1
 446 -200 l 1,79,-1
 296 -200 l 1,76,-1
596 -200 m 1,80,-1
 596 -50 l 1,81,-1
 746 -50 l 1,82,-1
 746 -200 l 1,83,-1
 596 -200 l 1,80,-1
746 -200 m 1,84,-1
 746 -50 l 1,85,-1
 896 -50 l 1,86,-1
 896 -200 l 1,87,-1
 746 -200 l 1,84,-1
446 -350 m 1,88,-1
 446 -200 l 1,89,-1
 596 -200 l 1,90,-1
 596 -350 l 1,91,-1
 446 -350 l 1,88,-1
446 -500 m 1,92,-1
 446 -350 l 1,93,-1
 596 -350 l 1,94,-1
 596 -500 l 1,95,-1
 446 -500 l 1,92,-1
EndSplineSet
Validated: 2053
EndChar

StartChar: X
Encoding: 88 88 59
Width: 1501
Flags: W
LayerCount: 2
Fore
SplineSet
-3 101 m 1,0,-1
 -3 251 l 1,1,-1
 147 251 l 1,2,-1
 147 101 l 1,3,-1
 -3 101 l 1,0,-1
-3 -49 m 1,4,-1
 -3 101 l 1,5,-1
 147 101 l 1,6,-1
 147 -49 l 1,7,-1
 -3 -49 l 1,4,-1
447 551 m 1,8,-1
 447 701 l 1,9,-1
 597 701 l 1,10,-1
 597 551 l 1,11,-1
 447 551 l 1,8,-1
447 701 m 1,12,-1
 447 851 l 1,13,-1
 597 851 l 1,14,-1
 597 701 l 1,15,-1
 447 701 l 1,12,-1
297 701 m 1,16,-1
 297 851 l 1,17,-1
 447 851 l 1,18,-1
 447 701 l 1,19,-1
 297 701 l 1,16,-1
147 701 m 1,20,-1
 147 851 l 1,21,-1
 297 851 l 1,22,-1
 297 701 l 1,23,-1
 147 701 l 1,20,-1
147 551 m 1,24,-1
 147 701 l 1,25,-1
 297 701 l 1,26,-1
 297 551 l 1,27,-1
 147 551 l 1,24,-1
147 401 m 1,28,-1
 147 551 l 1,29,-1
 297 551 l 1,30,-1
 297 401 l 1,31,-1
 147 401 l 1,28,-1
297 401 m 1,32,-1
 297 551 l 1,33,-1
 447 551 l 1,34,-1
 447 401 l 1,35,-1
 297 401 l 1,32,-1
1197 551 m 1,36,-1
 1197 701 l 1,37,-1
 1347 701 l 1,38,-1
 1347 551 l 1,39,-1
 1197 551 l 1,36,-1
747 401 m 1,40,-1
 747 551 l 1,41,-1
 897 551 l 1,42,-1
 897 401 l 1,43,-1
 747 401 l 1,40,-1
897 401 m 1,44,-1
 897 551 l 1,45,-1
 1047 551 l 1,46,-1
 1047 401 l 1,47,-1
 897 401 l 1,44,-1
1047 401 m 1,48,-1
 1047 551 l 1,49,-1
 1197 551 l 1,50,-1
 1197 401 l 1,51,-1
 1047 401 l 1,48,-1
897 251 m 1,52,-1
 897 401 l 1,53,-1
 1047 401 l 1,54,-1
 1047 251 l 1,55,-1
 897 251 l 1,52,-1
147 101 m 1,56,-1
 147 251 l 1,57,-1
 297 251 l 1,58,-1
 297 101 l 1,59,-1
 147 101 l 1,56,-1
447 101 m 1,60,-1
 447 251 l 1,61,-1
 597 251 l 1,62,-1
 597 101 l 1,63,-1
 447 101 l 1,60,-1
897 101 m 1,64,-1
 897 251 l 1,65,-1
 1047 251 l 1,66,-1
 1047 101 l 1,67,-1
 897 101 l 1,64,-1
447 -49 m 1,68,-1
 447 101 l 1,69,-1
 597 101 l 1,70,-1
 597 -49 l 1,71,-1
 447 -49 l 1,68,-1
897 -49 m 1,72,-1
 897 101 l 1,73,-1
 1047 101 l 1,74,-1
 1047 -49 l 1,75,-1
 897 -49 l 1,72,-1
147 -199 m 1,76,-1
 147 -49 l 1,77,-1
 297 -49 l 1,78,-1
 297 -199 l 1,79,-1
 147 -199 l 1,76,-1
297 -199 m 1,80,-1
 297 -49 l 1,81,-1
 447 -49 l 1,82,-1
 447 -199 l 1,83,-1
 297 -199 l 1,80,-1
597 -199 m 1,84,-1
 597 -49 l 1,85,-1
 747 -49 l 1,86,-1
 747 -199 l 1,87,-1
 597 -199 l 1,84,-1
747 -199 m 1,88,-1
 747 -49 l 1,89,-1
 897 -49 l 1,90,-1
 897 -199 l 1,91,-1
 747 -199 l 1,88,-1
447 -349 m 1,92,-1
 447 -199 l 1,93,-1
 597 -199 l 1,94,-1
 597 -349 l 1,95,-1
 447 -349 l 1,92,-1
447 -499 m 1,96,-1
 447 -349 l 1,97,-1
 597 -349 l 1,98,-1
 597 -499 l 1,99,-1
 447 -499 l 1,96,-1
EndSplineSet
Validated: 2053
EndChar

StartChar: Y
Encoding: 89 89 60
Width: 1520
Flags: W
LayerCount: 2
Fore
SplineSet
454 -198 m 1,0,-1
 454 -48 l 1,1,-1
 604 -48 l 1,2,-1
 604 -198 l 1,3,-1
 454 -198 l 1,0,-1
1054 552 m 1,4,-1
 1054 702 l 1,5,-1
 1204 702 l 1,6,-1
 1204 552 l 1,7,-1
 1054 552 l 1,4,-1
1054 702 m 1,8,-1
 1054 852 l 1,9,-1
 1204 852 l 1,10,-1
 1204 702 l 1,11,-1
 1054 702 l 1,8,-1
1054 402 m 1,12,-1
 1054 552 l 1,13,-1
 1204 552 l 1,14,-1
 1204 402 l 1,15,-1
 1054 402 l 1,12,-1
754 402 m 1,16,-1
 754 552 l 1,17,-1
 904 552 l 1,18,-1
 904 402 l 1,19,-1
 754 402 l 1,16,-1
604 552 m 1,20,-1
 604 702 l 1,21,-1
 754 702 l 1,22,-1
 754 552 l 1,23,-1
 604 552 l 1,20,-1
754 702 m 1,24,-1
 754 852 l 1,25,-1
 904 852 l 1,26,-1
 904 702 l 1,27,-1
 754 702 l 1,24,-1
904 702 m 1,28,-1
 904 852 l 1,29,-1
 1054 852 l 1,30,-1
 1054 702 l 1,31,-1
 904 702 l 1,28,-1
1204 102 m 1,32,-1
 1204 252 l 1,33,-1
 1354 252 l 1,34,-1
 1354 102 l 1,35,-1
 1204 102 l 1,32,-1
754 -48 m 1,36,-1
 754 102 l 1,37,-1
 904 102 l 1,38,-1
 904 -48 l 1,39,-1
 754 -48 l 1,36,-1
754 -198 m 1,40,-1
 754 -48 l 1,41,-1
 904 -48 l 1,42,-1
 904 -198 l 1,43,-1
 754 -198 l 1,40,-1
1204 -48 m 1,44,-1
 1204 102 l 1,45,-1
 1354 102 l 1,46,-1
 1354 -48 l 1,47,-1
 1204 -48 l 1,44,-1
454 -48 m 1,48,-1
 454 102 l 1,49,-1
 604 102 l 1,50,-1
 604 -48 l 1,51,-1
 454 -48 l 1,48,-1
604 102 m 1,52,-1
 604 252 l 1,53,-1
 754 252 l 1,54,-1
 754 102 l 1,55,-1
 604 102 l 1,52,-1
904 -198 m 1,56,-1
 904 -48 l 1,57,-1
 1054 -48 l 1,58,-1
 1054 -198 l 1,59,-1
 904 -198 l 1,56,-1
1054 -198 m 1,60,-1
 1054 -48 l 1,61,-1
 1204 -48 l 1,62,-1
 1204 -198 l 1,63,-1
 1054 -198 l 1,60,-1
454 702 m 1,64,-1
 454 852 l 1,65,-1
 604 852 l 1,66,-1
 604 702 l 1,67,-1
 454 702 l 1,64,-1
304 -198 m 1,68,-1
 304 -48 l 1,69,-1
 454 -48 l 1,70,-1
 454 -198 l 1,71,-1
 304 -198 l 1,68,-1
154 -198 m 1,72,-1
 154 -48 l 1,73,-1
 304 -48 l 1,74,-1
 304 -198 l 1,75,-1
 154 -198 l 1,72,-1
4 -48 m 1,76,-1
 4 102 l 1,77,-1
 154 102 l 1,78,-1
 154 -48 l 1,79,-1
 4 -48 l 1,76,-1
4 102 m 1,80,-1
 4 252 l 1,81,-1
 154 252 l 1,82,-1
 154 102 l 1,83,-1
 4 102 l 1,80,-1
154 102 m 1,84,-1
 154 252 l 1,85,-1
 304 252 l 1,86,-1
 304 102 l 1,87,-1
 154 102 l 1,84,-1
304 252 m 1,88,-1
 304 402 l 1,89,-1
 454 402 l 1,90,-1
 454 252 l 1,91,-1
 304 252 l 1,88,-1
454 402 m 1,92,-1
 454 552 l 1,93,-1
 604 552 l 1,94,-1
 604 402 l 1,95,-1
 454 402 l 1,92,-1
454 552 m 1,96,-1
 454 702 l 1,97,-1
 604 702 l 1,98,-1
 604 552 l 1,99,-1
 454 552 l 1,96,-1
304 702 m 1,100,-1
 304 852 l 1,101,-1
 454 852 l 1,102,-1
 454 702 l 1,103,-1
 304 702 l 1,100,-1
154 702 m 1,104,-1
 154 852 l 1,105,-1
 304 852 l 1,106,-1
 304 702 l 1,107,-1
 154 702 l 1,104,-1
4 552 m 1,108,-1
 4 702 l 1,109,-1
 154 702 l 1,110,-1
 154 552 l 1,111,-1
 4 552 l 1,108,-1
EndSplineSet
Validated: 2053
EndChar

StartChar: Z
Encoding: 90 90 61
Width: 1497
Flags: W
LayerCount: 2
Fore
SplineSet
600 102 m 1,0,-1
 600 252 l 1,1,-1
 750 252 l 1,2,-1
 750 102 l 1,3,-1
 600 102 l 1,0,-1
900 552 m 1,4,-1
 900 702 l 1,5,-1
 1050 702 l 1,6,-1
 1050 552 l 1,7,-1
 900 552 l 1,4,-1
900 702 m 1,8,-1
 900 852 l 1,9,-1
 1050 852 l 1,10,-1
 1050 702 l 1,11,-1
 900 702 l 1,8,-1
750 702 m 1,12,-1
 750 852 l 1,13,-1
 900 852 l 1,14,-1
 900 702 l 1,15,-1
 750 702 l 1,12,-1
1050 702 m 1,16,-1
 1050 852 l 1,17,-1
 1200 852 l 1,18,-1
 1200 702 l 1,19,-1
 1050 702 l 1,16,-1
750 402 m 1,20,-1
 750 552 l 1,21,-1
 900 552 l 1,22,-1
 900 402 l 1,23,-1
 750 402 l 1,20,-1
900 402 m 1,24,-1
 900 552 l 1,25,-1
 1050 552 l 1,26,-1
 1050 402 l 1,27,-1
 900 402 l 1,24,-1
1050 402 m 1,28,-1
 1050 552 l 1,29,-1
 1200 552 l 1,30,-1
 1200 402 l 1,31,-1
 1050 402 l 1,28,-1
1200 402 m 1,32,-1
 1200 552 l 1,33,-1
 1350 552 l 1,34,-1
 1350 402 l 1,35,-1
 1200 402 l 1,32,-1
1050 252 m 1,36,-1
 1050 402 l 1,37,-1
 1200 402 l 1,38,-1
 1200 252 l 1,39,-1
 1050 252 l 1,36,-1
1200 102 m 1,40,-1
 1200 252 l 1,41,-1
 1350 252 l 1,42,-1
 1350 102 l 1,43,-1
 1200 102 l 1,40,-1
750 -48 m 1,44,-1
 750 102 l 1,45,-1
 900 102 l 1,46,-1
 900 -48 l 1,47,-1
 750 -48 l 1,44,-1
1050 -198 m 1,48,-1
 1050 -48 l 1,49,-1
 1200 -48 l 1,50,-1
 1200 -198 l 1,51,-1
 1050 -198 l 1,48,-1
1200 -48 m 1,52,-1
 1200 102 l 1,53,-1
 1350 102 l 1,54,-1
 1350 -48 l 1,55,-1
 1200 -48 l 1,52,-1
750 -198 m 1,56,-1
 750 -48 l 1,57,-1
 900 -48 l 1,58,-1
 900 -198 l 1,59,-1
 750 -198 l 1,56,-1
900 -198 m 1,60,-1
 900 -48 l 1,61,-1
 1050 -48 l 1,62,-1
 1050 -198 l 1,63,-1
 900 -198 l 1,60,-1
450 402 m 1,64,-1
 450 552 l 1,65,-1
 600 552 l 1,66,-1
 600 402 l 1,67,-1
 450 402 l 1,64,-1
450 -198 m 1,68,-1
 450 -48 l 1,69,-1
 600 -48 l 1,70,-1
 600 -198 l 1,71,-1
 450 -198 l 1,68,-1
450 -48 m 1,72,-1
 450 102 l 1,73,-1
 600 102 l 1,74,-1
 600 -48 l 1,75,-1
 450 -48 l 1,72,-1
450 552 m 1,76,-1
 450 702 l 1,77,-1
 600 702 l 1,78,-1
 600 552 l 1,79,-1
 450 552 l 1,76,-1
300 702 m 1,80,-1
 300 852 l 1,81,-1
 450 852 l 1,82,-1
 450 702 l 1,83,-1
 300 702 l 1,80,-1
300 252 m 1,84,-1
 300 402 l 1,85,-1
 450 402 l 1,86,-1
 450 252 l 1,87,-1
 300 252 l 1,84,-1
300 -198 m 1,88,-1
 300 -48 l 1,89,-1
 450 -48 l 1,90,-1
 450 -198 l 1,91,-1
 300 -198 l 1,88,-1
150 702 m 1,92,-1
 150 852 l 1,93,-1
 300 852 l 1,94,-1
 300 702 l 1,95,-1
 150 702 l 1,92,-1
150 102 m 1,96,-1
 150 252 l 1,97,-1
 300 252 l 1,98,-1
 300 102 l 1,99,-1
 150 102 l 1,96,-1
150 -198 m 1,100,-1
 150 -48 l 1,101,-1
 300 -48 l 1,102,-1
 300 -198 l 1,103,-1
 150 -198 l 1,100,-1
0 552 m 1,104,-1
 0 702 l 1,105,-1
 150 702 l 1,106,-1
 150 552 l 1,107,-1
 0 552 l 1,104,-1
0 102 m 1,108,-1
 0 252 l 1,109,-1
 150 252 l 1,110,-1
 150 102 l 1,111,-1
 0 102 l 1,108,-1
0 -48 m 1,112,-1
 0 102 l 1,113,-1
 150 102 l 1,114,-1
 150 -48 l 1,115,-1
 0 -48 l 1,112,-1
EndSplineSet
Validated: 2053
EndChar

StartChar: bracketleft
Encoding: 91 91 62
Width: 266
Flags: W
LayerCount: 2
Fore
SplineSet
218 -102 m 1,0,-1
 48 -102 l 1,1,-1
 48 553 l 1,2,-1
 218 553 l 1,3,-1
 218 509 l 1,4,-1
 105 509 l 1,5,-1
 105 -59 l 1,6,-1
 218 -59 l 1,7,-1
 218 -102 l 1,0,-1
EndSplineSet
Validated: 1
EndChar

StartChar: backslash
Encoding: 92 92 63
Width: 378
Flags: W
LayerCount: 2
Fore
SplineSet
330 -101 m 1,0,-1
 275 -101 l 1,1,-1
 48 522 l 1,2,-1
 103 522 l 1,3,-1
 330 -101 l 1,0,-1
EndSplineSet
Validated: 1
EndChar

StartChar: bracketright
Encoding: 93 93 64
Width: 267
Flags: W
LayerCount: 2
Fore
SplineSet
219 -101 m 1,0,-1
 49 -101 l 1,1,-1
 49 -56 l 1,2,-1
 162 -56 l 1,3,-1
 162 506 l 1,4,-1
 49 506 l 1,5,-1
 49 553 l 1,6,-1
 219 553 l 1,7,-1
 219 -101 l 1,0,-1
EndSplineSet
Validated: 1
EndChar

StartChar: asciicircum
Encoding: 94 94 65
Width: 406
Flags: W
LayerCount: 2
Fore
SplineSet
357 352 m 1,0,-1
 317 352 l 1,1,-1
 206 543 l 1,2,-1
 93 352 l 1,3,-1
 50 352 l 1,4,-1
 200 600 l 1,5,-1
 209 600 l 1,6,-1
 357 352 l 1,0,-1
EndSplineSet
Validated: 1
EndChar

StartChar: underscore
Encoding: 95 95 66
Width: 529
Flags: W
LayerCount: 2
Fore
SplineSet
481 4 m 1,0,-1
 48 4 l 1,1,-1
 48 68 l 1,2,-1
 481 68 l 1,3,-1
 481 4 l 1,0,-1
EndSplineSet
Validated: 1
EndChar

StartChar: grave
Encoding: 96 96 67
Width: 236
Flags: W
LayerCount: 2
Fore
SplineSet
188 642 m 1,0,-1
 158 619 l 1,1,-1
 142 604 l 2,2,3
 92 557 92 557 92 527 c 2,4,-1
 92 519 l 1,5,-1
 126 524 l 1,6,7
 186 524 186 524 186 467 c 0,8,9
 186 417 186 417 118 417 c 0,10,11
 48 417 48 417 48 510 c 0,12,13
 48 557 48 557 90 604 c 0,14,15
 125 643 125 643 174 666 c 1,16,-1
 188 642 l 1,0,-1
EndSplineSet
Validated: 1
EndChar

StartChar: a
Encoding: 97 97 68
Width: 1501
Flags: W
LayerCount: 2
Fore
SplineSet
600 100 m 1,0,-1
 600 250 l 1,1,-1
 750 250 l 1,2,-1
 750 100 l 1,3,-1
 600 100 l 1,0,-1
1050 550 m 1,4,-1
 1050 700 l 1,5,-1
 1200 700 l 1,6,-1
 1200 550 l 1,7,-1
 1050 550 l 1,4,-1
1050 850 m 1,8,-1
 1050 1000 l 1,9,-1
 1200 1000 l 1,10,-1
 1200 850 l 1,11,-1
 1050 850 l 1,8,-1
900 850 m 1,12,-1
 900 1000 l 1,13,-1
 1050 1000 l 1,14,-1
 1050 850 l 1,15,-1
 900 850 l 1,12,-1
750 850 m 1,16,-1
 750 1000 l 1,17,-1
 900 1000 l 1,18,-1
 900 850 l 1,19,-1
 750 850 l 1,16,-1
750 700 m 1,20,-1
 750 850 l 1,21,-1
 900 850 l 1,22,-1
 900 700 l 1,23,-1
 750 700 l 1,20,-1
750 550 m 1,24,-1
 750 700 l 1,25,-1
 900 700 l 1,26,-1
 900 550 l 1,27,-1
 750 550 l 1,24,-1
1050 700 m 1,28,-1
 1050 850 l 1,29,-1
 1200 850 l 1,30,-1
 1200 700 l 1,31,-1
 1050 700 l 1,28,-1
900 250 m 1,32,-1
 900 400 l 1,33,-1
 1050 400 l 1,34,-1
 1050 250 l 1,35,-1
 900 250 l 1,32,-1
900 550 m 1,36,-1
 900 700 l 1,37,-1
 1050 700 l 1,38,-1
 1050 550 l 1,39,-1
 900 550 l 1,36,-1
1050 400 m 1,40,-1
 1050 550 l 1,41,-1
 1200 550 l 1,42,-1
 1200 400 l 1,43,-1
 1050 400 l 1,40,-1
1200 250 m 1,44,-1
 1200 400 l 1,45,-1
 1350 400 l 1,46,-1
 1350 250 l 1,47,-1
 1200 250 l 1,44,-1
1050 250 m 1,48,-1
 1050 400 l 1,49,-1
 1200 400 l 1,50,-1
 1200 250 l 1,51,-1
 1050 250 l 1,48,-1
1200 100 m 1,52,-1
 1200 250 l 1,53,-1
 1350 250 l 1,54,-1
 1350 100 l 1,55,-1
 1200 100 l 1,52,-1
750 -50 m 1,56,-1
 750 100 l 1,57,-1
 900 100 l 1,58,-1
 900 -50 l 1,59,-1
 750 -50 l 1,56,-1
1050 -200 m 1,60,-1
 1050 -50 l 1,61,-1
 1200 -50 l 1,62,-1
 1200 -200 l 1,63,-1
 1050 -200 l 1,60,-1
1200 -50 m 1,64,-1
 1200 100 l 1,65,-1
 1350 100 l 1,66,-1
 1350 -50 l 1,67,-1
 1200 -50 l 1,64,-1
750 -200 m 1,68,-1
 750 -50 l 1,69,-1
 900 -50 l 1,70,-1
 900 -200 l 1,71,-1
 750 -200 l 1,68,-1
900 -200 m 1,72,-1
 900 -50 l 1,73,-1
 1050 -50 l 1,74,-1
 1050 -200 l 1,75,-1
 900 -200 l 1,72,-1
450 400 m 1,76,-1
 450 550 l 1,77,-1
 600 550 l 1,78,-1
 600 400 l 1,79,-1
 450 400 l 1,76,-1
450 -200 m 1,80,-1
 450 -50 l 1,81,-1
 600 -50 l 1,82,-1
 600 -200 l 1,83,-1
 450 -200 l 1,80,-1
450 -50 m 1,84,-1
 450 100 l 1,85,-1
 600 100 l 1,86,-1
 600 -50 l 1,87,-1
 450 -50 l 1,84,-1
450 550 m 1,88,-1
 450 700 l 1,89,-1
 600 700 l 1,90,-1
 600 550 l 1,91,-1
 450 550 l 1,88,-1
300 700 m 1,92,-1
 300 850 l 1,93,-1
 450 850 l 1,94,-1
 450 700 l 1,95,-1
 300 700 l 1,92,-1
300 250 m 1,96,-1
 300 400 l 1,97,-1
 450 400 l 1,98,-1
 450 250 l 1,99,-1
 300 250 l 1,96,-1
300 -200 m 1,100,-1
 300 -50 l 1,101,-1
 450 -50 l 1,102,-1
 450 -200 l 1,103,-1
 300 -200 l 1,100,-1
150 700 m 1,104,-1
 150 850 l 1,105,-1
 300 850 l 1,106,-1
 300 700 l 1,107,-1
 150 700 l 1,104,-1
150 100 m 1,108,-1
 150 250 l 1,109,-1
 300 250 l 1,110,-1
 300 100 l 1,111,-1
 150 100 l 1,108,-1
150 -200 m 1,112,-1
 150 -50 l 1,113,-1
 300 -50 l 1,114,-1
 300 -200 l 1,115,-1
 150 -200 l 1,112,-1
0 550 m 1,116,-1
 0 700 l 1,117,-1
 150 700 l 1,118,-1
 150 550 l 1,119,-1
 0 550 l 1,116,-1
0 100 m 1,120,-1
 0 250 l 1,121,-1
 150 250 l 1,122,-1
 150 100 l 1,123,-1
 0 100 l 1,120,-1
0 -50 m 1,124,-1
 0 100 l 1,125,-1
 150 100 l 1,126,-1
 150 -50 l 1,127,-1
 0 -50 l 1,124,-1
EndSplineSet
Validated: 3077
EndChar

StartChar: b
Encoding: 98 98 69
Width: 1315
Flags: W
LayerCount: 2
Fore
SplineSet
-3 400 m 1,0,-1
 -3 550 l 1,1,-1
 147 550 l 1,2,-1
 147 400 l 1,3,-1
 -3 400 l 1,0,-1
-3 550 m 1,4,-1
 -3 700 l 1,5,-1
 147 700 l 1,6,-1
 147 550 l 1,7,-1
 -3 550 l 1,4,-1
147 700 m 1,8,-1
 147 850 l 1,9,-1
 297 850 l 1,10,-1
 297 700 l 1,11,-1
 147 700 l 1,8,-1
297 700 m 1,12,-1
 297 850 l 1,13,-1
 447 850 l 1,14,-1
 447 700 l 1,15,-1
 297 700 l 1,12,-1
297 550 m 1,16,-1
 297 700 l 1,17,-1
 447 700 l 1,18,-1
 447 550 l 1,19,-1
 297 550 l 1,16,-1
297 400 m 1,20,-1
 297 550 l 1,21,-1
 447 550 l 1,22,-1
 447 400 l 1,23,-1
 297 400 l 1,20,-1
147 400 m 1,24,-1
 147 550 l 1,25,-1
 297 550 l 1,26,-1
 297 400 l 1,27,-1
 147 400 l 1,24,-1
147 -200 m 1,28,-1
 147 -50 l 1,29,-1
 297 -50 l 1,30,-1
 297 -200 l 1,31,-1
 147 -200 l 1,28,-1
597 700 m 1,32,-1
 597 850 l 1,33,-1
 747 850 l 1,34,-1
 747 700 l 1,35,-1
 597 700 l 1,32,-1
747 700 m 1,36,-1
 747 850 l 1,37,-1
 897 850 l 1,38,-1
 897 700 l 1,39,-1
 747 700 l 1,36,-1
897 700 m 1,40,-1
 897 850 l 1,41,-1
 1047 850 l 1,42,-1
 1047 700 l 1,43,-1
 897 700 l 1,40,-1
897 400 m 1,44,-1
 897 550 l 1,45,-1
 1047 550 l 1,46,-1
 1047 400 l 1,47,-1
 897 400 l 1,44,-1
747 550 m 1,48,-1
 747 700 l 1,49,-1
 897 700 l 1,50,-1
 897 550 l 1,51,-1
 747 550 l 1,48,-1
897 250 m 1,52,-1
 897 400 l 1,53,-1
 1047 400 l 1,54,-1
 1047 250 l 1,55,-1
 897 250 l 1,52,-1
897 100 m 1,56,-1
 897 250 l 1,57,-1
 1047 250 l 1,58,-1
 1047 100 l 1,59,-1
 897 100 l 1,56,-1
447 -50 m 1,60,-1
 447 100 l 1,61,-1
 597 100 l 1,62,-1
 597 -50 l 1,63,-1
 447 -50 l 1,60,-1
897 -50 m 1,64,-1
 897 100 l 1,65,-1
 1047 100 l 1,66,-1
 1047 -50 l 1,67,-1
 897 -50 l 1,64,-1
297 -200 m 1,68,-1
 297 -50 l 1,69,-1
 447 -50 l 1,70,-1
 447 -200 l 1,71,-1
 297 -200 l 1,68,-1
597 -200 m 1,72,-1
 597 -50 l 1,73,-1
 747 -50 l 1,74,-1
 747 -200 l 1,75,-1
 597 -200 l 1,72,-1
747 -200 m 1,76,-1
 747 -50 l 1,77,-1
 897 -50 l 1,78,-1
 897 -200 l 1,79,-1
 747 -200 l 1,76,-1
447 -350 m 1,80,-1
 447 -200 l 1,81,-1
 597 -200 l 1,82,-1
 597 -350 l 1,83,-1
 447 -350 l 1,80,-1
447 -500 m 1,84,-1
 447 -350 l 1,85,-1
 597 -350 l 1,86,-1
 597 -500 l 1,87,-1
 447 -500 l 1,84,-1
-3 250 m 1,88,-1
 -3 400 l 1,89,-1
 147 400 l 1,90,-1
 147 250 l 1,91,-1
 -3 250 l 1,88,-1
-3 100 m 1,92,-1
 -3 250 l 1,93,-1
 147 250 l 1,94,-1
 147 100 l 1,95,-1
 -3 100 l 1,92,-1
-3 -50 m 1,96,-1
 -3 100 l 1,97,-1
 147 100 l 1,98,-1
 147 -50 l 1,99,-1
 -3 -50 l 1,96,-1
EndSplineSet
Validated: 2053
EndChar

StartChar: c
Encoding: 99 99 70
Width: 1250
Flags: W
LayerCount: 2
Fore
SplineSet
-2 400 m 1,0,-1
 -2 550 l 1,1,-1
 148 550 l 1,2,-1
 148 400 l 1,3,-1
 -2 400 l 1,0,-1
-2 550 m 1,4,-1
 -2 700 l 1,5,-1
 148 700 l 1,6,-1
 148 550 l 1,7,-1
 -2 550 l 1,4,-1
148 700 m 1,8,-1
 148 850 l 1,9,-1
 298 850 l 1,10,-1
 298 700 l 1,11,-1
 148 700 l 1,8,-1
298 700 m 1,12,-1
 298 850 l 1,13,-1
 448 850 l 1,14,-1
 448 700 l 1,15,-1
 298 700 l 1,12,-1
298 550 m 1,16,-1
 298 700 l 1,17,-1
 448 700 l 1,18,-1
 448 550 l 1,19,-1
 298 550 l 1,16,-1
298 400 m 1,20,-1
 298 550 l 1,21,-1
 448 550 l 1,22,-1
 448 400 l 1,23,-1
 298 400 l 1,20,-1
148 400 m 1,24,-1
 148 550 l 1,25,-1
 298 550 l 1,26,-1
 298 400 l 1,27,-1
 148 400 l 1,24,-1
148 -200 m 1,28,-1
 148 -50 l 1,29,-1
 298 -50 l 1,30,-1
 298 -200 l 1,31,-1
 148 -200 l 1,28,-1
598 700 m 1,32,-1
 598 850 l 1,33,-1
 748 850 l 1,34,-1
 748 700 l 1,35,-1
 598 700 l 1,32,-1
598 550 m 1,36,-1
 598 700 l 1,37,-1
 748 700 l 1,38,-1
 748 550 l 1,39,-1
 598 550 l 1,36,-1
598 400 m 1,40,-1
 598 550 l 1,41,-1
 748 550 l 1,42,-1
 748 400 l 1,43,-1
 598 400 l 1,40,-1
748 400 m 1,44,-1
 748 550 l 1,45,-1
 898 550 l 1,46,-1
 898 400 l 1,47,-1
 748 400 l 1,44,-1
748 700 m 1,48,-1
 748 850 l 1,49,-1
 898 850 l 1,50,-1
 898 700 l 1,51,-1
 748 700 l 1,48,-1
898 400 m 1,52,-1
 898 550 l 1,53,-1
 1048 550 l 1,54,-1
 1048 400 l 1,55,-1
 898 400 l 1,52,-1
898 550 m 1,56,-1
 898 700 l 1,57,-1
 1048 700 l 1,58,-1
 1048 550 l 1,59,-1
 898 550 l 1,56,-1
898 250 m 1,60,-1
 898 400 l 1,61,-1
 1048 400 l 1,62,-1
 1048 250 l 1,63,-1
 898 250 l 1,60,-1
898 100 m 1,64,-1
 898 250 l 1,65,-1
 1048 250 l 1,66,-1
 1048 100 l 1,67,-1
 898 100 l 1,64,-1
448 -50 m 1,68,-1
 448 100 l 1,69,-1
 598 100 l 1,70,-1
 598 -50 l 1,71,-1
 448 -50 l 1,68,-1
898 -50 m 1,72,-1
 898 100 l 1,73,-1
 1048 100 l 1,74,-1
 1048 -50 l 1,75,-1
 898 -50 l 1,72,-1
298 -200 m 1,76,-1
 298 -50 l 1,77,-1
 448 -50 l 1,78,-1
 448 -200 l 1,79,-1
 298 -200 l 1,76,-1
598 -200 m 1,80,-1
 598 -50 l 1,81,-1
 748 -50 l 1,82,-1
 748 -200 l 1,83,-1
 598 -200 l 1,80,-1
748 -200 m 1,84,-1
 748 -50 l 1,85,-1
 898 -50 l 1,86,-1
 898 -200 l 1,87,-1
 748 -200 l 1,84,-1
448 -350 m 1,88,-1
 448 -200 l 1,89,-1
 598 -200 l 1,90,-1
 598 -350 l 1,91,-1
 448 -350 l 1,88,-1
448 -500 m 1,92,-1
 448 -350 l 1,93,-1
 598 -350 l 1,94,-1
 598 -500 l 1,95,-1
 448 -500 l 1,92,-1
-2 250 m 1,96,-1
 -2 400 l 1,97,-1
 148 400 l 1,98,-1
 148 250 l 1,99,-1
 -2 250 l 1,96,-1
-2 100 m 1,100,-1
 -2 250 l 1,101,-1
 148 250 l 1,102,-1
 148 100 l 1,103,-1
 -2 100 l 1,100,-1
-2 -50 m 1,104,-1
 -2 100 l 1,105,-1
 148 100 l 1,106,-1
 148 -50 l 1,107,-1
 -2 -50 l 1,104,-1
EndSplineSet
Validated: 2053
EndChar

StartChar: d
Encoding: 100 100 71
Width: 1498
Flags: W
LayerCount: 2
Fore
SplineSet
450 -198 m 1,0,-1
 450 -48 l 1,1,-1
 600 -48 l 1,2,-1
 600 -198 l 1,3,-1
 450 -198 l 1,0,-1
1050 552 m 1,4,-1
 1050 702 l 1,5,-1
 1200 702 l 1,6,-1
 1200 552 l 1,7,-1
 1050 552 l 1,4,-1
1050 702 m 1,8,-1
 1050 852 l 1,9,-1
 1200 852 l 1,10,-1
 1200 702 l 1,11,-1
 1050 702 l 1,8,-1
1050 402 m 1,12,-1
 1050 552 l 1,13,-1
 1200 552 l 1,14,-1
 1200 402 l 1,15,-1
 1050 402 l 1,12,-1
600 402 m 1,16,-1
 600 552 l 1,17,-1
 750 552 l 1,18,-1
 750 402 l 1,19,-1
 600 402 l 1,16,-1
750 402 m 1,20,-1
 750 552 l 1,21,-1
 900 552 l 1,22,-1
 900 402 l 1,23,-1
 750 402 l 1,20,-1
900 402 m 1,24,-1
 900 552 l 1,25,-1
 1050 552 l 1,26,-1
 1050 402 l 1,27,-1
 900 402 l 1,24,-1
1200 102 m 1,28,-1
 1200 252 l 1,29,-1
 1350 252 l 1,30,-1
 1350 102 l 1,31,-1
 1200 102 l 1,28,-1
750 -48 m 1,32,-1
 750 102 l 1,33,-1
 900 102 l 1,34,-1
 900 -48 l 1,35,-1
 750 -48 l 1,32,-1
750 -198 m 1,36,-1
 750 -48 l 1,37,-1
 900 -48 l 1,38,-1
 900 -198 l 1,39,-1
 750 -198 l 1,36,-1
1200 -48 m 1,40,-1
 1200 102 l 1,41,-1
 1350 102 l 1,42,-1
 1350 -48 l 1,43,-1
 1200 -48 l 1,40,-1
450 -48 m 1,44,-1
 450 102 l 1,45,-1
 600 102 l 1,46,-1
 600 -48 l 1,47,-1
 450 -48 l 1,44,-1
600 102 m 1,48,-1
 600 252 l 1,49,-1
 750 252 l 1,50,-1
 750 102 l 1,51,-1
 600 102 l 1,48,-1
900 -198 m 1,52,-1
 900 -48 l 1,53,-1
 1050 -48 l 1,54,-1
 1050 -198 l 1,55,-1
 900 -198 l 1,52,-1
1050 -198 m 1,56,-1
 1050 -48 l 1,57,-1
 1200 -48 l 1,58,-1
 1200 -198 l 1,59,-1
 1050 -198 l 1,56,-1
450 702 m 1,60,-1
 450 852 l 1,61,-1
 600 852 l 1,62,-1
 600 702 l 1,63,-1
 450 702 l 1,60,-1
300 -198 m 1,64,-1
 300 -48 l 1,65,-1
 450 -48 l 1,66,-1
 450 -198 l 1,67,-1
 300 -198 l 1,64,-1
150 -198 m 1,68,-1
 150 -48 l 1,69,-1
 300 -48 l 1,70,-1
 300 -198 l 1,71,-1
 150 -198 l 1,68,-1
0 -48 m 1,72,-1
 0 102 l 1,73,-1
 150 102 l 1,74,-1
 150 -48 l 1,75,-1
 0 -48 l 1,72,-1
0 102 m 1,76,-1
 0 252 l 1,77,-1
 150 252 l 1,78,-1
 150 102 l 1,79,-1
 0 102 l 1,76,-1
150 102 m 1,80,-1
 150 252 l 1,81,-1
 300 252 l 1,82,-1
 300 102 l 1,83,-1
 150 102 l 1,80,-1
300 252 m 1,84,-1
 300 402 l 1,85,-1
 450 402 l 1,86,-1
 450 252 l 1,87,-1
 300 252 l 1,84,-1
450 402 m 1,88,-1
 450 552 l 1,89,-1
 600 552 l 1,90,-1
 600 402 l 1,91,-1
 450 402 l 1,88,-1
450 552 m 1,92,-1
 450 702 l 1,93,-1
 600 702 l 1,94,-1
 600 552 l 1,95,-1
 450 552 l 1,92,-1
300 702 m 1,96,-1
 300 852 l 1,97,-1
 450 852 l 1,98,-1
 450 702 l 1,99,-1
 300 702 l 1,96,-1
150 702 m 1,100,-1
 150 852 l 1,101,-1
 300 852 l 1,102,-1
 300 702 l 1,103,-1
 150 702 l 1,100,-1
0 552 m 1,104,-1
 0 702 l 1,105,-1
 150 702 l 1,106,-1
 150 552 l 1,107,-1
 0 552 l 1,104,-1
EndSplineSet
Validated: 2053
EndChar

StartChar: e
Encoding: 101 101 72
Width: 1503
Flags: W
LayerCount: 2
Fore
SplineSet
450 -198 m 5,0,-1
 450 -48 l 5,1,-1
 600 -48 l 5,2,-1
 600 -198 l 5,3,-1
 450 -198 l 5,0,-1
1050 552 m 5,4,-1
 1050 702 l 5,5,-1
 1200 702 l 5,6,-1
 1200 552 l 5,7,-1
 1050 552 l 5,4,-1
1050 702 m 5,8,-1
 1050 852 l 5,9,-1
 1200 852 l 5,10,-1
 1200 702 l 5,11,-1
 1050 702 l 5,8,-1
1050 402 m 5,12,-1
 1050 552 l 5,13,-1
 1200 552 l 5,14,-1
 1200 402 l 5,15,-1
 1050 402 l 5,12,-1
600 402 m 5,16,-1
 600 552 l 5,17,-1
 750 552 l 5,18,-1
 750 402 l 5,19,-1
 600 402 l 5,16,-1
750 402 m 5,20,-1
 750 552 l 5,21,-1
 900 552 l 5,22,-1
 900 402 l 5,23,-1
 750 402 l 5,20,-1
900 402 m 5,24,-1
 900 552 l 5,25,-1
 1050 552 l 5,26,-1
 1050 402 l 5,27,-1
 900 402 l 5,24,-1
1200 102 m 5,28,-1
 1200 252 l 5,29,-1
 1350 252 l 5,30,-1
 1350 102 l 5,31,-1
 1200 102 l 5,28,-1
750 -48 m 5,32,-1
 750 102 l 5,33,-1
 900 102 l 5,34,-1
 900 -48 l 5,35,-1
 750 -48 l 5,32,-1
750 -198 m 5,36,-1
 750 -48 l 5,37,-1
 900 -48 l 5,38,-1
 900 -198 l 5,39,-1
 750 -198 l 5,36,-1
1200 -48 m 5,40,-1
 1200 102 l 5,41,-1
 1350 102 l 5,42,-1
 1350 -48 l 5,43,-1
 1200 -48 l 5,40,-1
450 -48 m 5,44,-1
 450 102 l 5,45,-1
 600 102 l 5,46,-1
 600 -48 l 5,47,-1
 450 -48 l 5,44,-1
600 102 m 5,48,-1
 600 252 l 5,49,-1
 750 252 l 5,50,-1
 750 102 l 5,51,-1
 600 102 l 5,48,-1
900 -198 m 5,52,-1
 900 -48 l 5,53,-1
 1050 -48 l 5,54,-1
 1050 -198 l 5,55,-1
 900 -198 l 5,52,-1
1050 -198 m 5,56,-1
 1050 -48 l 5,57,-1
 1200 -48 l 5,58,-1
 1200 -198 l 5,59,-1
 1050 -198 l 5,56,-1
450 702 m 5,60,-1
 450 852 l 5,61,-1
 600 852 l 5,62,-1
 600 702 l 5,63,-1
 450 702 l 5,60,-1
300 -198 m 5,64,-1
 300 -48 l 5,65,-1
 450 -48 l 5,66,-1
 450 -198 l 5,67,-1
 300 -198 l 5,64,-1
150 -198 m 5,68,-1
 150 -48 l 5,69,-1
 300 -48 l 5,70,-1
 300 -198 l 5,71,-1
 150 -198 l 5,68,-1
0 -48 m 5,72,-1
 0 102 l 5,73,-1
 150 102 l 5,74,-1
 150 -48 l 5,75,-1
 0 -48 l 5,72,-1
0 102 m 5,76,-1
 0 252 l 5,77,-1
 150 252 l 5,78,-1
 150 102 l 5,79,-1
 0 102 l 5,76,-1
150 102 m 5,80,-1
 150 252 l 5,81,-1
 300 252 l 5,82,-1
 300 102 l 5,83,-1
 150 102 l 5,80,-1
300 252 m 5,84,-1
 300 402 l 5,85,-1
 450 402 l 5,86,-1
 450 252 l 5,87,-1
 300 252 l 5,84,-1
450 402 m 5,88,-1
 450 552 l 5,89,-1
 600 552 l 5,90,-1
 600 402 l 5,91,-1
 450 402 l 5,88,-1
450 552 m 5,92,-1
 450 702 l 5,93,-1
 600 702 l 5,94,-1
 600 552 l 5,95,-1
 450 552 l 5,92,-1
300 702 m 5,96,-1
 300 852 l 5,97,-1
 450 852 l 5,98,-1
 450 702 l 5,99,-1
 300 702 l 5,96,-1
150 702 m 5,100,-1
 150 852 l 5,101,-1
 300 852 l 5,102,-1
 300 702 l 5,103,-1
 150 702 l 5,100,-1
0 552 m 5,104,-1
 0 702 l 5,105,-1
 150 702 l 5,106,-1
 150 552 l 5,107,-1
 0 552 l 5,104,-1
EndSplineSet
Validated: 2053
EndChar

StartChar: f
Encoding: 102 102 73
Width: 1503
Flags: W
LayerCount: 2
Fore
SplineSet
450 -198 m 1,0,-1
 450 -48 l 1,1,-1
 600 -48 l 1,2,-1
 600 -198 l 1,3,-1
 450 -198 l 1,0,-1
1050 552 m 1,4,-1
 1050 702 l 1,5,-1
 1200 702 l 1,6,-1
 1200 552 l 1,7,-1
 1050 552 l 1,4,-1
1050 702 m 1,8,-1
 1050 852 l 1,9,-1
 1200 852 l 1,10,-1
 1200 702 l 1,11,-1
 1050 702 l 1,8,-1
900 702 m 1,12,-1
 900 852 l 1,13,-1
 1050 852 l 1,14,-1
 1050 702 l 1,15,-1
 900 702 l 1,12,-1
750 702 m 1,16,-1
 750 852 l 1,17,-1
 900 852 l 1,18,-1
 900 702 l 1,19,-1
 750 702 l 1,16,-1
750 552 m 1,20,-1
 750 702 l 1,21,-1
 900 702 l 1,22,-1
 900 552 l 1,23,-1
 750 552 l 1,20,-1
1050 402 m 1,24,-1
 1050 552 l 1,25,-1
 1200 552 l 1,26,-1
 1200 402 l 1,27,-1
 1050 402 l 1,24,-1
600 402 m 1,28,-1
 600 552 l 1,29,-1
 750 552 l 1,30,-1
 750 402 l 1,31,-1
 600 402 l 1,28,-1
750 402 m 1,32,-1
 750 552 l 1,33,-1
 900 552 l 1,34,-1
 900 402 l 1,35,-1
 750 402 l 1,32,-1
900 402 m 1,36,-1
 900 552 l 1,37,-1
 1050 552 l 1,38,-1
 1050 402 l 1,39,-1
 900 402 l 1,36,-1
1200 102 m 1,40,-1
 1200 252 l 1,41,-1
 1350 252 l 1,42,-1
 1350 102 l 1,43,-1
 1200 102 l 1,40,-1
750 -48 m 1,44,-1
 750 102 l 1,45,-1
 900 102 l 1,46,-1
 900 -48 l 1,47,-1
 750 -48 l 1,44,-1
750 -198 m 1,48,-1
 750 -48 l 1,49,-1
 900 -48 l 1,50,-1
 900 -198 l 1,51,-1
 750 -198 l 1,48,-1
1200 -48 m 1,52,-1
 1200 102 l 1,53,-1
 1350 102 l 1,54,-1
 1350 -48 l 1,55,-1
 1200 -48 l 1,52,-1
450 -48 m 1,56,-1
 450 102 l 1,57,-1
 600 102 l 1,58,-1
 600 -48 l 1,59,-1
 450 -48 l 1,56,-1
600 102 m 1,60,-1
 600 252 l 1,61,-1
 750 252 l 1,62,-1
 750 102 l 1,63,-1
 600 102 l 1,60,-1
900 -198 m 1,64,-1
 900 -48 l 1,65,-1
 1050 -48 l 1,66,-1
 1050 -198 l 1,67,-1
 900 -198 l 1,64,-1
1050 -198 m 1,68,-1
 1050 -48 l 1,69,-1
 1200 -48 l 1,70,-1
 1200 -198 l 1,71,-1
 1050 -198 l 1,68,-1
450 702 m 1,72,-1
 450 852 l 1,73,-1
 600 852 l 1,74,-1
 600 702 l 1,75,-1
 450 702 l 1,72,-1
300 -198 m 1,76,-1
 300 -48 l 1,77,-1
 450 -48 l 1,78,-1
 450 -198 l 1,79,-1
 300 -198 l 1,76,-1
150 -198 m 1,80,-1
 150 -48 l 1,81,-1
 300 -48 l 1,82,-1
 300 -198 l 1,83,-1
 150 -198 l 1,80,-1
0 -48 m 1,84,-1
 0 102 l 1,85,-1
 150 102 l 1,86,-1
 150 -48 l 1,87,-1
 0 -48 l 1,84,-1
0 102 m 1,88,-1
 0 252 l 1,89,-1
 150 252 l 1,90,-1
 150 102 l 1,91,-1
 0 102 l 1,88,-1
150 102 m 1,92,-1
 150 252 l 1,93,-1
 300 252 l 1,94,-1
 300 102 l 1,95,-1
 150 102 l 1,92,-1
300 252 m 1,96,-1
 300 402 l 1,97,-1
 450 402 l 1,98,-1
 450 252 l 1,99,-1
 300 252 l 1,96,-1
450 402 m 1,100,-1
 450 552 l 1,101,-1
 600 552 l 1,102,-1
 600 402 l 1,103,-1
 450 402 l 1,100,-1
450 552 m 1,104,-1
 450 702 l 1,105,-1
 600 702 l 1,106,-1
 600 552 l 1,107,-1
 450 552 l 1,104,-1
300 702 m 1,108,-1
 300 852 l 1,109,-1
 450 852 l 1,110,-1
 450 702 l 1,111,-1
 300 702 l 1,108,-1
150 702 m 1,112,-1
 150 852 l 1,113,-1
 300 852 l 1,114,-1
 300 702 l 1,115,-1
 150 702 l 1,112,-1
0 552 m 1,116,-1
 0 702 l 1,117,-1
 150 702 l 1,118,-1
 150 552 l 1,119,-1
 0 552 l 1,116,-1
EndSplineSet
Validated: 2053
EndChar

StartChar: g
Encoding: 103 103 74
Width: 1176
Flags: W
LayerCount: 2
Fore
SplineSet
300 700 m 5,0,-1
 300 850 l 5,1,-1
 450 850 l 5,2,-1
 450 700 l 5,3,-1
 300 700 l 5,0,-1
150 700 m 5,4,-1
 150 850 l 5,5,-1
 300 850 l 5,6,-1
 300 700 l 5,7,-1
 150 700 l 5,4,-1
0 700 m 5,8,-1
 0 850 l 5,9,-1
 150 850 l 5,10,-1
 150 700 l 5,11,-1
 0 700 l 5,8,-1
450 700 m 5,12,-1
 450 850 l 5,13,-1
 600 850 l 5,14,-1
 600 700 l 5,15,-1
 450 700 l 5,12,-1
600 700 m 5,16,-1
 600 850 l 5,17,-1
 750 850 l 5,18,-1
 750 700 l 5,19,-1
 600 700 l 5,16,-1
300 -200 m 5,20,-1
 300 -50 l 5,21,-1
 450 -50 l 5,22,-1
 450 -200 l 5,23,-1
 300 -200 l 5,20,-1
450 -200 m 5,24,-1
 450 -50 l 5,25,-1
 600 -50 l 5,26,-1
 600 -200 l 5,27,-1
 450 -200 l 5,24,-1
600 -200 m 5,28,-1
 600 -50 l 5,29,-1
 750 -50 l 5,30,-1
 750 -200 l 5,31,-1
 600 -200 l 5,28,-1
150 400 m 5,32,-1
 150 550 l 5,33,-1
 300 550 l 5,34,-1
 300 400 l 5,35,-1
 150 400 l 5,32,-1
150 550 m 5,36,-1
 150 700 l 5,37,-1
 300 700 l 5,38,-1
 300 550 l 5,39,-1
 150 550 l 5,36,-1
750 400 m 5,40,-1
 750 550 l 5,41,-1
 900 550 l 5,42,-1
 900 400 l 5,43,-1
 750 400 l 5,40,-1
750 550 m 5,44,-1
 750 700 l 5,45,-1
 900 700 l 5,46,-1
 900 550 l 5,47,-1
 750 550 l 5,44,-1
150 250 m 5,48,-1
 150 400 l 5,49,-1
 300 400 l 5,50,-1
 300 250 l 5,51,-1
 150 250 l 5,48,-1
750 250 m 5,52,-1
 750 400 l 5,53,-1
 900 400 l 5,54,-1
 900 250 l 5,55,-1
 750 250 l 5,52,-1
150 100 m 5,56,-1
 150 250 l 5,57,-1
 300 250 l 5,58,-1
 300 100 l 5,59,-1
 150 100 l 5,56,-1
750 100 m 5,60,-1
 750 250 l 5,61,-1
 900 250 l 5,62,-1
 900 100 l 5,63,-1
 750 100 l 5,60,-1
150 -50 m 5,64,-1
 150 100 l 5,65,-1
 300 100 l 5,66,-1
 300 -50 l 5,67,-1
 150 -50 l 5,64,-1
750 -50 m 5,68,-1
 750 100 l 5,69,-1
 900 100 l 5,70,-1
 900 -50 l 5,71,-1
 750 -50 l 5,68,-1
EndSplineSet
Validated: 2053
EndChar

StartChar: h
Encoding: 104 104 75
Width: 744
Flags: W
LayerCount: 2
Fore
SplineSet
-285 -50 m 1,0,-1
 -285 100 l 1,1,-1
 -135 100 l 1,2,-1
 -135 -50 l 1,3,-1
 -285 -50 l 1,0,-1
-135 -200 m 1,4,-1
 -135 -50 l 1,5,-1
 15 -50 l 1,6,-1
 15 -200 l 1,7,-1
 -135 -200 l 1,4,-1
15 700 m 1,8,-1
 15 850 l 1,9,-1
 165 850 l 1,10,-1
 165 700 l 1,11,-1
 15 700 l 1,8,-1
15 850 m 1,12,-1
 15 700 l 1025,13,-1
15 -200 m 1,14,-1
 15 -50 l 1,15,-1
 165 -50 l 1,16,-1
 165 -200 l 1,17,-1
 15 -200 l 1,14,-1
165 700 m 1,18,-1
 165 850 l 1,19,-1
 315 850 l 1,20,-1
 315 700 l 1,21,-1
 165 700 l 1,18,-1
165 -200 m 1,22,-1
 165 -50 l 1,23,-1
 315 -50 l 1,24,-1
 315 -200 l 1,25,-1
 165 -200 l 1,22,-1
315 -200 m 1,26,-1
 315 -50 l 1,27,-1
 465 -50 l 1,28,-1
 465 -200 l 1,29,-1
 315 -200 l 1,26,-1
315 -350 m 1,30,-1
 315 -200 l 1,31,-1
 465 -200 l 1,32,-1
 465 -350 l 1,33,-1
 315 -350 l 1,30,-1
315 -500 m 1,34,-1
 315 -350 l 1,35,-1
 465 -350 l 1,36,-1
 465 -500 l 1,37,-1
 315 -500 l 1,34,-1
315 -50 m 1,38,-1
 315 100 l 1,39,-1
 465 100 l 1,40,-1
 465 -50 l 1,41,-1
 315 -50 l 1,38,-1
315 550 m 1,42,-1
 315 700 l 1,43,-1
 465 700 l 1,44,-1
 465 550 l 1,45,-1
 315 550 l 1,42,-1
315 400 m 1,46,-1
 315 550 l 1,47,-1
 465 550 l 1,48,-1
 465 400 l 1,49,-1
 315 400 l 1,46,-1
315 250 m 1,50,-1
 315 400 l 1,51,-1
 465 400 l 1,52,-1
 465 250 l 1,53,-1
 315 250 l 1,50,-1
315 100 m 1,54,-1
 315 250 l 1,55,-1
 465 250 l 1,56,-1
 465 100 l 1,57,-1
 315 100 l 1,54,-1
EndSplineSet
Validated: 2059
EndChar

StartChar: i
Encoding: 105 105 76
Width: 898
Flags: W
LayerCount: 2
Fore
SplineSet
-128 -48 m 1,0,-1
 -128 102 l 1,1,-1
 22 102 l 1,2,-1
 22 -48 l 1,3,-1
 -128 -48 l 1,0,-1
22 -198 m 1,4,-1
 22 -48 l 1,5,-1
 172 -48 l 1,6,-1
 172 -198 l 1,7,-1
 22 -198 l 1,4,-1
172 702 m 1,8,-1
 172 852 l 1,9,-1
 322 852 l 1,10,-1
 322 702 l 1,11,-1
 172 702 l 1,8,-1
22 702 m 1,12,-1
 22 852 l 1,13,-1
 172 852 l 1,14,-1
 172 702 l 1,15,-1
 22 702 l 1,12,-1
172 -198 m 1,16,-1
 172 -48 l 1,17,-1
 322 -48 l 1,18,-1
 322 -198 l 1,19,-1
 172 -198 l 1,16,-1
322 702 m 1,20,-1
 322 852 l 1,21,-1
 472 852 l 1,22,-1
 472 702 l 1,23,-1
 322 702 l 1,20,-1
322 -198 m 1,24,-1
 322 -48 l 1,25,-1
 472 -48 l 1,26,-1
 472 -198 l 1,27,-1
 322 -198 l 1,24,-1
472 -48 m 1,28,-1
 472 102 l 1,29,-1
 622 102 l 1,30,-1
 622 -48 l 1,31,-1
 472 -48 l 1,28,-1
472 552 m 1,32,-1
 472 702 l 1,33,-1
 622 702 l 1,34,-1
 622 552 l 1,35,-1
 472 552 l 1,32,-1
472 402 m 1,36,-1
 472 552 l 1,37,-1
 622 552 l 1,38,-1
 622 402 l 1,39,-1
 472 402 l 1,36,-1
472 252 m 1,40,-1
 472 402 l 1,41,-1
 622 402 l 1,42,-1
 622 252 l 1,43,-1
 472 252 l 1,40,-1
472 102 m 1,44,-1
 472 252 l 1,45,-1
 622 252 l 1,46,-1
 622 102 l 1,47,-1
 472 102 l 1,44,-1
EndSplineSet
Validated: 2053
EndChar

StartChar: j
Encoding: 106 106 77
Width: 928
Flags: W
LayerCount: 2
Fore
SplineSet
150 702 m 1,0,-1
 150 852 l 1,1,-1
 300 852 l 1,2,-1
 300 702 l 1,3,-1
 150 702 l 1,0,-1
0 702 m 1,4,-1
 0 852 l 1,5,-1
 150 852 l 1,6,-1
 150 702 l 1,7,-1
 0 702 l 1,4,-1
150 402 m 1,8,-1
 150 552 l 1,9,-1
 300 552 l 1,10,-1
 300 402 l 1,11,-1
 150 402 l 1,8,-1
300 402 m 1,12,-1
 300 552 l 1,13,-1
 450 552 l 1,14,-1
 450 402 l 1,15,-1
 300 402 l 1,12,-1
450 402 m 1,16,-1
 450 552 l 1,17,-1
 600 552 l 1,18,-1
 600 402 l 1,19,-1
 450 402 l 1,16,-1
300 702 m 1,20,-1
 300 852 l 1,21,-1
 450 852 l 1,22,-1
 450 702 l 1,23,-1
 300 702 l 1,20,-1
450 702 m 1,24,-1
 450 852 l 1,25,-1
 600 852 l 1,26,-1
 600 702 l 1,27,-1
 450 702 l 1,24,-1
150 -198 m 1,28,-1
 150 -48 l 1,29,-1
 300 -48 l 1,30,-1
 300 -198 l 1,31,-1
 150 -198 l 1,28,-1
300 -198 m 1,32,-1
 300 -48 l 1,33,-1
 450 -48 l 1,34,-1
 450 -198 l 1,35,-1
 300 -198 l 1,32,-1
450 -198 m 1,36,-1
 450 -48 l 1,37,-1
 600 -48 l 1,38,-1
 600 -198 l 1,39,-1
 450 -198 l 1,36,-1
0 552 m 1,40,-1
 0 702 l 1,41,-1
 150 702 l 1,42,-1
 150 552 l 1,43,-1
 0 552 l 1,40,-1
600 402 m 1,44,-1
 600 552 l 1,45,-1
 750 552 l 1,46,-1
 750 402 l 1,47,-1
 600 402 l 1,44,-1
600 552 m 1,48,-1
 600 702 l 1,49,-1
 750 702 l 1,50,-1
 750 552 l 1,51,-1
 600 552 l 1,48,-1
0 252 m 1,52,-1
 0 402 l 1,53,-1
 150 402 l 1,54,-1
 150 252 l 1,55,-1
 0 252 l 1,52,-1
600 252 m 1,56,-1
 600 402 l 1,57,-1
 750 402 l 1,58,-1
 750 252 l 1,59,-1
 600 252 l 1,56,-1
0 102 m 1,60,-1
 0 252 l 1,61,-1
 150 252 l 1,62,-1
 150 102 l 1,63,-1
 0 102 l 1,60,-1
600 102 m 1,64,-1
 600 252 l 1,65,-1
 750 252 l 1,66,-1
 750 102 l 1,67,-1
 600 102 l 1,64,-1
0 -48 m 1,68,-1
 0 102 l 1,69,-1
 150 102 l 1,70,-1
 150 -48 l 1,71,-1
 0 -48 l 1,68,-1
600 -48 m 1,72,-1
 600 102 l 1,73,-1
 750 102 l 1,74,-1
 750 -48 l 1,75,-1
 600 -48 l 1,72,-1
EndSplineSet
Validated: 2053
EndChar

StartChar: k
Encoding: 107 107 78
Width: 1771
Flags: W
LayerCount: 2
Fore
SplineSet
-2 702 m 1,0,-1
 -2 852 l 1,1,-1
 148 852 l 1,2,-1
 148 702 l 1,3,-1
 -2 702 l 1,0,-1
-2 552 m 1,4,-1
 -2 702 l 1,5,-1
 148 702 l 1,6,-1
 148 552 l 1,7,-1
 -2 552 l 1,4,-1
-2 402 m 1,8,-1
 -2 552 l 1,9,-1
 148 552 l 1,10,-1
 148 402 l 1,11,-1
 -2 402 l 1,8,-1
148 702 m 1,12,-1
 148 852 l 1,13,-1
 298 852 l 1,14,-1
 298 702 l 1,15,-1
 148 702 l 1,12,-1
298 702 m 1,16,-1
 298 852 l 1,17,-1
 448 852 l 1,18,-1
 448 702 l 1,19,-1
 298 702 l 1,16,-1
448 702 m 1,20,-1
 448 852 l 1,21,-1
 598 852 l 1,22,-1
 598 702 l 1,23,-1
 448 702 l 1,20,-1
598 702 m 1,24,-1
 598 852 l 1,25,-1
 748 852 l 1,26,-1
 748 702 l 1,27,-1
 598 702 l 1,24,-1
748 702 m 1,28,-1
 748 852 l 1,29,-1
 898 852 l 1,30,-1
 898 702 l 1,31,-1
 748 702 l 1,28,-1
898 702 m 1,32,-1
 898 852 l 1,33,-1
 1048 852 l 1,34,-1
 1048 702 l 1,35,-1
 898 702 l 1,32,-1
448 552 m 1,36,-1
 448 702 l 1,37,-1
 598 702 l 1,38,-1
 598 552 l 1,39,-1
 448 552 l 1,36,-1
898 552 m 1,40,-1
 898 702 l 1,41,-1
 1048 702 l 1,42,-1
 1048 552 l 1,43,-1
 898 552 l 1,40,-1
1048 552 m 1,44,-1
 1048 702 l 1,45,-1
 1198 702 l 1,46,-1
 1198 552 l 1,47,-1
 1048 552 l 1,44,-1
1198 702 m 1,48,-1
 1198 852 l 1,49,-1
 1348 852 l 1,50,-1
 1348 702 l 1,51,-1
 1198 702 l 1,48,-1
1348 702 m 1,52,-1
 1348 852 l 1,53,-1
 1498 852 l 1,54,-1
 1498 702 l 1,55,-1
 1348 702 l 1,52,-1
1498 552 m 1,56,-1
 1498 702 l 1,57,-1
 1648 702 l 1,58,-1
 1648 552 l 1,59,-1
 1498 552 l 1,56,-1
1498 402 m 1,60,-1
 1498 552 l 1,61,-1
 1648 552 l 1,62,-1
 1648 402 l 1,63,-1
 1498 402 l 1,60,-1
148 402 m 1,64,-1
 148 552 l 1,65,-1
 298 552 l 1,66,-1
 298 402 l 1,67,-1
 148 402 l 1,64,-1
448 402 m 1,68,-1
 448 552 l 1,69,-1
 598 552 l 1,70,-1
 598 402 l 1,71,-1
 448 402 l 1,68,-1
898 402 m 1,72,-1
 898 552 l 1,73,-1
 1048 552 l 1,74,-1
 1048 402 l 1,75,-1
 898 402 l 1,72,-1
898 252 m 1,76,-1
 898 402 l 1,77,-1
 1048 402 l 1,78,-1
 1048 252 l 1,79,-1
 898 252 l 1,76,-1
298 102 m 1,80,-1
 298 252 l 1,81,-1
 448 252 l 1,82,-1
 448 102 l 1,83,-1
 298 102 l 1,80,-1
448 102 m 1,84,-1
 448 252 l 1,85,-1
 598 252 l 1,86,-1
 598 102 l 1,87,-1
 448 102 l 1,84,-1
598 102 m 1,88,-1
 598 252 l 1,89,-1
 748 252 l 1,90,-1
 748 102 l 1,91,-1
 598 102 l 1,88,-1
898 102 m 1,92,-1
 898 252 l 1,93,-1
 1048 252 l 1,94,-1
 1048 102 l 1,95,-1
 898 102 l 1,92,-1
148 -48 m 1,96,-1
 148 102 l 1,97,-1
 298 102 l 1,98,-1
 298 -48 l 1,99,-1
 148 -48 l 1,96,-1
748 -48 m 1,100,-1
 748 102 l 1,101,-1
 898 102 l 1,102,-1
 898 -48 l 1,103,-1
 748 -48 l 1,100,-1
298 -198 m 1,104,-1
 298 -48 l 1,105,-1
 448 -48 l 1,106,-1
 448 -198 l 1,107,-1
 298 -198 l 1,104,-1
448 -198 m 1,108,-1
 448 -48 l 1,109,-1
 598 -48 l 1,110,-1
 598 -198 l 1,111,-1
 448 -198 l 1,108,-1
598 -198 m 1,112,-1
 598 -48 l 1,113,-1
 748 -48 l 1,114,-1
 748 -198 l 1,115,-1
 598 -198 l 1,112,-1
898 -198 m 1,116,-1
 898 -48 l 1,117,-1
 1048 -48 l 1,118,-1
 1048 -198 l 1,119,-1
 898 -198 l 1,116,-1
1048 -198 m 1,120,-1
 1048 -48 l 1,121,-1
 1198 -48 l 1,122,-1
 1198 -198 l 1,123,-1
 1048 -198 l 1,120,-1
EndSplineSet
Validated: 3077
EndChar

StartChar: l
Encoding: 108 108 79
Width: 1199
Flags: W
LayerCount: 2
Fore
SplineSet
148 702 m 1,0,-1
 148 852 l 1,1,-1
 298 852 l 1,2,-1
 298 702 l 1,3,-1
 148 702 l 1,0,-1
148 252 m 1,4,-1
 148 402 l 1,5,-1
 298 402 l 1,6,-1
 298 252 l 1,7,-1
 148 252 l 1,4,-1
148 -198 m 1,8,-1
 148 -48 l 1,9,-1
 298 -48 l 1,10,-1
 298 -198 l 1,11,-1
 148 -198 l 1,8,-1
748 702 m 1,12,-1
 748 852 l 1,13,-1
 898 852 l 1,14,-1
 898 702 l 1,15,-1
 748 702 l 1,12,-1
898 552 m 1,16,-1
 898 702 l 1,17,-1
 1048 702 l 1,18,-1
 1048 552 l 1,19,-1
 898 552 l 1,16,-1
898 402 m 1,20,-1
 898 552 l 1,21,-1
 1048 552 l 1,22,-1
 1048 402 l 1,23,-1
 898 402 l 1,20,-1
448 102 m 1,24,-1
 448 252 l 1,25,-1
 598 252 l 1,26,-1
 598 102 l 1,27,-1
 448 102 l 1,24,-1
748 252 m 1,28,-1
 748 402 l 1,29,-1
 898 402 l 1,30,-1
 898 252 l 1,31,-1
 748 252 l 1,28,-1
448 -48 m 1,32,-1
 448 102 l 1,33,-1
 598 102 l 1,34,-1
 598 -48 l 1,35,-1
 448 -48 l 1,32,-1
898 -48 m 1,36,-1
 898 102 l 1,37,-1
 1048 102 l 1,38,-1
 1048 -48 l 1,39,-1
 898 -48 l 1,36,-1
898 102 m 1,40,-1
 898 252 l 1,41,-1
 1048 252 l 1,42,-1
 1048 102 l 1,43,-1
 898 102 l 1,40,-1
298 -198 m 1,44,-1
 298 -48 l 1,45,-1
 448 -48 l 1,46,-1
 448 -198 l 1,47,-1
 298 -198 l 1,44,-1
598 -198 m 1,48,-1
 598 -48 l 1,49,-1
 748 -48 l 1,50,-1
 748 -198 l 1,51,-1
 598 -198 l 1,48,-1
748 -198 m 1,52,-1
 748 -48 l 1,53,-1
 898 -48 l 1,54,-1
 898 -198 l 1,55,-1
 748 -198 l 1,52,-1
-2 552 m 1,56,-1
 -2 702 l 1,57,-1
 148 702 l 1,58,-1
 148 552 l 1,59,-1
 -2 552 l 1,56,-1
-2 402 m 1,60,-1
 -2 552 l 1,61,-1
 148 552 l 1,62,-1
 148 402 l 1,63,-1
 -2 402 l 1,60,-1
-2 -48 m 1,64,-1
 -2 102 l 1,65,-1
 148 102 l 1,66,-1
 148 -48 l 1,67,-1
 -2 -48 l 1,64,-1
-2 102 m 1,68,-1
 -2 252 l 1,69,-1
 148 252 l 1,70,-1
 148 102 l 1,71,-1
 -2 102 l 1,68,-1
EndSplineSet
Validated: 2053
EndChar

StartChar: m
Encoding: 109 109 80
Width: 1199
Flags: W
LayerCount: 2
Fore
SplineSet
149 702 m 1,0,-1
 149 852 l 1,1,-1
 299 852 l 1,2,-1
 299 702 l 1,3,-1
 149 702 l 1,0,-1
149 252 m 1,4,-1
 149 402 l 1,5,-1
 299 402 l 1,6,-1
 299 252 l 1,7,-1
 149 252 l 1,4,-1
149 -198 m 1,8,-1
 149 -48 l 1,9,-1
 299 -48 l 1,10,-1
 299 -198 l 1,11,-1
 149 -198 l 1,8,-1
599 702 m 1,12,-1
 599 852 l 1,13,-1
 749 852 l 1,14,-1
 749 702 l 1,15,-1
 599 702 l 1,12,-1
749 702 m 1,16,-1
 749 852 l 1,17,-1
 899 852 l 1,18,-1
 899 702 l 1,19,-1
 749 702 l 1,16,-1
899 552 m 1,20,-1
 899 702 l 1,21,-1
 1049 702 l 1,22,-1
 1049 552 l 1,23,-1
 899 552 l 1,20,-1
899 402 m 1,24,-1
 899 552 l 1,25,-1
 1049 552 l 1,26,-1
 1049 402 l 1,27,-1
 899 402 l 1,24,-1
449 102 m 1,28,-1
 449 252 l 1,29,-1
 599 252 l 1,30,-1
 599 102 l 1,31,-1
 449 102 l 1,28,-1
749 252 m 1,32,-1
 749 402 l 1,33,-1
 899 402 l 1,34,-1
 899 252 l 1,35,-1
 749 252 l 1,32,-1
449 -48 m 1,36,-1
 449 102 l 1,37,-1
 599 102 l 1,38,-1
 599 -48 l 1,39,-1
 449 -48 l 1,36,-1
899 -48 m 1,40,-1
 899 102 l 1,41,-1
 1049 102 l 1,42,-1
 1049 -48 l 1,43,-1
 899 -48 l 1,40,-1
899 102 m 1,44,-1
 899 252 l 1,45,-1
 1049 252 l 1,46,-1
 1049 102 l 1,47,-1
 899 102 l 1,44,-1
299 -198 m 1,48,-1
 299 -48 l 1,49,-1
 449 -48 l 1,50,-1
 449 -198 l 1,51,-1
 299 -198 l 1,48,-1
599 -198 m 1,52,-1
 599 -48 l 1,53,-1
 749 -48 l 1,54,-1
 749 -198 l 1,55,-1
 599 -198 l 1,52,-1
749 -198 m 1,56,-1
 749 -48 l 1,57,-1
 899 -48 l 1,58,-1
 899 -198 l 1,59,-1
 749 -198 l 1,56,-1
-1 552 m 1,60,-1
 -1 702 l 1,61,-1
 149 702 l 1,62,-1
 149 552 l 1,63,-1
 -1 552 l 1,60,-1
-1 402 m 1,64,-1
 -1 552 l 1,65,-1
 149 552 l 1,66,-1
 149 402 l 1,67,-1
 -1 402 l 1,64,-1
-1 -48 m 1,68,-1
 -1 102 l 1,69,-1
 149 102 l 1,70,-1
 149 -48 l 1,71,-1
 -1 -48 l 1,68,-1
-1 102 m 1,72,-1
 -1 252 l 1,73,-1
 149 252 l 1,74,-1
 149 102 l 1,75,-1
 -1 102 l 1,72,-1
EndSplineSet
Validated: 2053
EndChar

StartChar: n
Encoding: 110 110 81
Width: 1194
Flags: W
LayerCount: 2
Fore
SplineSet
150 702 m 1,0,-1
 150 852 l 1,1,-1
 300 852 l 1,2,-1
 300 702 l 1,3,-1
 150 702 l 1,0,-1
150 252 m 1,4,-1
 150 402 l 1,5,-1
 300 402 l 1,6,-1
 300 252 l 1,7,-1
 150 252 l 1,4,-1
150 -198 m 1,8,-1
 150 -48 l 1,9,-1
 300 -48 l 1,10,-1
 300 -198 l 1,11,-1
 150 -198 l 1,8,-1
750 702 m 1,12,-1
 750 852 l 1,13,-1
 900 852 l 1,14,-1
 900 702 l 1,15,-1
 750 702 l 1,12,-1
600 702 m 1,16,-1
 600 852 l 1,17,-1
 750 852 l 1,18,-1
 750 702 l 1,19,-1
 600 702 l 1,16,-1
600 552 m 1,20,-1
 600 702 l 1,21,-1
 750 702 l 1,22,-1
 750 552 l 1,23,-1
 600 552 l 1,20,-1
600 402 m 1,24,-1
 600 552 l 1,25,-1
 750 552 l 1,26,-1
 750 402 l 1,27,-1
 600 402 l 1,24,-1
750 402 m 1,28,-1
 750 552 l 1,29,-1
 900 552 l 1,30,-1
 900 402 l 1,31,-1
 750 402 l 1,28,-1
900 552 m 1,32,-1
 900 702 l 1,33,-1
 1050 702 l 1,34,-1
 1050 552 l 1,35,-1
 900 552 l 1,32,-1
900 402 m 1,36,-1
 900 552 l 1,37,-1
 1050 552 l 1,38,-1
 1050 402 l 1,39,-1
 900 402 l 1,36,-1
450 102 m 1,40,-1
 450 252 l 1,41,-1
 600 252 l 1,42,-1
 600 102 l 1,43,-1
 450 102 l 1,40,-1
750 252 m 1,44,-1
 750 402 l 1,45,-1
 900 402 l 1,46,-1
 900 252 l 1,47,-1
 750 252 l 1,44,-1
450 -48 m 1,48,-1
 450 102 l 1,49,-1
 600 102 l 1,50,-1
 600 -48 l 1,51,-1
 450 -48 l 1,48,-1
900 -48 m 1,52,-1
 900 102 l 1,53,-1
 1050 102 l 1,54,-1
 1050 -48 l 1,55,-1
 900 -48 l 1,52,-1
900 102 m 1,56,-1
 900 252 l 1,57,-1
 1050 252 l 1,58,-1
 1050 102 l 1,59,-1
 900 102 l 1,56,-1
300 -198 m 1,60,-1
 300 -48 l 1,61,-1
 450 -48 l 1,62,-1
 450 -198 l 1,63,-1
 300 -198 l 1,60,-1
600 -198 m 1,64,-1
 600 -48 l 1,65,-1
 750 -48 l 1,66,-1
 750 -198 l 1,67,-1
 600 -198 l 1,64,-1
750 -198 m 1,68,-1
 750 -48 l 1,69,-1
 900 -48 l 1,70,-1
 900 -198 l 1,71,-1
 750 -198 l 1,68,-1
0 552 m 1,72,-1
 0 702 l 1,73,-1
 150 702 l 1,74,-1
 150 552 l 1,75,-1
 0 552 l 1,72,-1
0 402 m 1,76,-1
 0 552 l 1,77,-1
 150 552 l 1,78,-1
 150 402 l 1,79,-1
 0 402 l 1,76,-1
0 -48 m 1,80,-1
 0 102 l 1,81,-1
 150 102 l 1,82,-1
 150 -48 l 1,83,-1
 0 -48 l 1,80,-1
0 102 m 1,84,-1
 0 252 l 1,85,-1
 150 252 l 1,86,-1
 150 102 l 1,87,-1
 0 102 l 1,84,-1
EndSplineSet
Validated: 2053
EndChar

StartChar: o
Encoding: 111 111 82
Width: 1076
Flags: W
LayerCount: 2
Fore
SplineSet
299 702 m 1,0,-1
 299 852 l 1,1,-1
 449 852 l 1,2,-1
 449 702 l 1,3,-1
 299 702 l 1,0,-1
149 702 m 1,4,-1
 149 852 l 1,5,-1
 299 852 l 1,6,-1
 299 702 l 1,7,-1
 149 702 l 1,4,-1
-1 702 m 1,8,-1
 -1 852 l 1,9,-1
 149 852 l 1,10,-1
 149 702 l 1,11,-1
 -1 702 l 1,8,-1
449 702 m 1,12,-1
 449 852 l 1,13,-1
 599 852 l 1,14,-1
 599 702 l 1,15,-1
 449 702 l 1,12,-1
599 702 m 1,16,-1
 599 852 l 1,17,-1
 749 852 l 1,18,-1
 749 702 l 1,19,-1
 599 702 l 1,16,-1
299 -198 m 1,20,-1
 299 -48 l 1,21,-1
 449 -48 l 1,22,-1
 449 -198 l 1,23,-1
 299 -198 l 1,20,-1
449 -198 m 1,24,-1
 449 -48 l 1,25,-1
 599 -48 l 1,26,-1
 599 -198 l 1,27,-1
 449 -198 l 1,24,-1
449 177 m 1,28,-1
 449 327 l 1,29,-1
 599 327 l 1,30,-1
 599 177 l 1,31,-1
 449 177 l 1,28,-1
599 -198 m 1,32,-1
 599 -48 l 1,33,-1
 749 -48 l 1,34,-1
 749 -198 l 1,35,-1
 599 -198 l 1,32,-1
149 402 m 1,36,-1
 149 552 l 1,37,-1
 299 552 l 1,38,-1
 299 402 l 1,39,-1
 149 402 l 1,36,-1
299 552 m 1,40,-1
 299 702 l 1,41,-1
 449 702 l 1,42,-1
 449 552 l 1,43,-1
 299 552 l 1,40,-1
749 402 m 1,44,-1
 749 552 l 1,45,-1
 899 552 l 1,46,-1
 899 402 l 1,47,-1
 749 402 l 1,44,-1
599 552 m 1,48,-1
 599 702 l 1,49,-1
 749 702 l 1,50,-1
 749 552 l 1,51,-1
 599 552 l 1,48,-1
149 252 m 1,52,-1
 149 402 l 1,53,-1
 299 402 l 1,54,-1
 299 252 l 1,55,-1
 149 252 l 1,52,-1
749 252 m 1,56,-1
 749 402 l 1,57,-1
 899 402 l 1,58,-1
 899 252 l 1,59,-1
 749 252 l 1,56,-1
149 102 m 1,60,-1
 149 252 l 1,61,-1
 299 252 l 1,62,-1
 299 102 l 1,63,-1
 149 102 l 1,60,-1
749 102 m 1,64,-1
 749 252 l 1,65,-1
 899 252 l 1,66,-1
 899 102 l 1,67,-1
 749 102 l 1,64,-1
149 -48 m 1,68,-1
 149 102 l 1,69,-1
 299 102 l 1,70,-1
 299 -48 l 1,71,-1
 149 -48 l 1,68,-1
749 -48 m 1,72,-1
 749 102 l 1,73,-1
 899 102 l 1,74,-1
 899 -48 l 1,75,-1
 749 -48 l 1,72,-1
EndSplineSet
Validated: 2053
EndChar

StartChar: p
Encoding: 112 112 83
Width: 912
Flags: W
LayerCount: 2
Fore
SplineSet
149 702 m 1,0,-1
 149 852 l 1,1,-1
 299 852 l 1,2,-1
 299 702 l 1,3,-1
 149 702 l 1,0,-1
-1 702 m 1,4,-1
 -1 852 l 1,5,-1
 149 852 l 1,6,-1
 149 702 l 1,7,-1
 -1 702 l 1,4,-1
149 402 m 1,8,-1
 149 552 l 1,9,-1
 299 552 l 1,10,-1
 299 402 l 1,11,-1
 149 402 l 1,8,-1
299 402 m 1,12,-1
 299 552 l 1,13,-1
 449 552 l 1,14,-1
 449 402 l 1,15,-1
 299 402 l 1,12,-1
449 402 m 1,16,-1
 449 552 l 1,17,-1
 599 552 l 1,18,-1
 599 402 l 1,19,-1
 449 402 l 1,16,-1
299 702 m 1,20,-1
 299 852 l 1,21,-1
 449 852 l 1,22,-1
 449 702 l 1,23,-1
 299 702 l 1,20,-1
449 702 m 1,24,-1
 449 852 l 1,25,-1
 599 852 l 1,26,-1
 599 702 l 1,27,-1
 449 702 l 1,24,-1
149 -198 m 1,28,-1
 149 -48 l 1,29,-1
 299 -48 l 1,30,-1
 299 -198 l 1,31,-1
 149 -198 l 1,28,-1
299 -198 m 1,32,-1
 299 -48 l 1,33,-1
 449 -48 l 1,34,-1
 449 -198 l 1,35,-1
 299 -198 l 1,32,-1
299 177 m 1,36,-1
 299 327 l 1,37,-1
 449 327 l 1,38,-1
 449 177 l 1,39,-1
 299 177 l 1,36,-1
449 -198 m 1,40,-1
 449 -48 l 1,41,-1
 599 -48 l 1,42,-1
 599 -198 l 1,43,-1
 449 -198 l 1,40,-1
-1 402 m 1,44,-1
 -1 552 l 1,45,-1
 149 552 l 1,46,-1
 149 402 l 1,47,-1
 -1 402 l 1,44,-1
-1 552 m 1,48,-1
 -1 702 l 1,49,-1
 149 702 l 1,50,-1
 149 552 l 1,51,-1
 -1 552 l 1,48,-1
599 402 m 1,52,-1
 599 552 l 1,53,-1
 749 552 l 1,54,-1
 749 402 l 1,55,-1
 599 402 l 1,52,-1
599 552 m 1,56,-1
 599 702 l 1,57,-1
 749 702 l 1,58,-1
 749 552 l 1,59,-1
 599 552 l 1,56,-1
-1 252 m 1,60,-1
 -1 402 l 1,61,-1
 149 402 l 1,62,-1
 149 252 l 1,63,-1
 -1 252 l 1,60,-1
599 252 m 1,64,-1
 599 402 l 1,65,-1
 749 402 l 1,66,-1
 749 252 l 1,67,-1
 599 252 l 1,64,-1
-1 102 m 1,68,-1
 -1 252 l 1,69,-1
 149 252 l 1,70,-1
 149 102 l 1,71,-1
 -1 102 l 1,68,-1
599 102 m 1,72,-1
 599 252 l 1,73,-1
 749 252 l 1,74,-1
 749 102 l 1,75,-1
 599 102 l 1,72,-1
-1 -48 m 1,76,-1
 -1 102 l 1,77,-1
 149 102 l 1,78,-1
 149 -48 l 1,79,-1
 -1 -48 l 1,76,-1
599 -48 m 1,80,-1
 599 102 l 1,81,-1
 749 102 l 1,82,-1
 749 -48 l 1,83,-1
 599 -48 l 1,80,-1
EndSplineSet
Validated: 2053
EndChar

StartChar: q
Encoding: 113 113 84
Width: 1076
Flags: W
LayerCount: 2
Fore
SplineSet
300 700 m 1,0,-1
 300 850 l 1,1,-1
 450 850 l 1,2,-1
 450 700 l 1,3,-1
 300 700 l 1,0,-1
150 700 m 1,4,-1
 150 850 l 1,5,-1
 300 850 l 1,6,-1
 300 700 l 1,7,-1
 150 700 l 1,4,-1
0 700 m 1,8,-1
 0 850 l 1,9,-1
 150 850 l 1,10,-1
 150 700 l 1,11,-1
 0 700 l 1,8,-1
450 700 m 1,12,-1
 450 850 l 1,13,-1
 600 850 l 1,14,-1
 600 700 l 1,15,-1
 450 700 l 1,12,-1
600 700 m 1,16,-1
 600 850 l 1,17,-1
 750 850 l 1,18,-1
 750 700 l 1,19,-1
 600 700 l 1,16,-1
300 -200 m 1,20,-1
 300 -50 l 1,21,-1
 450 -50 l 1,22,-1
 450 -200 l 1,23,-1
 300 -200 l 1,20,-1
150 -200 m 1,24,-1
 150 -50 l 1,25,-1
 300 -50 l 1,26,-1
 300 -200 l 1,27,-1
 150 -200 l 1,24,-1
450 -50 m 1,28,-1
 450 100 l 1,29,-1
 600 100 l 1,30,-1
 600 -50 l 1,31,-1
 450 -50 l 1,28,-1
600 -200 m 1,32,-1
 600 -50 l 1,33,-1
 750 -50 l 1,34,-1
 750 -200 l 1,35,-1
 600 -200 l 1,32,-1
0 400 m 1,36,-1
 0 550 l 1,37,-1
 150 550 l 1,38,-1
 150 400 l 1,39,-1
 0 400 l 1,36,-1
150 550 m 1,40,-1
 150 700 l 1,41,-1
 300 700 l 1,42,-1
 300 550 l 1,43,-1
 150 550 l 1,40,-1
750 400 m 1,44,-1
 750 550 l 1,45,-1
 900 550 l 1,46,-1
 900 400 l 1,47,-1
 750 400 l 1,44,-1
600 550 m 1,48,-1
 600 700 l 1,49,-1
 750 700 l 1,50,-1
 750 550 l 1,51,-1
 600 550 l 1,48,-1
0 250 m 1,52,-1
 0 400 l 1,53,-1
 150 400 l 1,54,-1
 150 250 l 1,55,-1
 0 250 l 1,52,-1
600 250 m 1,56,-1
 600 400 l 1,57,-1
 750 400 l 1,58,-1
 750 250 l 1,59,-1
 600 250 l 1,56,-1
0 100 m 1,60,-1
 0 250 l 1,61,-1
 150 250 l 1,62,-1
 150 100 l 1,63,-1
 0 100 l 1,60,-1
750 100 m 1,64,-1
 750 250 l 1,65,-1
 900 250 l 1,66,-1
 900 100 l 1,67,-1
 750 100 l 1,64,-1
0 -50 m 1,68,-1
 0 100 l 1,69,-1
 150 100 l 1,70,-1
 150 -50 l 1,71,-1
 0 -50 l 1,68,-1
750 -50 m 1,72,-1
 750 100 l 1,73,-1
 900 100 l 1,74,-1
 900 -50 l 1,75,-1
 750 -50 l 1,72,-1
EndSplineSet
Validated: 2053
EndChar

StartChar: r
Encoding: 114 114 85
Width: 1076
Flags: W
LayerCount: 2
Fore
SplineSet
150 702 m 1,0,-1
 150 852 l 1,1,-1
 300 852 l 1,2,-1
 300 702 l 1,3,-1
 150 702 l 1,0,-1
150 402 m 1,4,-1
 150 552 l 1,5,-1
 300 552 l 1,6,-1
 300 402 l 1,7,-1
 150 402 l 1,4,-1
300 702 m 1,8,-1
 300 852 l 1,9,-1
 450 852 l 1,10,-1
 450 702 l 1,11,-1
 300 702 l 1,8,-1
300 402 m 1,12,-1
 300 552 l 1,13,-1
 450 552 l 1,14,-1
 450 402 l 1,15,-1
 300 402 l 1,12,-1
450 402 m 1,16,-1
 450 552 l 1,17,-1
 600 552 l 1,18,-1
 600 402 l 1,19,-1
 450 402 l 1,16,-1
450 702 m 1,20,-1
 450 852 l 1,21,-1
 600 852 l 1,22,-1
 600 702 l 1,23,-1
 450 702 l 1,20,-1
600 702 m 1,24,-1
 600 852 l 1,25,-1
 750 852 l 1,26,-1
 750 702 l 1,27,-1
 600 702 l 1,24,-1
300 -198 m 1,28,-1
 300 -48 l 1,29,-1
 450 -48 l 1,30,-1
 450 -198 l 1,31,-1
 300 -198 l 1,28,-1
150 -198 m 1,32,-1
 150 -48 l 1,33,-1
 300 -48 l 1,34,-1
 300 -198 l 1,35,-1
 150 -198 l 1,32,-1
450 -48 m 1,36,-1
 450 102 l 1,37,-1
 600 102 l 1,38,-1
 600 -48 l 1,39,-1
 450 -48 l 1,36,-1
600 -198 m 1,40,-1
 600 -48 l 1,41,-1
 750 -48 l 1,42,-1
 750 -198 l 1,43,-1
 600 -198 l 1,40,-1
0 402 m 1,44,-1
 0 552 l 1,45,-1
 150 552 l 1,46,-1
 150 402 l 1,47,-1
 0 402 l 1,44,-1
0 552 m 1,48,-1
 0 702 l 1,49,-1
 150 702 l 1,50,-1
 150 552 l 1,51,-1
 0 552 l 1,48,-1
750 402 m 1,52,-1
 750 552 l 1,53,-1
 900 552 l 1,54,-1
 900 402 l 1,55,-1
 750 402 l 1,52,-1
750 552 m 1,56,-1
 750 702 l 1,57,-1
 900 702 l 1,58,-1
 900 552 l 1,59,-1
 750 552 l 1,56,-1
600 402 m 1,60,-1
 600 552 l 1,61,-1
 750 552 l 1,62,-1
 750 402 l 1,63,-1
 600 402 l 1,60,-1
0 252 m 1,64,-1
 0 402 l 1,65,-1
 150 402 l 1,66,-1
 150 252 l 1,67,-1
 0 252 l 1,64,-1
0 102 m 1,68,-1
 0 252 l 1,69,-1
 150 252 l 1,70,-1
 150 102 l 1,71,-1
 0 102 l 1,68,-1
750 102 m 1,72,-1
 750 252 l 1,73,-1
 900 252 l 1,74,-1
 900 102 l 1,75,-1
 750 102 l 1,72,-1
600 252 m 1,76,-1
 600 402 l 1,77,-1
 750 402 l 1,78,-1
 750 252 l 1,79,-1
 600 252 l 1,76,-1
0 -48 m 1,80,-1
 0 102 l 1,81,-1
 150 102 l 1,82,-1
 150 -48 l 1,83,-1
 0 -48 l 1,80,-1
750 -48 m 1,84,-1
 750 102 l 1,85,-1
 900 102 l 1,86,-1
 900 -48 l 1,87,-1
 750 -48 l 1,84,-1
EndSplineSet
Validated: 2053
EndChar

StartChar: s
Encoding: 115 115 86
Width: 15
Flags: W
LayerCount: 2
Fore
SplineSet
-626 -200 m 5,0,-1
 -626 -50 l 5,1,-1
 -476 -50 l 5,2,-1
 -476 -200 l 5,3,-1
 -626 -200 l 5,0,-1
-626 -350 m 5,4,-1
 -626 -200 l 5,5,-1
 -476 -200 l 5,6,-1
 -476 -350 l 5,7,-1
 -626 -350 l 5,4,-1
-626 -500 m 5,8,-1
 -626 -350 l 5,9,-1
 -476 -350 l 5,10,-1
 -476 -500 l 5,11,-1
 -626 -500 l 5,8,-1
EndSplineSet
Validated: 5
EndChar

StartChar: t
Encoding: 116 116 87
Width: 1176
Flags: W
LayerCount: 2
Fore
SplineSet
0 552 m 1,0,-1
 0 702 l 1,1,-1
 150 702 l 1,2,-1
 150 552 l 1,3,-1
 0 552 l 1,0,-1
0 102 m 1,4,-1
 0 252 l 1,5,-1
 150 252 l 1,6,-1
 150 102 l 1,7,-1
 0 102 l 1,4,-1
0 -48 m 1,8,-1
 0 102 l 1,9,-1
 150 102 l 1,10,-1
 150 -48 l 1,11,-1
 0 -48 l 1,8,-1
150 702 m 1,12,-1
 150 852 l 1,13,-1
 300 852 l 1,14,-1
 300 702 l 1,15,-1
 150 702 l 1,12,-1
150 852 m 1,16,-1
 150 702 l 1,17,-1
 0 702 l 1025,18,-1
300 702 m 1,19,-1
 300 852 l 1,20,-1
 450 852 l 1,21,-1
 450 702 l 1,22,-1
 300 702 l 1,19,-1
600 702 m 1,23,-1
 450 702 l 1025,24,-1
600 702 m 1,25,-1
 600 852 l 1,26,-1
 750 852 l 1,27,-1
 750 702 l 1,28,-1
 600 702 l 1,25,-1
750 702 m 1,29,-1
 750 852 l 1,30,-1
 900 852 l 5,31,-1
 900 702 l 1,32,-1
 750 702 l 1,29,-1
450 552 m 1,33,-1
 450 702 l 1,34,-1
 600 702 l 1,35,-1
 600 552 l 1,36,-1
 450 552 l 1,33,-1
900 552 m 1,37,-1
 900 702 l 1,38,-1
 1050 702 l 1,39,-1
 1050 552 l 1,40,-1
 900 552 l 1,37,-1
900 402 m 1,41,-1
 900 552 l 1,42,-1
 1050 552 l 1,43,-1
 1050 402 l 1,44,-1
 900 402 l 1,41,-1
150 252 m 1,45,-1
 150 402 l 1,46,-1
 300 402 l 1,47,-1
 300 252 l 1,48,-1
 150 252 l 1,45,-1
0 402 m 1,49,-1
 0 552 l 1,50,-1
 150 552 l 1,51,-1
 150 402 l 1,52,-1
 0 402 l 1,49,-1
900 252 m 1,53,-1
 900 402 l 1,54,-1
 1050 402 l 1,55,-1
 1050 252 l 1,56,-1
 900 252 l 1,53,-1
900 102 m 1,57,-1
 900 252 l 1,58,-1
 1050 252 l 1,59,-1
 1050 102 l 1,60,-1
 900 102 l 1,57,-1
900 -48 m 1,61,-1
 900 102 l 1,62,-1
 1050 102 l 1,63,-1
 1050 -48 l 1,64,-1
 900 -48 l 1,61,-1
150 -198 m 1,65,-1
 150 -48 l 1,66,-1
 300 -48 l 1,67,-1
 300 -198 l 1,68,-1
 150 -198 l 1,65,-1
300 -198 m 1,69,-1
 300 -48 l 1,70,-1
 450 -48 l 1,71,-1
 450 -198 l 1,72,-1
 300 -198 l 1,69,-1
600 -198 m 1,73,-1
 600 -48 l 1,74,-1
 750 -48 l 1,75,-1
 750 -198 l 1,76,-1
 600 -198 l 1,73,-1
600 -48 m 1,77,-1
 600 102 l 1,78,-1
 750 102 l 1,79,-1
 750 -48 l 1,80,-1
 600 -48 l 1,77,-1
750 -198 m 1,81,-1
 750 -48 l 1,82,-1
 900 -48 l 1,83,-1
 900 -198 l 1,84,-1
 750 -198 l 1,81,-1
EndSplineSet
Validated: 2059
EndChar

StartChar: u
Encoding: 117 117 88
Width: 1473
Flags: W
LayerCount: 2
Fore
SplineSet
-1 550 m 1,0,-1
 -1 700 l 1,1,-1
 149 700 l 1,2,-1
 149 550 l 1,3,-1
 -1 550 l 1,0,-1
-1 100 m 1,4,-1
 -1 250 l 1,5,-1
 149 250 l 1,6,-1
 149 100 l 1,7,-1
 -1 100 l 1,4,-1
-1 -50 m 1,8,-1
 -1 100 l 1,9,-1
 149 100 l 1,10,-1
 149 -50 l 1,11,-1
 -1 -50 l 1,8,-1
149 700 m 1,12,-1
 149 850 l 1,13,-1
 299 850 l 1,14,-1
 299 700 l 1,15,-1
 149 700 l 1,12,-1
-1 700 m 1,16,-1
 -1 850 l 1,17,-1
 149 850 l 1,18,-1
 149 700 l 1,19,-1
 -1 700 l 1,16,-1
-151 700 m 1,20,-1
 -151 850 l 1,21,-1
 -1 850 l 1,22,-1
 -1 700 l 1,23,-1
 -151 700 l 1,20,-1
299 700 m 1,24,-1
 299 850 l 1,25,-1
 449 850 l 1,26,-1
 449 700 l 1,27,-1
 299 700 l 1,24,-1
449 700 m 1,28,-1
 449 850 l 1,29,-1
 599 850 l 1,30,-1
 599 700 l 1,31,-1
 449 700 l 1,28,-1
599 700 m 1,32,-1
 599 850 l 1,33,-1
 749 850 l 1,34,-1
 749 700 l 1,35,-1
 599 700 l 1,32,-1
749 700 m 1,36,-1
 749 850 l 1,37,-1
 899 850 l 1,38,-1
 899 700 l 1,39,-1
 749 700 l 1,36,-1
449 550 m 1,40,-1
 449 700 l 1,41,-1
 599 700 l 1,42,-1
 599 550 l 1,43,-1
 449 550 l 1,40,-1
899 550 m 1,44,-1
 899 700 l 1,45,-1
 1049 700 l 1,46,-1
 1049 550 l 1,47,-1
 899 550 l 1,44,-1
899 400 m 1,48,-1
 899 550 l 1,49,-1
 1049 550 l 1,50,-1
 1049 400 l 1,51,-1
 899 400 l 1,48,-1
149 250 m 1,52,-1
 149 400 l 1,53,-1
 299 400 l 1,54,-1
 299 250 l 1,55,-1
 149 250 l 1,52,-1
-1 400 m 1,56,-1
 -1 550 l 1,57,-1
 149 550 l 1,58,-1
 149 400 l 1,59,-1
 -1 400 l 1,56,-1
899 250 m 1,60,-1
 899 400 l 1,61,-1
 1049 400 l 1,62,-1
 1049 250 l 1,63,-1
 899 250 l 1,60,-1
899 100 m 1,64,-1
 899 250 l 1,65,-1
 1049 250 l 1,66,-1
 1049 100 l 1,67,-1
 899 100 l 1,64,-1
899 -50 m 1,68,-1
 899 100 l 1,69,-1
 1049 100 l 1,70,-1
 1049 -50 l 1,71,-1
 899 -50 l 1,68,-1
149 -200 m 1,72,-1
 149 -50 l 1,73,-1
 299 -50 l 1,74,-1
 299 -200 l 1,75,-1
 149 -200 l 1,72,-1
299 -200 m 1,76,-1
 299 -50 l 1,77,-1
 449 -50 l 1,78,-1
 449 -200 l 1,79,-1
 299 -200 l 1,76,-1
599 -200 m 1,80,-1
 599 -50 l 1,81,-1
 749 -50 l 1,82,-1
 749 -200 l 1,83,-1
 599 -200 l 1,80,-1
599 -50 m 1,84,-1
 599 100 l 1,85,-1
 749 100 l 1,86,-1
 749 -50 l 1,87,-1
 599 -50 l 1,84,-1
749 -200 m 1,88,-1
 749 -50 l 1,89,-1
 899 -50 l 1,90,-1
 899 -200 l 1,91,-1
 749 -200 l 1,88,-1
EndSplineSet
Validated: 2053
EndChar

StartChar: v
Encoding: 118 118 89
Width: 1076
Flags: W
LayerCount: 2
Fore
SplineSet
450 702 m 1,0,-1
 450 852 l 1,1,-1
 600 852 l 1,2,-1
 600 702 l 1,3,-1
 450 702 l 1,0,-1
600 702 m 1,4,-1
 600 852 l 1,5,-1
 750 852 l 1,6,-1
 750 702 l 1,7,-1
 600 702 l 1,4,-1
300 702 m 1,8,-1
 300 852 l 1,9,-1
 450 852 l 1,10,-1
 450 702 l 1,11,-1
 300 702 l 1,8,-1
150 702 m 1,12,-1
 150 852 l 1,13,-1
 300 852 l 1,14,-1
 300 702 l 1,15,-1
 150 702 l 1,12,-1
0 702 m 1,16,-1
 0 852 l 1,17,-1
 150 852 l 1,18,-1
 150 702 l 1,19,-1
 0 702 l 1,16,-1
750 552 m 1,20,-1
 750 702 l 1,21,-1
 900 702 l 1,22,-1
 900 552 l 1,23,-1
 750 552 l 1,20,-1
750 402 m 1,24,-1
 750 552 l 1,25,-1
 900 552 l 1,26,-1
 900 402 l 1,27,-1
 750 402 l 1,24,-1
600 252 m 1,28,-1
 600 402 l 1,29,-1
 750 402 l 1,30,-1
 750 252 l 1,31,-1
 600 252 l 1,28,-1
750 102 m 1,32,-1
 750 252 l 1,33,-1
 900 252 l 1,34,-1
 900 102 l 1,35,-1
 750 102 l 1,32,-1
300 -198 m 1,36,-1
 300 -48 l 1,37,-1
 450 -48 l 1,38,-1
 450 -198 l 1,39,-1
 300 -198 l 1,36,-1
150 -48 m 1,40,-1
 150 102 l 1,41,-1
 300 102 l 1,42,-1
 300 -48 l 1,43,-1
 150 -48 l 1,40,-1
150 102 m 1,44,-1
 150 252 l 1,45,-1
 300 252 l 1,46,-1
 300 102 l 1,47,-1
 150 102 l 1,44,-1
750 -48 m 1,48,-1
 750 102 l 1,49,-1
 900 102 l 1,50,-1
 900 -48 l 1,51,-1
 750 -48 l 1,48,-1
450 -198 m 1,52,-1
 450 -48 l 1,53,-1
 600 -48 l 1,54,-1
 600 -198 l 1,55,-1
 450 -198 l 1,52,-1
600 -198 m 1,56,-1
 600 -48 l 1,57,-1
 750 -48 l 1,58,-1
 750 -198 l 1,59,-1
 600 -198 l 1,56,-1
EndSplineSet
Validated: 2053
EndChar

StartChar: w
Encoding: 119 119 90
Width: 904
Flags: W
LayerCount: 2
Fore
SplineSet
296 702 m 1,0,-1
 296 852 l 1,1,-1
 446 852 l 1,2,-1
 446 702 l 1,3,-1
 296 702 l 1,0,-1
446 702 m 1,4,-1
 446 852 l 1,5,-1
 596 852 l 1,6,-1
 596 702 l 1,7,-1
 446 702 l 1,4,-1
146 702 m 1,8,-1
 146 852 l 1,9,-1
 296 852 l 1,10,-1
 296 702 l 1,11,-1
 146 702 l 1,8,-1
-4 702 m 1,12,-1
 -4 852 l 1,13,-1
 146 852 l 1,14,-1
 146 702 l 1,15,-1
 -4 702 l 1,12,-1
-4 552 m 1,16,-1
 -4 702 l 1,17,-1
 146 702 l 1,18,-1
 146 552 l 1,19,-1
 -4 552 l 1,16,-1
-4 402 m 1,20,-1
 -4 552 l 1,21,-1
 146 552 l 1,22,-1
 146 402 l 1,23,-1
 -4 402 l 1,20,-1
146 402 m 1,24,-1
 146 552 l 1,25,-1
 296 552 l 1,26,-1
 296 402 l 1,27,-1
 146 402 l 1,24,-1
296 402 m 1,28,-1
 296 552 l 1,29,-1
 446 552 l 1,30,-1
 446 402 l 1,31,-1
 296 402 l 1,28,-1
446 402 m 1,32,-1
 446 552 l 1,33,-1
 596 552 l 1,34,-1
 596 402 l 1,35,-1
 446 402 l 1,32,-1
596 552 m 1,36,-1
 596 702 l 1,37,-1
 746 702 l 1,38,-1
 746 552 l 1,39,-1
 596 552 l 1,36,-1
596 402 m 1,40,-1
 596 552 l 1,41,-1
 746 552 l 1,42,-1
 746 402 l 1,43,-1
 596 402 l 1,40,-1
446 252 m 1,44,-1
 446 402 l 1,45,-1
 596 402 l 1,46,-1
 596 252 l 1,47,-1
 446 252 l 1,44,-1
596 102 m 1,48,-1
 596 252 l 1,49,-1
 746 252 l 1,50,-1
 746 102 l 1,51,-1
 596 102 l 1,48,-1
146 -198 m 1,52,-1
 146 -48 l 1,53,-1
 296 -48 l 1,54,-1
 296 -198 l 1,55,-1
 146 -198 l 1,52,-1
-4 -48 m 1,56,-1
 -4 102 l 1,57,-1
 146 102 l 1,58,-1
 146 -48 l 1,59,-1
 -4 -48 l 1,56,-1
-4 102 m 1,60,-1
 -4 252 l 1,61,-1
 146 252 l 1,62,-1
 146 102 l 1,63,-1
 -4 102 l 1,60,-1
596 -48 m 1,64,-1
 596 102 l 1,65,-1
 746 102 l 1,66,-1
 746 -48 l 1,67,-1
 596 -48 l 1,64,-1
296 -198 m 1,68,-1
 296 -48 l 1,69,-1
 446 -48 l 1,70,-1
 446 -198 l 1,71,-1
 296 -198 l 1,68,-1
446 -198 m 1,72,-1
 446 -48 l 1,73,-1
 596 -48 l 1,74,-1
 596 -198 l 1,75,-1
 446 -198 l 1,72,-1
EndSplineSet
Validated: 2053
EndChar

StartChar: x
Encoding: 120 120 91
Width: 1260
Flags: W
LayerCount: 2
Fore
SplineSet
300 700 m 1,0,-1
 300 850 l 1,1,-1
 450 850 l 1,2,-1
 450 700 l 1,3,-1
 300 700 l 1,0,-1
150 700 m 1,4,-1
 150 850 l 1,5,-1
 300 850 l 1,6,-1
 300 700 l 1,7,-1
 150 700 l 1,4,-1
0 700 m 1,8,-1
 0 850 l 1,9,-1
 150 850 l 1,10,-1
 150 700 l 1,11,-1
 0 700 l 1,8,-1
450 700 m 1,12,-1
 450 850 l 1,13,-1
 600 850 l 1,14,-1
 600 700 l 1,15,-1
 450 700 l 1,12,-1
600 700 m 1,16,-1
 600 850 l 1,17,-1
 750 850 l 1,18,-1
 750 700 l 1,19,-1
 600 700 l 1,16,-1
750 700 m 1,20,-1
 750 850 l 1,21,-1
 900 850 l 1,22,-1
 900 700 l 1,23,-1
 750 700 l 1,20,-1
900 700 m 1,24,-1
 900 850 l 1,25,-1
 1050 850 l 1,26,-1
 1050 700 l 1,27,-1
 900 700 l 1,24,-1
150 -200 m 1,28,-1
 150 -50 l 1,29,-1
 300 -50 l 1,30,-1
 300 -200 l 1,31,-1
 150 -200 l 1,28,-1
300 -200 m 1,32,-1
 300 -50 l 1,33,-1
 450 -50 l 1,34,-1
 450 -200 l 1,35,-1
 300 -200 l 1,32,-1
450 -50 m 1,36,-1
 450 100 l 1,37,-1
 600 100 l 1,38,-1
 600 -50 l 1,39,-1
 450 -50 l 1,36,-1
450 -350 m 1,40,-1
 450 -200 l 1,41,-1
 600 -200 l 1,42,-1
 600 -350 l 1,43,-1
 450 -350 l 1,40,-1
450 -500 m 1,44,-1
 450 -350 l 1,45,-1
 600 -350 l 1,46,-1
 600 -500 l 1,47,-1
 450 -500 l 1,44,-1
450 250 m 1,48,-1
 450 400 l 1,49,-1
 600 400 l 1,50,-1
 600 250 l 1,51,-1
 450 250 l 1,48,-1
750 -200 m 1,52,-1
 750 -50 l 1,53,-1
 900 -50 l 1,54,-1
 900 -200 l 1,55,-1
 750 -200 l 1,52,-1
600 -200 m 1,56,-1
 600 -50 l 1,57,-1
 750 -50 l 1,58,-1
 750 -200 l 1,59,-1
 600 -200 l 1,56,-1
0 400 m 1,60,-1
 0 550 l 1,61,-1
 150 550 l 1,62,-1
 150 400 l 1,63,-1
 0 400 l 1,60,-1
150 550 m 1,64,-1
 150 700 l 1,65,-1
 300 700 l 1,66,-1
 300 550 l 1,67,-1
 150 550 l 1,64,-1
900 400 m 1,68,-1
 900 550 l 1,69,-1
 1050 550 l 1,70,-1
 1050 400 l 1,71,-1
 900 400 l 1,68,-1
750 550 m 1,72,-1
 750 700 l 1,73,-1
 900 700 l 1,74,-1
 900 550 l 1,75,-1
 750 550 l 1,72,-1
0 250 m 1,76,-1
 0 400 l 1,77,-1
 150 400 l 1,78,-1
 150 250 l 1,79,-1
 0 250 l 1,76,-1
900 250 m 1,80,-1
 900 400 l 1,81,-1
 1050 400 l 1,82,-1
 1050 250 l 1,83,-1
 900 250 l 1,80,-1
0 100 m 1,84,-1
 0 250 l 1,85,-1
 150 250 l 1,86,-1
 150 100 l 1,87,-1
 0 100 l 1,84,-1
900 100 m 1,88,-1
 900 250 l 1,89,-1
 1050 250 l 1,90,-1
 1050 100 l 1,91,-1
 900 100 l 1,88,-1
0 -50 m 1,92,-1
 0 100 l 1,93,-1
 150 100 l 1,94,-1
 150 -50 l 1,95,-1
 0 -50 l 1,92,-1
900 -50 m 1,96,-1
 900 100 l 1,97,-1
 1050 100 l 1,98,-1
 1050 -50 l 1,99,-1
 900 -50 l 1,96,-1
EndSplineSet
Validated: 2053
EndChar

StartChar: y
Encoding: 121 121 92
Width: 1260
Flags: W
LayerCount: 2
Fore
SplineSet
298 700 m 1,0,-1
 298 850 l 1,1,-1
 448 850 l 1,2,-1
 448 700 l 1,3,-1
 298 700 l 1,0,-1
148 700 m 1,4,-1
 148 850 l 1,5,-1
 298 850 l 1,6,-1
 298 700 l 1,7,-1
 148 700 l 1,4,-1
448 700 m 1,8,-1
 448 850 l 1,9,-1
 598 850 l 1,10,-1
 598 700 l 1,11,-1
 448 700 l 1,8,-1
598 700 m 1,12,-1
 598 850 l 1,13,-1
 748 850 l 1,14,-1
 748 700 l 1,15,-1
 598 700 l 1,12,-1
748 700 m 1,16,-1
 748 850 l 1,17,-1
 898 850 l 1,18,-1
 898 700 l 1,19,-1
 748 700 l 1,16,-1
898 700 m 1,20,-1
 898 850 l 1,21,-1
 1048 850 l 1,22,-1
 1048 700 l 1,23,-1
 898 700 l 1,20,-1
148 -200 m 1,24,-1
 148 -50 l 1,25,-1
 298 -50 l 1,26,-1
 298 -200 l 1,27,-1
 148 -200 l 1,24,-1
298 -200 m 1,28,-1
 298 -50 l 1,29,-1
 448 -50 l 1,30,-1
 448 -200 l 1,31,-1
 298 -200 l 1,28,-1
448 -50 m 1,32,-1
 448 100 l 1,33,-1
 598 100 l 1,34,-1
 598 -50 l 1,35,-1
 448 -50 l 1,32,-1
448 -350 m 1,36,-1
 448 -200 l 1,37,-1
 598 -200 l 1,38,-1
 598 -350 l 1,39,-1
 448 -350 l 1,36,-1
448 -500 m 1,40,-1
 448 -350 l 1,41,-1
 598 -350 l 1,42,-1
 598 -500 l 1,43,-1
 448 -500 l 1,40,-1
448 250 m 1,44,-1
 448 400 l 1,45,-1
 598 400 l 1,46,-1
 598 250 l 1,47,-1
 448 250 l 1,44,-1
748 -200 m 1,48,-1
 748 -50 l 1,49,-1
 898 -50 l 1,50,-1
 898 -200 l 1,51,-1
 748 -200 l 1,48,-1
598 -200 m 1,52,-1
 598 -50 l 1,53,-1
 748 -50 l 1,54,-1
 748 -200 l 1,55,-1
 598 -200 l 1,52,-1
-2 400 m 1,56,-1
 -2 550 l 1,57,-1
 148 550 l 1,58,-1
 148 400 l 1,59,-1
 -2 400 l 1,56,-1
148 400 m 1,60,-1
 148 550 l 1,61,-1
 298 550 l 1,62,-1
 298 400 l 1,63,-1
 148 400 l 1,60,-1
298 400 m 1,64,-1
 298 550 l 1,65,-1
 448 550 l 1,66,-1
 448 400 l 1,67,-1
 298 400 l 1,64,-1
448 400 m 1,68,-1
 448 550 l 1,69,-1
 598 550 l 1,70,-1
 598 400 l 1,71,-1
 448 400 l 1,68,-1
598 400 m 1,72,-1
 598 550 l 1,73,-1
 748 550 l 1,74,-1
 748 400 l 1,75,-1
 598 400 l 1,72,-1
898 400 m 1,76,-1
 898 550 l 1,77,-1
 1048 550 l 1,78,-1
 1048 400 l 1,79,-1
 898 400 l 1,76,-1
748 400 m 1,80,-1
 748 550 l 1,81,-1
 898 550 l 1,82,-1
 898 400 l 1,83,-1
 748 400 l 1,80,-1
-2 250 m 1,84,-1
 -2 400 l 1,85,-1
 148 400 l 1,86,-1
 148 250 l 1,87,-1
 -2 250 l 1,84,-1
898 250 m 1,88,-1
 898 400 l 1,89,-1
 1048 400 l 1,90,-1
 1048 250 l 1,91,-1
 898 250 l 1,88,-1
-2 100 m 1,92,-1
 -2 250 l 1,93,-1
 148 250 l 1,94,-1
 148 100 l 1,95,-1
 -2 100 l 1,92,-1
898 100 m 1,96,-1
 898 250 l 1,97,-1
 1048 250 l 1,98,-1
 1048 100 l 1,99,-1
 898 100 l 1,96,-1
-2 -50 m 1,100,-1
 -2 100 l 1,101,-1
 148 100 l 1,102,-1
 148 -50 l 1,103,-1
 -2 -50 l 1,100,-1
898 -50 m 1,104,-1
 898 100 l 1,105,-1
 1048 100 l 1,106,-1
 1048 -50 l 1,107,-1
 898 -50 l 1,104,-1
298 700 m 1,108,-1
 298 850 l 1,109,-1
 448 850 l 1,110,-1
 448 700 l 1,111,-1
 298 700 l 1,108,-1
148 700 m 1,112,-1
 148 850 l 1,113,-1
 298 850 l 1,114,-1
 298 700 l 1,115,-1
 148 700 l 1,112,-1
448 700 m 1,116,-1
 448 850 l 1,117,-1
 598 850 l 1,118,-1
 598 700 l 1,119,-1
 448 700 l 1,116,-1
598 700 m 1,120,-1
 598 850 l 1,121,-1
 748 850 l 1,122,-1
 748 700 l 1,123,-1
 598 700 l 1,120,-1
748 700 m 1,124,-1
 748 850 l 1,125,-1
 898 850 l 1,126,-1
 898 700 l 1,127,-1
 748 700 l 1,124,-1
898 700 m 1,128,-1
 898 850 l 1,129,-1
 1048 850 l 1,130,-1
 1048 700 l 1,131,-1
 898 700 l 1,128,-1
148 -200 m 1,132,-1
 148 -50 l 1,133,-1
 298 -50 l 1,134,-1
 298 -200 l 1,135,-1
 148 -200 l 1,132,-1
298 -200 m 1,136,-1
 298 -50 l 1,137,-1
 448 -50 l 1,138,-1
 448 -200 l 1,139,-1
 298 -200 l 1,136,-1
448 -50 m 1,140,-1
 448 100 l 1,141,-1
 598 100 l 1,142,-1
 598 -50 l 1,143,-1
 448 -50 l 1,140,-1
448 -350 m 1,144,-1
 448 -200 l 1,145,-1
 598 -200 l 1,146,-1
 598 -350 l 1,147,-1
 448 -350 l 1,144,-1
448 -500 m 1,148,-1
 448 -350 l 1,149,-1
 598 -350 l 1,150,-1
 598 -500 l 1,151,-1
 448 -500 l 1,148,-1
448 250 m 1,152,-1
 448 400 l 1,153,-1
 598 400 l 1,154,-1
 598 250 l 1,155,-1
 448 250 l 1,152,-1
748 -200 m 1,156,-1
 748 -50 l 1,157,-1
 898 -50 l 1,158,-1
 898 -200 l 1,159,-1
 748 -200 l 1,156,-1
598 -200 m 1,160,-1
 598 -50 l 1,161,-1
 748 -50 l 1,162,-1
 748 -200 l 1,163,-1
 598 -200 l 1,160,-1
-2 400 m 1,164,-1
 -2 550 l 1,165,-1
 148 550 l 1,166,-1
 148 400 l 1,167,-1
 -2 400 l 1,164,-1
-2 550 m 1,168,-1
 -2 700 l 1,169,-1
 148 700 l 1,170,-1
 148 550 l 1,171,-1
 -2 550 l 1,168,-1
898 400 m 1,172,-1
 898 550 l 1,173,-1
 1048 550 l 1,174,-1
 1048 400 l 1,175,-1
 898 400 l 1,172,-1
898 550 m 1,176,-1
 898 700 l 1,177,-1
 1048 700 l 5,178,-1
 1048 550 l 5,179,-1
 898 550 l 1,176,-1
-2 250 m 1,180,-1
 -2 400 l 1,181,-1
 148 400 l 1,182,-1
 148 250 l 1,183,-1
 -2 250 l 1,180,-1
898 250 m 1,184,-1
 898 400 l 1,185,-1
 1048 400 l 1,186,-1
 1048 250 l 1,187,-1
 898 250 l 1,184,-1
-2 100 m 1,188,-1
 -2 250 l 1,189,-1
 148 250 l 1,190,-1
 148 100 l 1,191,-1
 -2 100 l 1,188,-1
898 100 m 1,192,-1
 898 250 l 1,193,-1
 1048 250 l 1,194,-1
 1048 100 l 1,195,-1
 898 100 l 1,192,-1
-2 -50 m 1,196,-1
 -2 100 l 1,197,-1
 148 100 l 1,198,-1
 148 -50 l 1,199,-1
 -2 -50 l 1,196,-1
898 -50 m 1,200,-1
 898 100 l 1,201,-1
 1048 100 l 1,202,-1
 1048 -50 l 1,203,-1
 898 -50 l 1,200,-1
EndSplineSet
Validated: 3077
EndChar

StartChar: z
Encoding: 122 122 93
Width: 1176
Flags: W
LayerCount: 2
Fore
SplineSet
299 701 m 5,0,-1
 299 851 l 5,1,-1
 449 851 l 5,2,-1
 449 701 l 5,3,-1
 299 701 l 5,0,-1
149 701 m 5,4,-1
 149 851 l 5,5,-1
 299 851 l 5,6,-1
 299 701 l 5,7,-1
 149 701 l 5,4,-1
449 701 m 5,8,-1
 449 851 l 5,9,-1
 599 851 l 5,10,-1
 599 701 l 5,11,-1
 449 701 l 5,8,-1
599 701 m 5,12,-1
 599 851 l 5,13,-1
 749 851 l 5,14,-1
 749 701 l 5,15,-1
 599 701 l 5,12,-1
749 701 m 5,16,-1
 749 851 l 5,17,-1
 899 851 l 5,18,-1
 899 701 l 5,19,-1
 749 701 l 5,16,-1
899 701 m 5,20,-1
 899 851 l 5,21,-1
 1049 851 l 5,22,-1
 1049 701 l 5,23,-1
 899 701 l 5,20,-1
149 -199 m 5,24,-1
 149 -49 l 5,25,-1
 299 -49 l 5,26,-1
 299 -199 l 5,27,-1
 149 -199 l 5,24,-1
299 -199 m 5,28,-1
 299 -49 l 5,29,-1
 449 -49 l 5,30,-1
 449 -199 l 5,31,-1
 299 -199 l 5,28,-1
449 -49 m 5,32,-1
 449 101 l 5,33,-1
 599 101 l 5,34,-1
 599 -49 l 5,35,-1
 449 -49 l 5,32,-1
749 -199 m 5,36,-1
 749 -49 l 5,37,-1
 899 -49 l 5,38,-1
 899 -199 l 5,39,-1
 749 -199 l 5,36,-1
599 -199 m 5,40,-1
 599 -49 l 5,41,-1
 749 -49 l 5,42,-1
 749 -199 l 5,43,-1
 599 -199 l 5,40,-1
-1 401 m 5,44,-1
 -1 551 l 5,45,-1
 149 551 l 5,46,-1
 149 401 l 5,47,-1
 -1 401 l 5,44,-1
149 551 m 5,48,-1
 149 701 l 5,49,-1
 299 701 l 5,50,-1
 299 551 l 5,51,-1
 149 551 l 5,48,-1
899 401 m 5,52,-1
 899 551 l 5,53,-1
 1049 551 l 5,54,-1
 1049 401 l 5,55,-1
 899 401 l 5,52,-1
749 551 m 5,56,-1
 749 701 l 5,57,-1
 899 701 l 5,58,-1
 899 551 l 5,59,-1
 749 551 l 5,56,-1
-1 251 m 5,60,-1
 -1 401 l 5,61,-1
 149 401 l 5,62,-1
 149 251 l 5,63,-1
 -1 251 l 5,60,-1
899 251 m 5,64,-1
 899 401 l 5,65,-1
 1049 401 l 5,66,-1
 1049 251 l 5,67,-1
 899 251 l 5,64,-1
-1 101 m 5,68,-1
 -1 251 l 5,69,-1
 149 251 l 5,70,-1
 149 101 l 5,71,-1
 -1 101 l 5,68,-1
899 101 m 5,72,-1
 899 251 l 5,73,-1
 1049 251 l 5,74,-1
 1049 101 l 5,75,-1
 899 101 l 5,72,-1
-1 -49 m 5,76,-1
 -1 101 l 5,77,-1
 149 101 l 5,78,-1
 149 -49 l 5,79,-1
 -1 -49 l 5,76,-1
899 -49 m 5,80,-1
 899 101 l 5,81,-1
 1049 101 l 5,82,-1
 1049 -49 l 5,83,-1
 899 -49 l 5,80,-1
299 701 m 5,84,-1
 299 851 l 5,85,-1
 449 851 l 5,86,-1
 449 701 l 5,87,-1
 299 701 l 5,84,-1
149 701 m 5,88,-1
 149 851 l 5,89,-1
 299 851 l 5,90,-1
 299 701 l 5,91,-1
 149 701 l 5,88,-1
449 701 m 5,92,-1
 449 851 l 5,93,-1
 599 851 l 5,94,-1
 599 701 l 5,95,-1
 449 701 l 5,92,-1
599 701 m 5,96,-1
 599 851 l 5,97,-1
 749 851 l 5,98,-1
 749 701 l 5,99,-1
 599 701 l 5,96,-1
749 701 m 5,100,-1
 749 851 l 5,101,-1
 899 851 l 5,102,-1
 899 701 l 5,103,-1
 749 701 l 5,100,-1
899 701 m 5,104,-1
 899 851 l 5,105,-1
 1049 851 l 5,106,-1
 1049 701 l 5,107,-1
 899 701 l 5,104,-1
149 -199 m 5,108,-1
 149 -49 l 5,109,-1
 299 -49 l 5,110,-1
 299 -199 l 5,111,-1
 149 -199 l 5,108,-1
299 -199 m 5,112,-1
 299 -49 l 5,113,-1
 449 -49 l 5,114,-1
 449 -199 l 5,115,-1
 299 -199 l 5,112,-1
449 -49 m 5,116,-1
 449 101 l 5,117,-1
 599 101 l 5,118,-1
 599 -49 l 5,119,-1
 449 -49 l 5,116,-1
749 -199 m 5,120,-1
 749 -49 l 5,121,-1
 899 -49 l 5,122,-1
 899 -199 l 5,123,-1
 749 -199 l 5,120,-1
599 -199 m 5,124,-1
 599 -49 l 5,125,-1
 749 -49 l 5,126,-1
 749 -199 l 5,127,-1
 599 -199 l 5,124,-1
-1 401 m 5,128,-1
 -1 551 l 5,129,-1
 149 551 l 5,130,-1
 149 401 l 5,131,-1
 -1 401 l 5,128,-1
149 551 m 5,132,-1
 149 701 l 5,133,-1
 299 701 l 5,134,-1
 299 551 l 5,135,-1
 149 551 l 5,132,-1
899 401 m 5,136,-1
 899 551 l 5,137,-1
 1049 551 l 5,138,-1
 1049 401 l 5,139,-1
 899 401 l 5,136,-1
749 551 m 5,140,-1
 749 701 l 5,141,-1
 899 701 l 5,142,-1
 899 551 l 5,143,-1
 749 551 l 5,140,-1
-1 251 m 5,144,-1
 -1 401 l 5,145,-1
 149 401 l 5,146,-1
 149 251 l 5,147,-1
 -1 251 l 5,144,-1
899 251 m 5,148,-1
 899 401 l 5,149,-1
 1049 401 l 5,150,-1
 1049 251 l 5,151,-1
 899 251 l 5,148,-1
-1 101 m 5,152,-1
 -1 251 l 5,153,-1
 149 251 l 5,154,-1
 149 101 l 5,155,-1
 -1 101 l 5,152,-1
899 101 m 5,156,-1
 899 251 l 5,157,-1
 1049 251 l 5,158,-1
 1049 101 l 5,159,-1
 899 101 l 5,156,-1
-1 -49 m 5,160,-1
 -1 101 l 5,161,-1
 149 101 l 5,162,-1
 149 -49 l 5,163,-1
 -1 -49 l 5,160,-1
899 -49 m 5,164,-1
 899 101 l 5,165,-1
 1049 101 l 5,166,-1
 1049 -49 l 5,167,-1
 899 -49 l 5,164,-1
EndSplineSet
Validated: 3077
EndChar

StartChar: braceleft
Encoding: 123 123 94
Width: 333
Flags: W
LayerCount: 2
Fore
SplineSet
277 -105 m 1,0,1
 235 -100 235 -100 181 -65 c 0,2,3
 120 -24 120 -24 123 13 c 2,4,-1
 125 38 l 1,5,-1
 134 86 l 1,6,-1
 140 111 l 2,7,8
 142 116 142 116 142 134 c 0,9,10
 142 168 142 168 112.5 192 c 128,-1,11
 83 216 83 216 48 216 c 1,12,-1
 48 233 l 1,13,14
 85 237 85 237 112 257 c 1,15,16
 142 286 142 286 142 316 c 0,17,18
 142 337 142 337 132.5 378 c 128,-1,19
 123 419 123 419 123 441 c 0,20,21
 123 495 123 495 164.5 538.5 c 128,-1,22
 206 582 206 582 277 592 c 1,23,-1
 277 578 l 1,24,25
 184 554 184 554 184 486 c 0,26,27
 184 465 184 465 193 423.5 c 128,-1,28
 202 382 202 382 202 361 c 0,29,30
 202 268 202 268 83 226 c 1,31,32
 202 186 202 186 202 90 c 0,33,34
 202 69 202 69 193 30 c 2,35,-1
 187 4 l 1,36,-1
 184 -2 l 1,37,38
 184 -72 184 -72 277 -91 c 1,39,-1
 277 -105 l 1,0,1
EndSplineSet
Validated: 33
EndChar

StartChar: bar
Encoding: 124 124 95
Width: 183
Flags: W
LayerCount: 2
Fore
SplineSet
104 -12 m 1,0,-1
 48 33 l 1,1,-1
 48 506 l 1,2,-1
 104 439 l 1,3,-1
 104 -12 l 1,0,-1
EndSplineSet
Validated: 1
EndChar

StartChar: braceright
Encoding: 125 125 96
Width: 328
Flags: W
LayerCount: 2
Fore
SplineSet
277 250 m 1,0,1
 240 246 240 246 213 226 c 1,2,3
 183 197 183 197 183 167 c 0,4,5
 183 146 183 146 192.5 105 c 128,-1,6
 202 64 202 64 202 42 c 0,7,8
 202 -12 202 -12 160.5 -55.5 c 128,-1,9
 119 -99 119 -99 48 -109 c 1,10,-1
 48 -95 l 1,11,12
 141 -71 141 -71 141 -3 c 0,13,14
 141 18 141 18 132 59.5 c 128,-1,15
 123 101 123 101 123 122 c 0,16,17
 123 215 123 215 242 257 c 1,18,19
 116 299 116 299 123 393 c 2,20,-1
 125 419 l 1,21,-1
 131 452 l 1,22,-1
 137 477 l 1,23,-1
 141 485 l 1,24,25
 141 555 141 555 48 574 c 1,26,-1
 48 588 l 1,27,28
 88 582 88 582 143 546 c 0,29,30
 205 505 205 505 202 470 c 2,31,-1
 200 446 l 1,32,-1
 191 397 l 1,33,-1
 184 372 l 1,34,-1
 183 349 l 2,35,36
 182 315 182 315 213 291 c 1,37,-1
 244 272 l 2,38,39
 255 267 255 267 277 267 c 1,40,-1
 277 250 l 1,0,1
EndSplineSet
Validated: 33
EndChar

StartChar: asciitilde
Encoding: 126 126 97
Width: 494
Flags: W
LayerCount: 2
Fore
SplineSet
454 366 m 1,0,1
 454 334 454 334 448 318 c 2,2,-1
 432 276 l 1,3,4
 407 227 407 227 360 227 c 0,5,6
 339 227 339 227 323 235 c 2,7,-1
 290 252 l 1,8,-1
 219 288 l 2,9,10
 154 321 154 321 135 321 c 0,11,12
 79 321 79 321 64 228 c 1,13,-1
 48 228 l 1,14,15
 48 276 48 276 67 317 c 0,16,17
 90 367 90 367 137 367 c 0,18,19
 181 367 181 367 275 310 c 0,20,21
 336 273 336 273 367 273 c 0,22,23
 428 273 428 273 437 366 c 1,24,-1
 454 366 l 1,0,1
EndSplineSet
Validated: 1
EndChar

StartChar: quotedblbase
Encoding: 8222 8222 98
Width: 406
Flags: W
LayerCount: 2
Fore
SplineSet
353 98 m 0,0,1
 353 75 353 75 344 61 c 2,2,-1
 318 34 l 2,3,4
 287 2 287 2 210 2 c 2,5,-1
 166 2 l 1,6,-1
 109 5 l 1,7,-1
 51 12 l 1,8,-1
 51 59 l 1,9,10
 131 49 131 49 165 50 c 2,11,-1
 211 52 l 1,12,13
 292 64 292 64 292 96 c 0,14,15
 292 116 292 116 275 128 c 0,16,17
 215 155 215 155 187 164 c 2,18,-1
 131 181 l 2,19,20
 87 194 87 194 72 213 c 0,21,22
 48 243 48 243 48 272 c 0,23,24
 48 311 48 311 88 342 c 0,25,26
 125 371 125 371 222 371 c 0,27,28
 271 371 271 371 325 358 c 1,29,-1
 340 351 l 1,30,-1
 340 320 l 1,31,-1
 333 314 l 1,32,-1
 261 324 l 1,33,-1
 210 327 l 1,34,-1
 192 327 l 1,35,-1
 166 321 l 1,36,-1
 132 311 l 1,37,38
 108 291 108 291 108 276 c 0,39,40
 108 264 108 264 123 255 c 2,41,-1
 133 246 l 1,42,-1
 161 234 l 1,43,-1
 181 227 l 1,44,-1
 205 219 l 1,45,-1
 221 215 l 2,46,47
 242 210 242 210 306 179 c 0,48,49
 326 165 326 165 340 146 c 0,50,51
 353 124 353 124 353 98 c 0,0,1
EndSplineSet
Validated: 33
EndChar

StartChar: ellipsis
Encoding: 8230 8230 99
Width: 500
Flags: W
LayerCount: 2
Fore
SplineSet
409 -298 m 1,0,-1
 48 -298 l 1,1,-1
 48 -236 l 1,2,-1
 409 -236 l 1,3,-1
 409 -298 l 1,0,-1
409 -298 m 1,4,-1
 409 -236 l 1,5,-1
 48 -236 l 1,6,-1
 48 -298 l 1,7,-1
 409 -298 l 1,4,-1
EndSplineSet
Validated: 5
EndChar

StartChar: dagger
Encoding: 8224 8224 100
Width: 181
Flags: W
LayerCount: 2
Fore
SplineSet
110 194 m 1,0,-1
 48 194 l 1,1,-1
 48 532 l 1,2,-1
 110 532 l 1,3,-1
 110 194 l 1,0,-1
EndSplineSet
Validated: 1
EndChar

StartChar: daggerdbl
Encoding: 8225 8225 101
Width: 348
Flags: W
LayerCount: 2
Fore
SplineSet
276 198 m 1,0,-1
 214 198 l 1,1,-1
 214 538 l 1,2,-1
 276 538 l 1,3,-1
 276 198 l 1,0,-1
110 198 m 1,4,-1
 48 198 l 1,5,-1
 48 538 l 1,6,-1
 110 538 l 1,7,-1
 110 198 l 1,4,-1
EndSplineSet
Validated: 1
EndChar

StartChar: perthousand
Encoding: 8240 8240 102
Width: 470
Flags: W
LayerCount: 2
Fore
SplineSet
392 325 m 2,0,1
 392 248 392 248 377 202 c 0,2,3
 344 100 344 100 221 100 c 0,4,5
 97 100 97 100 64 196 c 1,6,7
 48 227 48 227 48 325 c 2,8,-1
 48 398 l 1,9,-1
 106 398 l 1,10,-1
 106 326 l 2,11,12
 106 254 106 254 116 227 c 0,13,14
 140 161 140 161 216 161 c 0,15,16
 289 161 289 161 316 209 c 0,17,18
 335 245 335 245 335 326 c 2,19,-1
 335 398 l 1,20,-1
 392 398 l 1,21,-1
 392 325 l 2,0,1
EndSplineSet
Validated: 1
EndChar

StartChar: Scaron
Encoding: 352 352 103
Width: 471
Flags: W
LayerCount: 2
Fore
SplineSet
406 299 m 1,0,-1
 48 299 l 1,1,-1
 48 364 l 1,2,-1
 406 364 l 1,3,-1
 406 299 l 1,0,-1
EndSplineSet
Validated: 1
EndChar

StartChar: guilsinglleft
Encoding: 8249 8249 104
Width: 205
Flags: W
LayerCount: 2
Fore
SplineSet
169 355 m 0,0,1
 169 332 169 332 149.5 314 c 128,-1,2
 130 296 130 296 107 296 c 256,3,4
 84 296 84 296 66 314 c 128,-1,5
 48 332 48 332 48 355 c 0,6,7
 48 381 48 381 64.5 397 c 128,-1,8
 81 413 81 413 107 413 c 0,9,10
 131 413 131 413 150 396 c 128,-1,11
 169 379 169 379 169 355 c 0,0,1
EndSplineSet
Validated: 1
EndChar

StartChar: OE
Encoding: 338 338 105
Width: 226
Flags: W
LayerCount: 2
Fore
SplineSet
169 -252 m 0,0,1
 169 -275 169 -275 149.5 -293 c 128,-1,2
 130 -311 130 -311 107 -311 c 0,3,4
 83 -311 83 -311 65.5 -293.5 c 128,-1,5
 48 -276 48 -276 48 -252 c 0,6,7
 48 -226 48 -226 64.5 -210 c 128,-1,8
 81 -194 81 -194 107 -194 c 0,9,10
 132 -194 132 -194 150.5 -210.5 c 128,-1,11
 169 -227 169 -227 169 -252 c 0,0,1
EndSplineSet
Validated: 1
EndChar

StartChar: quoteleft
Encoding: 8216 8216 106
Width: 224
Flags: W
LayerCount: 2
Fore
SplineSet
182 544 m 0,0,1
 182 517 182 517 163 498 c 128,-1,2
 144 479 144 479 118 479 c 0,3,4
 91 479 91 479 72 498 c 128,-1,5
 53 517 53 517 53 544 c 1,6,-1
 53 544 l 1,7,8
 53 601 53 601 87 633 c 0,9,10
 118 663 118 663 166 663 c 0,11,12
 176 663 176 663 176 653 c 256,13,14
 176 643 176 643 166 643 c 0,15,16
 111 643 111 643 86 600 c 1,17,18
 101 608 101 608 118 608 c 0,19,20
 144 608 144 608 163 589 c 128,-1,21
 182 570 182 570 182 544 c 0,0,1
EndSplineSet
Validated: 5
EndChar

StartChar: quoteright
Encoding: 8217 8217 107
Width: 224
Flags: W
LayerCount: 2
Fore
SplineSet
182 598 m 1,0,1
 182 541 182 541 148 508 c 0,2,3
 117 479 117 479 69 479 c 0,4,5
 59 479 59 479 59 489 c 256,6,7
 59 499 59 499 69 499 c 0,8,9
 124 499 124 499 149 542 c 1,10,11
 134 534 134 534 118 534 c 0,12,13
 91 534 91 534 72 552.5 c 128,-1,14
 53 571 53 571 53 598 c 256,15,16
 53 625 53 625 72 644 c 128,-1,17
 91 663 91 663 118 663 c 0,18,19
 144 663 144 663 163 644 c 128,-1,20
 182 625 182 625 182 598 c 1,21,-1
 182 598 l 1,0,1
EndSplineSet
Validated: 5
EndChar

StartChar: quotedblleft
Encoding: 8220 8220 108
Width: 398
Flags: W
LayerCount: 2
Fore
SplineSet
342 544 m 0,0,1
 342 517 342 517 323 498 c 128,-1,2
 304 479 304 479 278 479 c 0,3,4
 251 479 251 479 232 498 c 128,-1,5
 213 517 213 517 213 544 c 1,6,-1
 213 544 l 1,7,8
 213 601 213 601 247 633 c 0,9,10
 278 663 278 663 326 663 c 0,11,12
 336 663 336 663 336 653 c 256,13,14
 336 643 336 643 326 643 c 0,15,16
 271 643 271 643 246 600 c 1,17,18
 261 608 261 608 278 608 c 0,19,20
 304 608 304 608 323 589 c 128,-1,21
 342 570 342 570 342 544 c 0,0,1
182 544 m 0,22,23
 182 517 182 517 163 498 c 128,-1,24
 144 479 144 479 118 479 c 0,25,26
 91 479 91 479 72 498 c 128,-1,27
 53 517 53 517 53 544 c 1,28,-1
 53 544 l 1,29,30
 53 601 53 601 87 633 c 0,31,32
 118 663 118 663 166 663 c 0,33,34
 176 663 176 663 176 653 c 256,35,36
 176 643 176 643 166 643 c 0,37,38
 111 643 111 643 86 600 c 1,39,40
 101 608 101 608 118 608 c 0,41,42
 144 608 144 608 163 589 c 128,-1,43
 182 570 182 570 182 544 c 0,22,23
EndSplineSet
Validated: 5
EndChar

StartChar: quotedblright
Encoding: 8221 8221 109
Width: 385
Flags: W
LayerCount: 2
Fore
SplineSet
342 598 m 1,0,1
 342 541 342 541 308 508 c 0,2,3
 277 479 277 479 229 479 c 0,4,5
 219 479 219 479 219 489 c 256,6,7
 219 499 219 499 229 499 c 0,8,9
 284 499 284 499 309 542 c 1,10,11
 294 534 294 534 278 534 c 0,12,13
 251 534 251 534 232 552.5 c 128,-1,14
 213 571 213 571 213 598 c 256,15,16
 213 625 213 625 232 644 c 128,-1,17
 251 663 251 663 278 663 c 0,18,19
 304 663 304 663 323 644 c 128,-1,20
 342 625 342 625 342 598 c 1,21,-1
 342 598 l 1,0,1
182 598 m 1,22,23
 182 541 182 541 148 508 c 0,24,25
 117 479 117 479 69 479 c 0,26,27
 59 479 59 479 59 489 c 256,28,29
 59 499 59 499 69 499 c 0,30,31
 124 499 124 499 149 542 c 1,32,33
 134 534 134 534 118 534 c 0,34,35
 91 534 91 534 72 552.5 c 128,-1,36
 53 571 53 571 53 598 c 256,37,38
 53 625 53 625 72 644 c 128,-1,39
 91 663 91 663 118 663 c 0,40,41
 144 663 144 663 163 644 c 128,-1,42
 182 625 182 625 182 598 c 1,43,-1
 182 598 l 1,22,23
EndSplineSet
Validated: 5
EndChar

StartChar: cent
Encoding: 162 162 111
Width: 1234
Flags: W
LayerCount: 2
Fore
SplineSet
300 702 m 1,0,-1
 300 852 l 1,1,-1
 450 852 l 1,2,-1
 450 702 l 1,3,-1
 300 702 l 1,0,-1
150 702 m 1,4,-1
 150 852 l 1,5,-1
 300 852 l 1,6,-1
 300 702 l 1,7,-1
 150 702 l 1,4,-1
450 702 m 1,8,-1
 450 852 l 1,9,-1
 600 852 l 1,10,-1
 600 702 l 1,11,-1
 450 702 l 1,8,-1
600 702 m 1,12,-1
 600 852 l 1,13,-1
 750 852 l 1,14,-1
 750 702 l 1,15,-1
 600 702 l 1,12,-1
750 702 m 1,16,-1
 750 852 l 1,17,-1
 900 852 l 1,18,-1
 900 702 l 1,19,-1
 750 702 l 1,16,-1
900 702 m 1,20,-1
 900 852 l 1,21,-1
 1050 852 l 1,22,-1
 1050 702 l 1,23,-1
 900 702 l 1,20,-1
150 -198 m 1,24,-1
 150 -48 l 1,25,-1
 300 -48 l 1,26,-1
 300 -198 l 1,27,-1
 150 -198 l 1,24,-1
300 -198 m 1,28,-1
 300 -48 l 1,29,-1
 450 -48 l 1,30,-1
 450 -198 l 1,31,-1
 300 -198 l 1,28,-1
450 -48 m 1,32,-1
 450 102 l 1,33,-1
 600 102 l 1,34,-1
 600 -48 l 1,35,-1
 450 -48 l 1,32,-1
750 -198 m 1,36,-1
 750 -48 l 1,37,-1
 900 -48 l 1,38,-1
 900 -198 l 1,39,-1
 750 -198 l 1,36,-1
600 -198 m 1,40,-1
 600 -48 l 1,41,-1
 750 -48 l 1,42,-1
 750 -198 l 1,43,-1
 600 -198 l 1,40,-1
0 402 m 1,44,-1
 0 552 l 1,45,-1
 150 552 l 1,46,-1
 150 402 l 1,47,-1
 0 402 l 1,44,-1
0 552 m 1,48,-1
 0 702 l 1,49,-1
 150 702 l 1,50,-1
 150 552 l 1,51,-1
 0 552 l 1,48,-1
150 402 m 1,52,-1
 150 552 l 1,53,-1
 300 552 l 1,54,-1
 300 402 l 1,55,-1
 150 402 l 1,52,-1
300 402 m 1,56,-1
 300 552 l 1,57,-1
 450 552 l 1,58,-1
 450 402 l 1,59,-1
 300 402 l 1,56,-1
450 402 m 1,60,-1
 450 552 l 1,61,-1
 600 552 l 1,62,-1
 600 402 l 1,63,-1
 450 402 l 1,60,-1
750 402 m 1,64,-1
 750 552 l 1,65,-1
 900 552 l 1,66,-1
 900 402 l 1,67,-1
 750 402 l 1,64,-1
600 402 m 1,68,-1
 600 552 l 1,69,-1
 750 552 l 1,70,-1
 750 402 l 1,71,-1
 600 402 l 1,68,-1
900 552 m 1,72,-1
 900 702 l 1,73,-1
 1050 702 l 1,74,-1
 1050 552 l 1,75,-1
 900 552 l 1,72,-1
0 252 m 1,76,-1
 0 402 l 1,77,-1
 150 402 l 1,78,-1
 150 252 l 1,79,-1
 0 252 l 1,76,-1
900 252 m 1,80,-1
 900 402 l 1,81,-1
 1050 402 l 1,82,-1
 1050 252 l 1,83,-1
 900 252 l 1,80,-1
0 102 m 1,84,-1
 0 252 l 1,85,-1
 150 252 l 1,86,-1
 150 102 l 1,87,-1
 0 102 l 1,84,-1
900 102 m 1,88,-1
 900 252 l 1,89,-1
 1050 252 l 1,90,-1
 1050 102 l 1,91,-1
 900 102 l 1,88,-1
0 -48 m 1,92,-1
 0 102 l 1,93,-1
 150 102 l 1,94,-1
 150 -48 l 1,95,-1
 0 -48 l 1,92,-1
900 -48 m 1,96,-1
 900 102 l 1,97,-1
 1050 102 l 1,98,-1
 1050 -48 l 1,99,-1
 900 -48 l 1,96,-1
EndSplineSet
Validated: 2053
EndChar

StartChar: sterling
Encoding: 163 163 112
Width: 1176
Flags: W
LayerCount: 2
Fore
SplineSet
0 -49 m 1,0,-1
 0 101 l 1,1,-1
 150 101 l 1,2,-1
 150 -49 l 1,3,-1
 0 -49 l 1,0,-1
0 -199 m 1,4,-1
 0 -49 l 1,5,-1
 150 -49 l 1,6,-1
 150 -199 l 1,7,-1
 0 -199 l 1,4,-1
450 701 m 1,8,-1
 450 851 l 1,9,-1
 600 851 l 1,10,-1
 600 701 l 1,11,-1
 450 701 l 1,8,-1
300 701 m 1,12,-1
 300 851 l 1,13,-1
 450 851 l 1,14,-1
 450 701 l 1,15,-1
 300 701 l 1,12,-1
150 701 m 1,16,-1
 150 851 l 1,17,-1
 300 851 l 1,18,-1
 300 701 l 1,19,-1
 150 701 l 1,16,-1
0 701 m 1,20,-1
 0 851 l 1,21,-1
 150 851 l 1,22,-1
 150 701 l 1,23,-1
 0 701 l 1,20,-1
750 251 m 1,24,-1
 750 401 l 1,25,-1
 900 401 l 1,26,-1
 900 251 l 1,27,-1
 750 251 l 1,24,-1
750 401 m 1,28,-1
 750 551 l 1,29,-1
 900 551 l 1,30,-1
 900 401 l 1,31,-1
 750 401 l 1,28,-1
600 551 m 1,32,-1
 600 701 l 1,33,-1
 750 701 l 1,34,-1
 750 551 l 1,35,-1
 600 551 l 1,32,-1
150 101 m 1,36,-1
 150 251 l 1,37,-1
 300 251 l 1,38,-1
 300 101 l 1,39,-1
 150 101 l 1,36,-1
750 101 m 1,40,-1
 750 251 l 1,41,-1
 900 251 l 1,42,-1
 900 101 l 1,43,-1
 750 101 l 1,40,-1
300 -49 m 1,44,-1
 300 101 l 1,45,-1
 450 101 l 1,46,-1
 450 -49 l 1,47,-1
 300 -49 l 1,44,-1
750 -49 m 1,48,-1
 750 101 l 1,49,-1
 900 101 l 1,50,-1
 900 -49 l 1,51,-1
 750 -49 l 1,48,-1
450 -199 m 1,52,-1
 450 -49 l 1,53,-1
 600 -49 l 1,54,-1
 600 -199 l 1,55,-1
 450 -199 l 1,52,-1
600 -199 m 1,56,-1
 600 -49 l 1,57,-1
 750 -49 l 1,58,-1
 750 -199 l 1,59,-1
 600 -199 l 1,56,-1
EndSplineSet
Validated: 2053
EndChar

StartChar: currency
Encoding: 164 164 113
Width: 1102
Flags: W
LayerCount: 2
Fore
SplineSet
0 -48 m 1,0,-1
 0 102 l 1,1,-1
 150 102 l 1,2,-1
 150 -48 l 1,3,-1
 0 -48 l 1,0,-1
0 -198 m 1,4,-1
 0 -48 l 1,5,-1
 150 -48 l 1,6,-1
 150 -198 l 1,7,-1
 0 -198 l 1,4,-1
450 702 m 1,8,-1
 450 852 l 1,9,-1
 600 852 l 1,10,-1
 600 702 l 1,11,-1
 450 702 l 1,8,-1
300 702 m 1,12,-1
 300 852 l 1,13,-1
 450 852 l 1,14,-1
 450 702 l 1,15,-1
 300 702 l 1,12,-1
150 702 m 1,16,-1
 150 852 l 1,17,-1
 300 852 l 1,18,-1
 300 702 l 1,19,-1
 150 702 l 1,16,-1
0 702 m 1,20,-1
 0 852 l 1,21,-1
 150 852 l 1,22,-1
 150 702 l 1,23,-1
 0 702 l 1,20,-1
750 252 m 1,24,-1
 750 402 l 1,25,-1
 900 402 l 1,26,-1
 900 252 l 1,27,-1
 750 252 l 1,24,-1
750 402 m 1,28,-1
 750 552 l 1,29,-1
 900 552 l 1,30,-1
 900 402 l 1,31,-1
 750 402 l 1,28,-1
600 702 m 1,32,-1
 600 852 l 1,33,-1
 750 852 l 1,34,-1
 750 702 l 1,35,-1
 600 702 l 1,32,-1
750 552 m 1,36,-1
 750 702 l 1,37,-1
 900 702 l 1,38,-1
 900 552 l 1,39,-1
 750 552 l 1,36,-1
450 402 m 1,40,-1
 450 552 l 1,41,-1
 600 552 l 1,42,-1
 600 402 l 1,43,-1
 450 402 l 1,40,-1
300 402 m 1,44,-1
 300 552 l 1,45,-1
 450 552 l 1,46,-1
 450 402 l 1,47,-1
 300 402 l 1,44,-1
150 402 m 1,48,-1
 150 552 l 1,49,-1
 300 552 l 1,50,-1
 300 402 l 1,51,-1
 150 402 l 1,48,-1
0 552 m 1,52,-1
 0 702 l 1,53,-1
 150 702 l 1,54,-1
 150 552 l 1,55,-1
 0 552 l 1,52,-1
600 402 m 1,56,-1
 600 552 l 1,57,-1
 750 552 l 1,58,-1
 750 402 l 1,59,-1
 600 402 l 1,56,-1
150 102 m 1,60,-1
 150 252 l 1,61,-1
 300 252 l 1,62,-1
 300 102 l 1,63,-1
 150 102 l 1,60,-1
750 102 m 1,64,-1
 750 252 l 1,65,-1
 900 252 l 1,66,-1
 900 102 l 1,67,-1
 750 102 l 1,64,-1
300 -48 m 1,68,-1
 300 102 l 1,69,-1
 450 102 l 1,70,-1
 450 -48 l 1,71,-1
 300 -48 l 1,68,-1
750 -48 m 1,72,-1
 750 102 l 1,73,-1
 900 102 l 1,74,-1
 900 -48 l 1,75,-1
 750 -48 l 1,72,-1
450 -198 m 1,76,-1
 450 -48 l 1,77,-1
 600 -48 l 1,78,-1
 600 -198 l 1,79,-1
 450 -198 l 1,76,-1
600 -198 m 1,80,-1
 600 -48 l 1,81,-1
 750 -48 l 1,82,-1
 750 -198 l 1,83,-1
 600 -198 l 1,80,-1
EndSplineSet
Validated: 2053
EndChar

StartChar: yen
Encoding: 165 165 114
Width: 1176
Flags: W
LayerCount: 2
Fore
SplineSet
448 552 m 1,0,-1
 448 702 l 1,1,-1
 598 702 l 1,2,-1
 598 552 l 1,3,-1
 448 552 l 1,0,-1
448 702 m 1,4,-1
 448 852 l 1,5,-1
 598 852 l 1,6,-1
 598 702 l 1,7,-1
 448 702 l 1,4,-1
598 702 m 1,8,-1
 598 852 l 1,9,-1
 748 852 l 1,10,-1
 748 702 l 1,11,-1
 598 702 l 1,8,-1
748 702 m 1,12,-1
 748 852 l 1,13,-1
 898 852 l 1,14,-1
 898 702 l 1,15,-1
 748 702 l 1,12,-1
298 702 m 1,16,-1
 298 852 l 1,17,-1
 448 852 l 1,18,-1
 448 702 l 1,19,-1
 298 702 l 1,16,-1
148 702 m 1,20,-1
 148 852 l 1,21,-1
 298 852 l 1,22,-1
 298 702 l 1,23,-1
 148 702 l 1,20,-1
448 -48 m 1,24,-1
 448 102 l 1,25,-1
 598 102 l 1,26,-1
 598 -48 l 1,27,-1
 448 -48 l 1,24,-1
598 -198 m 1,28,-1
 598 -48 l 1,29,-1
 748 -48 l 1,30,-1
 748 -198 l 1,31,-1
 598 -198 l 1,28,-1
748 -198 m 1,32,-1
 748 -48 l 1,33,-1
 898 -48 l 1,34,-1
 898 -198 l 1,35,-1
 748 -198 l 1,32,-1
748 252 m 1,36,-1
 748 402 l 1,37,-1
 898 402 l 1,38,-1
 898 252 l 1,39,-1
 748 252 l 1,36,-1
898 252 m 1,40,-1
 898 402 l 1,41,-1
 1048 402 l 1,42,-1
 1048 252 l 1,43,-1
 898 252 l 1,40,-1
298 -198 m 1,44,-1
 298 -48 l 1,45,-1
 448 -48 l 1,46,-1
 448 -198 l 1,47,-1
 298 -198 l 1,44,-1
898 102 m 1,48,-1
 898 252 l 1,49,-1
 1048 252 l 1,50,-1
 1048 102 l 1,51,-1
 898 102 l 1,48,-1
148 -198 m 1,52,-1
 148 -48 l 1,53,-1
 298 -48 l 1,54,-1
 298 -198 l 1,55,-1
 148 -198 l 1,52,-1
-2 -48 m 1,56,-1
 -2 102 l 1,57,-1
 148 102 l 1,58,-1
 148 -48 l 1,59,-1
 -2 -48 l 1,56,-1
-2 102 m 1,60,-1
 -2 252 l 1,61,-1
 148 252 l 1,62,-1
 148 102 l 1,63,-1
 -2 102 l 1,60,-1
-2 252 m 1,64,-1
 -2 402 l 1,65,-1
 148 402 l 1,66,-1
 148 252 l 1,67,-1
 -2 252 l 1,64,-1
148 252 m 1,68,-1
 148 402 l 1,69,-1
 298 402 l 1,70,-1
 298 252 l 1,71,-1
 148 252 l 1,68,-1
898 -48 m 1,72,-1
 898 102 l 1,73,-1
 1048 102 l 1,74,-1
 1048 -48 l 1,75,-1
 898 -48 l 1,72,-1
EndSplineSet
Validated: 2053
EndChar

StartChar: brokenbar
Encoding: 166 166 115
Width: 1246
Flags: W
LayerCount: 2
Fore
SplineSet
598 552 m 1,0,-1
 598 702 l 1,1,-1
 748 702 l 1,2,-1
 748 552 l 1,3,-1
 598 552 l 1,0,-1
448 702 m 1,4,-1
 448 852 l 1,5,-1
 598 852 l 1,6,-1
 598 702 l 1,7,-1
 448 702 l 1,4,-1
598 702 m 1,8,-1
 598 852 l 1,9,-1
 748 852 l 1,10,-1
 748 702 l 1,11,-1
 598 702 l 1,8,-1
598 402 m 1,12,-1
 598 552 l 1,13,-1
 748 552 l 1,14,-1
 748 402 l 1,15,-1
 598 402 l 1,12,-1
598 252 m 1,16,-1
 598 402 l 1,17,-1
 748 402 l 1,18,-1
 748 252 l 1,19,-1
 598 252 l 1,16,-1
298 702 m 1,20,-1
 298 852 l 1,21,-1
 448 852 l 1,22,-1
 448 702 l 1,23,-1
 298 702 l 1,20,-1
298 552 m 1,24,-1
 298 702 l 1,25,-1
 448 702 l 1,26,-1
 448 552 l 1,27,-1
 298 552 l 1,24,-1
298 402 m 1,28,-1
 298 552 l 1,29,-1
 448 552 l 1,30,-1
 448 402 l 1,31,-1
 298 402 l 1,28,-1
448 402 m 1,32,-1
 448 552 l 1,33,-1
 598 552 l 1,34,-1
 598 402 l 1,35,-1
 448 402 l 1,32,-1
448 -48 m 1,36,-1
 448 102 l 1,37,-1
 598 102 l 1,38,-1
 598 -48 l 1,39,-1
 448 -48 l 1,36,-1
598 -198 m 1,40,-1
 598 -48 l 1,41,-1
 748 -48 l 1,42,-1
 748 -198 l 1,43,-1
 598 -198 l 1,40,-1
748 -198 m 1,44,-1
 748 -48 l 1,45,-1
 898 -48 l 1,46,-1
 898 -198 l 1,47,-1
 748 -198 l 1,44,-1
898 252 m 1,48,-1
 898 402 l 1,49,-1
 1048 402 l 1,50,-1
 1048 252 l 1,51,-1
 898 252 l 1,48,-1
298 -198 m 1,52,-1
 298 -48 l 1,53,-1
 448 -48 l 1,54,-1
 448 -198 l 1,55,-1
 298 -198 l 1,52,-1
898 102 m 1,56,-1
 898 252 l 1,57,-1
 1048 252 l 1,58,-1
 1048 102 l 1,59,-1
 898 102 l 1,56,-1
148 -198 m 1,60,-1
 148 -48 l 1,61,-1
 298 -48 l 1,62,-1
 298 -198 l 1,63,-1
 148 -198 l 1,60,-1
-2 -48 m 1,64,-1
 -2 102 l 1,65,-1
 148 102 l 1,66,-1
 148 -48 l 1,67,-1
 -2 -48 l 1,64,-1
-2 102 m 1,68,-1
 -2 252 l 1,69,-1
 148 252 l 1,70,-1
 148 102 l 1,71,-1
 -2 102 l 1,68,-1
148 102 m 1,72,-1
 148 252 l 1,73,-1
 298 252 l 1,74,-1
 298 102 l 1,75,-1
 148 102 l 1,72,-1
898 -48 m 1,76,-1
 898 102 l 1,77,-1
 1048 102 l 1,78,-1
 1048 -48 l 1,79,-1
 898 -48 l 1,76,-1
EndSplineSet
Validated: 2053
EndChar

StartChar: section
Encoding: 167 167 116
Width: 1227
Flags: W
LayerCount: 2
Fore
SplineSet
748 702 m 1,0,-1
 748 852 l 1,1,-1
 898 852 l 1,2,-1
 898 702 l 1,3,-1
 748 702 l 1,0,-1
298 -198 m 1,4,-1
 298 -48 l 1,5,-1
 448 -48 l 1,6,-1
 448 -198 l 1,7,-1
 298 -198 l 1,4,-1
148 -198 m 1,8,-1
 148 -48 l 1,9,-1
 298 -48 l 1,10,-1
 298 -198 l 1,11,-1
 148 -198 l 1,8,-1
448 -48 m 1,12,-1
 448 102 l 1,13,-1
 598 102 l 1,14,-1
 598 -48 l 1,15,-1
 448 -48 l 1,12,-1
598 -198 m 1,16,-1
 598 -48 l 1,17,-1
 748 -48 l 1,18,-1
 748 -198 l 1,19,-1
 598 -198 l 1,16,-1
748 -198 m 1,20,-1
 748 -48 l 1,21,-1
 898 -48 l 1,22,-1
 898 -198 l 1,23,-1
 748 -198 l 1,20,-1
898 402 m 1,24,-1
 898 552 l 1,25,-1
 1048 552 l 1,26,-1
 1048 402 l 1,27,-1
 898 402 l 1,24,-1
898 552 m 1,28,-1
 898 702 l 1,29,-1
 1048 702 l 1,30,-1
 1048 552 l 1,31,-1
 898 552 l 1,28,-1
898 252 m 1,32,-1
 898 402 l 1,33,-1
 1048 402 l 1,34,-1
 1048 252 l 1,35,-1
 898 252 l 1,32,-1
-2 102 m 1,36,-1
 -2 252 l 1,37,-1
 148 252 l 1,38,-1
 148 102 l 1,39,-1
 -2 102 l 1,36,-1
-2 252 m 1,40,-1
 -2 402 l 1,41,-1
 148 402 l 1,42,-1
 148 252 l 1,43,-1
 -2 252 l 1,40,-1
148 402 m 1,44,-1
 148 552 l 1,45,-1
 298 552 l 1,46,-1
 298 402 l 1,47,-1
 148 402 l 1,44,-1
148 552 m 1,48,-1
 148 702 l 1,49,-1
 298 702 l 1,50,-1
 298 552 l 1,51,-1
 148 552 l 1,48,-1
148 702 m 1,52,-1
 148 852 l 1,53,-1
 298 852 l 1,54,-1
 298 702 l 1,55,-1
 148 702 l 1,52,-1
-2 702 m 1,56,-1
 -2 852 l 1,57,-1
 148 852 l 1,58,-1
 148 702 l 1,59,-1
 -2 702 l 1,56,-1
898 102 m 1,60,-1
 898 252 l 1,61,-1
 1048 252 l 1,62,-1
 1048 102 l 1,63,-1
 898 102 l 1,60,-1
-2 -48 m 1,64,-1
 -2 102 l 1,65,-1
 148 102 l 1,66,-1
 148 -48 l 1,67,-1
 -2 -48 l 1,64,-1
898 -48 m 1,68,-1
 898 102 l 1,69,-1
 1048 102 l 1,70,-1
 1048 -48 l 1,71,-1
 898 -48 l 1,68,-1
EndSplineSet
Validated: 2053
EndChar

StartChar: dieresis
Encoding: 168 168 117
Width: 1176
Flags: W
LayerCount: 2
Fore
SplineSet
748 702 m 1,0,-1
 748 852 l 1,1,-1
 898 852 l 1,2,-1
 898 702 l 1,3,-1
 748 702 l 1,0,-1
598 702 m 1,4,-1
 598 852 l 1,5,-1
 748 852 l 1,6,-1
 748 702 l 1,7,-1
 598 702 l 1,4,-1
448 702 m 1,8,-1
 448 852 l 1,9,-1
 598 852 l 1,10,-1
 598 702 l 1,11,-1
 448 702 l 1,8,-1
298 -198 m 1,12,-1
 298 -48 l 1,13,-1
 448 -48 l 1,14,-1
 448 -198 l 1,15,-1
 298 -198 l 1,12,-1
148 -198 m 1,16,-1
 148 -48 l 1,17,-1
 298 -48 l 1,18,-1
 298 -198 l 1,19,-1
 148 -198 l 1,16,-1
448 -48 m 1,20,-1
 448 102 l 1,21,-1
 598 102 l 1,22,-1
 598 -48 l 1,23,-1
 448 -48 l 1,20,-1
598 -198 m 1,24,-1
 598 -48 l 1,25,-1
 748 -48 l 1,26,-1
 748 -198 l 1,27,-1
 598 -198 l 1,24,-1
748 -198 m 1,28,-1
 748 -48 l 1,29,-1
 898 -48 l 1,30,-1
 898 -198 l 1,31,-1
 748 -198 l 1,28,-1
898 402 m 1,32,-1
 898 552 l 1,33,-1
 1048 552 l 1,34,-1
 1048 402 l 1,35,-1
 898 402 l 1,32,-1
898 552 m 1,36,-1
 898 702 l 1,37,-1
 1048 702 l 1,38,-1
 1048 552 l 1,39,-1
 898 552 l 1,36,-1
898 252 m 1,40,-1
 898 402 l 1,41,-1
 1048 402 l 1,42,-1
 1048 252 l 1,43,-1
 898 252 l 1,40,-1
-2 102 m 1,44,-1
 -2 252 l 1,45,-1
 148 252 l 1,46,-1
 148 102 l 1,47,-1
 -2 102 l 1,44,-1
-2 252 m 1,48,-1
 -2 402 l 1,49,-1
 148 402 l 1,50,-1
 148 252 l 1,51,-1
 -2 252 l 1,48,-1
148 402 m 1,52,-1
 148 552 l 1,53,-1
 298 552 l 1,54,-1
 298 402 l 1,55,-1
 148 402 l 1,52,-1
148 552 m 1,56,-1
 148 702 l 1,57,-1
 298 702 l 1,58,-1
 298 552 l 1,59,-1
 148 552 l 1,56,-1
148 702 m 1,60,-1
 148 852 l 1,61,-1
 298 852 l 1,62,-1
 298 702 l 1,63,-1
 148 702 l 1,60,-1
-2 702 m 1,64,-1
 -2 852 l 1,65,-1
 148 852 l 1,66,-1
 148 702 l 1,67,-1
 -2 702 l 1,64,-1
898 102 m 1,68,-1
 898 252 l 1,69,-1
 1048 252 l 1,70,-1
 1048 102 l 1,71,-1
 898 102 l 1,68,-1
-2 -48 m 1,72,-1
 -2 102 l 1,73,-1
 148 102 l 1,74,-1
 148 -48 l 1,75,-1
 -2 -48 l 1,72,-1
898 -48 m 1,76,-1
 898 102 l 1,77,-1
 1048 102 l 1,78,-1
 1048 -48 l 1,79,-1
 898 -48 l 1,76,-1
EndSplineSet
Validated: 2053
EndChar

StartChar: copyright
Encoding: 169 169 118
Width: 1176
Flags: W
LayerCount: 2
Fore
SplineSet
748 702 m 1,0,-1
 748 852 l 1,1,-1
 898 852 l 1,2,-1
 898 702 l 1,3,-1
 748 702 l 1,0,-1
598 702 m 1,4,-1
 598 852 l 1,5,-1
 748 852 l 1,6,-1
 748 702 l 1,7,-1
 598 702 l 1,4,-1
598 552 m 1,8,-1
 598 702 l 1,9,-1
 748 702 l 1,10,-1
 748 552 l 1,11,-1
 598 552 l 1,8,-1
598 402 m 1,12,-1
 598 552 l 1,13,-1
 748 552 l 1,14,-1
 748 402 l 1,15,-1
 598 402 l 1,12,-1
748 402 m 1,16,-1
 748 552 l 1,17,-1
 898 552 l 1,18,-1
 898 402 l 1,19,-1
 748 402 l 1,16,-1
298 -198 m 1,20,-1
 298 -48 l 1,21,-1
 448 -48 l 1,22,-1
 448 -198 l 1,23,-1
 298 -198 l 1,20,-1
148 -198 m 1,24,-1
 148 -48 l 1,25,-1
 298 -48 l 1,26,-1
 298 -198 l 1,27,-1
 148 -198 l 1,24,-1
448 -48 m 1,28,-1
 448 102 l 1,29,-1
 598 102 l 1,30,-1
 598 -48 l 1,31,-1
 448 -48 l 1,28,-1
598 -198 m 1,32,-1
 598 -48 l 1,33,-1
 748 -48 l 1,34,-1
 748 -198 l 1,35,-1
 598 -198 l 1,32,-1
748 -198 m 1,36,-1
 748 -48 l 1,37,-1
 898 -48 l 1,38,-1
 898 -198 l 1,39,-1
 748 -198 l 1,36,-1
898 402 m 1,40,-1
 898 552 l 1,41,-1
 1048 552 l 1,42,-1
 1048 402 l 1,43,-1
 898 402 l 1,40,-1
898 552 m 1,44,-1
 898 702 l 1,45,-1
 1048 702 l 1,46,-1
 1048 552 l 1,47,-1
 898 552 l 1,44,-1
898 252 m 1,48,-1
 898 402 l 1,49,-1
 1048 402 l 1,50,-1
 1048 252 l 1,51,-1
 898 252 l 1,48,-1
-2 102 m 1,52,-1
 -2 252 l 1,53,-1
 148 252 l 1,54,-1
 148 102 l 1,55,-1
 -2 102 l 1,52,-1
-2 252 m 1,56,-1
 -2 402 l 1,57,-1
 148 402 l 1,58,-1
 148 252 l 1,59,-1
 -2 252 l 1,56,-1
148 402 m 1,60,-1
 148 552 l 1,61,-1
 298 552 l 1,62,-1
 298 402 l 1,63,-1
 148 402 l 1,60,-1
148 552 m 1,64,-1
 148 702 l 1,65,-1
 298 702 l 1,66,-1
 298 552 l 1,67,-1
 148 552 l 1,64,-1
148 702 m 1,68,-1
 148 852 l 1,69,-1
 298 852 l 1,70,-1
 298 702 l 1,71,-1
 148 702 l 1,68,-1
-2 702 m 1,72,-1
 -2 852 l 1,73,-1
 148 852 l 1,74,-1
 148 702 l 1,75,-1
 -2 702 l 1,72,-1
898 102 m 1,76,-1
 898 252 l 1,77,-1
 1048 252 l 1,78,-1
 1048 102 l 1,79,-1
 898 102 l 1,76,-1
-2 -48 m 1,80,-1
 -2 102 l 1,81,-1
 148 102 l 1,82,-1
 148 -48 l 1,83,-1
 -2 -48 l 1,80,-1
898 -48 m 1,84,-1
 898 102 l 1,85,-1
 1048 102 l 1,86,-1
 1048 -48 l 1,87,-1
 898 -48 l 1,84,-1
EndSplineSet
Validated: 2053
EndChar

StartChar: ordfeminine
Encoding: 170 170 119
Width: 1176
Flags: W
LayerCount: 2
Fore
SplineSet
598 702 m 1,0,-1
 598 852 l 1,1,-1
 748 852 l 1,2,-1
 748 702 l 1,3,-1
 598 702 l 1,0,-1
448 702 m 1,4,-1
 448 852 l 1,5,-1
 598 852 l 1,6,-1
 598 702 l 1,7,-1
 448 702 l 1,4,-1
298 702 m 1,8,-1
 298 852 l 1,9,-1
 448 852 l 1,10,-1
 448 702 l 1,11,-1
 298 702 l 1,8,-1
448 -48 m 1,12,-1
 448 102 l 1,13,-1
 598 102 l 1,14,-1
 598 -48 l 1,15,-1
 448 -48 l 1,12,-1
598 -198 m 1,16,-1
 598 -48 l 1,17,-1
 748 -48 l 1,18,-1
 748 -198 l 1,19,-1
 598 -198 l 1,16,-1
748 702 m 1,20,-1
 748 852 l 1,21,-1
 898 852 l 1,22,-1
 898 702 l 1,23,-1
 748 702 l 1,20,-1
748 552 m 1,24,-1
 748 702 l 1,25,-1
 898 702 l 1,26,-1
 898 552 l 1,27,-1
 748 552 l 1,24,-1
898 252 m 1,28,-1
 898 402 l 1,29,-1
 1048 402 l 1,30,-1
 1048 252 l 1,31,-1
 898 252 l 1,28,-1
898 402 m 1,32,-1
 898 552 l 1,33,-1
 1048 552 l 1,34,-1
 1048 402 l 1,35,-1
 898 402 l 1,32,-1
-2 102 m 1,36,-1
 -2 252 l 1,37,-1
 148 252 l 1,38,-1
 148 102 l 1,39,-1
 -2 102 l 1,36,-1
148 102 m 1,40,-1
 148 252 l 1,41,-1
 298 252 l 1,42,-1
 298 102 l 1,43,-1
 148 102 l 1,40,-1
-2 -48 m 1,44,-1
 -2 102 l 1,45,-1
 148 102 l 1,46,-1
 148 -48 l 1,47,-1
 -2 -48 l 1,44,-1
898 102 m 1,48,-1
 898 252 l 1,49,-1
 1048 252 l 1,50,-1
 1048 102 l 1,51,-1
 898 102 l 1,48,-1
898 -48 m 1,52,-1
 898 102 l 1,53,-1
 1048 102 l 1,54,-1
 1048 -48 l 1,55,-1
 898 -48 l 1,52,-1
298 -198 m 1,56,-1
 298 -48 l 1,57,-1
 448 -48 l 1,58,-1
 448 -198 l 1,59,-1
 298 -198 l 1,56,-1
148 -198 m 1,60,-1
 148 -48 l 1,61,-1
 298 -48 l 1,62,-1
 298 -198 l 1,63,-1
 148 -198 l 1,60,-1
748 -198 m 1,64,-1
 748 -48 l 1,65,-1
 898 -48 l 1,66,-1
 898 -198 l 1,67,-1
 748 -198 l 1,64,-1
EndSplineSet
Validated: 2053
EndChar

